Rokkitt Light 100-200.ufo
<glyph name="fj" format="1">
  <advance width="989"/>
  <unicode hex="0000"/>
  <outline>
    <contour>
      <point x="593" y="-250" type="line"/>
      <point x="667" y="-250" type="line" smooth="yes"/>
      <point x="869" y="-250"/>
      <point x="858" y="-119"/>
      <point x="858" y="-26" type="curve" smooth="yes"/>
      <point x="858" y="804" type="line"/>
      <point x="439" y="804" type="line"/>
      <point x="439" y="759" type="line"/>
      <point x="797" y="759" type="line"/>
      <point x="797" y="-34" type="line" smooth="yes"/>
      <point x="797" y="-146"/>
      <point x="799" y="-203"/>
      <point x="662" y="-203" type="curve" smooth="yes"/>
      <point x="593" y="-203" type="line"/>
    </contour>
    <contour>
      <point x="814" y="1042" type="curve" smooth="yes"/>
      <point x="852" y="1042"/>
      <point x="871" y="1067"/>
      <point x="871" y="1096" type="curve" smooth="yes"/>
      <point x="871" y="1125"/>
      <point x="852" y="1149"/>
      <point x="814" y="1149" type="curve" smooth="yes"/>
      <point x="780" y="1149"/>
      <point x="761" y="1125"/>
      <point x="761" y="1096" type="curve" smooth="yes"/>
      <point x="761" y="1067"/>
      <point x="780" y="1042"/>
    </contour>
    <component base="f"/>
  </outline>
</glyph>
<glyph name="exclam" format="1">
  <advance width="268"/>
  <unicode hex="0021"/>
  <outline>
    <contour>
      <point x="118" y="322" type="line"/>
      <point x="152" y="322" type="line"/>
      <point x="182" y="764" type="line"/>
      <point x="182" y="1155" type="line"/>
      <point x="88" y="1155" type="line"/>
      <point x="88" y="764" type="line"/>
    </contour>
    <contour>
      <point x="79" y="0" type="line"/>
      <point x="189" y="0" type="line"/>
      <point x="189" y="113" type="line"/>
      <point x="79" y="113" type="line"/>
    </contour>
  </outline>
</glyph>
<glyph name="quotedbl" format="1">
  <advance width="571"/>
  <unicode hex="0022"/>
  <outline>
    <contour>
      <point x="160" y="837" type="line"/>
      <point x="202" y="837" type="line"/>
      <point x="236" y="1226" type="line"/>
      <point x="131" y="1226" type="line"/>
    </contour>
    <contour>
      <point x="369" y="837" type="line"/>
      <point x="411" y="837" type="line"/>
      <point x="445" y="1226" type="line"/>
      <point x="341" y="1226" type="line"/>
    </contour>
  </outline>
</glyph>
<glyph name="numbersign" format="1">
  <advance width="959"/>
  <unicode hex="0023"/>
  <outline>
    <contour>
      <point x="203" y="0" type="line"/>
      <point x="259" y="0" type="line"/>
      <point x="292" y="379" type="line"/>
      <point x="639" y="379" type="line"/>
      <point x="606" y="0" type="line"/>
      <point x="662" y="0" type="line"/>
      <point x="695" y="379" type="line"/>
      <point x="854" y="379" type="line"/>
      <point x="857" y="424" type="line"/>
      <point x="699" y="424" type="line"/>
      <point x="728" y="770" type="line"/>
      <point x="886" y="770" type="line"/>
      <point x="889" y="814" type="line"/>
      <point x="731" y="814" type="line"/>
      <point x="760" y="1153" type="line"/>
      <point x="704" y="1153" type="line"/>
      <point x="675" y="814" type="line"/>
      <point x="328" y="814" type="line"/>
      <point x="357" y="1153" type="line"/>
      <point x="301" y="1153" type="line"/>
      <point x="272" y="814" type="line"/>
      <point x="115" y="814" type="line"/>
      <point x="111" y="770" type="line"/>
      <point x="269" y="770" type="line"/>
      <point x="240" y="424" type="line"/>
      <point x="83" y="424" type="line"/>
      <point x="78" y="379" type="line"/>
      <point x="236" y="379" type="line"/>
    </contour>
    <contour>
      <point x="295" y="424" type="line"/>
      <point x="325" y="770" type="line"/>
      <point x="672" y="770" type="line"/>
      <point x="643" y="424" type="line"/>
    </contour>
  </outline>
</glyph>
<glyph name="percent" format="1">
  <advance width="1579"/>
  <unicode hex="0025"/>
  <outline>
    <contour>
      <point x="390" y="650" type="curve" smooth="yes"/>
      <point x="261" y="650"/>
      <point x="152" y="740"/>
      <point x="152" y="889" type="curve" smooth="yes"/>
      <point x="152" y="1036"/>
      <point x="261" y="1124"/>
      <point x="390" y="1124" type="curve" smooth="yes"/>
      <point x="519" y="1124"/>
      <point x="630" y="1036"/>
      <point x="630" y="889" type="curve" smooth="yes"/>
      <point x="630" y="740"/>
      <point x="519" y="650"/>
    </contour>
    <contour>
      <point x="390" y="602" type="curve" smooth="yes"/>
      <point x="550" y="602"/>
      <point x="687" y="709"/>
      <point x="687" y="889" type="curve" smooth="yes"/>
      <point x="687" y="1067"/>
      <point x="550" y="1172"/>
      <point x="390" y="1172" type="curve" smooth="yes"/>
      <point x="229" y="1172"/>
      <point x="95" y="1066"/>
      <point x="95" y="889" type="curve" smooth="yes"/>
      <point x="95" y="709"/>
      <point x="230" y="602"/>
    </contour>
    <contour>
      <point x="304" y="-41" type="line"/>
      <point x="1331" y="1191" type="line"/>
      <point x="1299" y="1222" type="line"/>
      <point x="270" y="-7" type="line"/>
    </contour>
    <contour>
      <point x="1174" y="24" type="curve" smooth="yes"/>
      <point x="1044" y="24"/>
      <point x="936" y="113"/>
      <point x="936" y="262" type="curve" smooth="yes"/>
      <point x="936" y="410"/>
      <point x="1044" y="499"/>
      <point x="1174" y="499" type="curve" smooth="yes"/>
      <point x="1303" y="499"/>
      <point x="1413" y="410"/>
      <point x="1413" y="262" type="curve" smooth="yes"/>
      <point x="1413" y="113"/>
      <point x="1303" y="24"/>
    </contour>
    <contour>
      <point x="1174" y="-24" type="curve" smooth="yes"/>
      <point x="1334" y="-24"/>
      <point x="1471" y="83"/>
      <point x="1471" y="262" type="curve" smooth="yes"/>
      <point x="1471" y="441"/>
      <point x="1334" y="546"/>
      <point x="1174" y="546" type="curve" smooth="yes"/>
      <point x="1014" y="546"/>
      <point x="879" y="440"/>
      <point x="879" y="262" type="curve" smooth="yes"/>
      <point x="879" y="83"/>
      <point x="1014" y="-24"/>
    </contour>
  </outline>
</glyph>
<glyph name="ampersand" format="1">
  <advance width="1105"/>
  <unicode hex="0026"/>
  <outline>
    <contour>
      <point x="473" y="-24" type="curve" smooth="yes"/>
      <point x="583" y="-24"/>
      <point x="698" y="-12"/>
      <point x="794" y="102" type="curve"/>
      <point x="890" y="-1" type="line"/>
      <point x="1058" y="-1" type="line"/>
      <point x="1058" y="51" type="line"/>
      <point x="914" y="51" type="line"/>
      <point x="834" y="146" type="line"/>
      <point x="842" y="161"/>
      <point x="933" y="291"/>
      <point x="926" y="409" type="curve"/>
      <point x="1058" y="409" type="line"/>
      <point x="1058" y="456" type="line"/>
      <point x="882" y="456" type="line"/>
      <point x="886" y="272"/>
      <point x="812" y="203"/>
      <point x="805" y="191" type="curve"/>
      <point x="463" y="633" type="line"/>
      <point x="687" y="723"/>
      <point x="743" y="831"/>
      <point x="743" y="961" type="curve" smooth="yes"/>
      <point x="743" y="1078"/>
      <point x="646" y="1172"/>
      <point x="480" y="1172" type="curve" smooth="yes"/>
      <point x="314" y="1172"/>
      <point x="224" y="1074"/>
      <point x="224" y="961" type="curve" smooth="yes"/>
      <point x="224" y="819"/>
      <point x="401" y="634"/>
      <point x="387" y="652" type="curve"/>
      <point x="166" y="582"/>
      <point x="110" y="469"/>
      <point x="110" y="296" type="curve" smooth="yes"/>
      <point x="110" y="122"/>
      <point x="271" y="-24"/>
    </contour>
    <contour>
      <point x="477" y="30" type="curve" smooth="yes"/>
      <point x="284" y="30"/>
      <point x="163" y="168"/>
      <point x="163" y="308" type="curve" smooth="yes"/>
      <point x="163" y="434"/>
      <point x="209" y="550"/>
      <point x="414" y="609" type="curve"/>
      <point x="764" y="146" type="line"/>
      <point x="674" y="39"/>
      <point x="585" y="30"/>
    </contour>
    <contour>
      <point x="437" y="672" type="curve"/>
      <point x="447" y="658"/>
      <point x="278" y="843"/>
      <point x="278" y="955" type="curve" smooth="yes"/>
      <point x="278" y="1051"/>
      <point x="369" y="1116"/>
      <point x="484" y="1116" type="curve" smooth="yes"/>
      <point x="594" y="1116"/>
      <point x="684" y="1064"/>
      <point x="684" y="959" type="curve" smooth="yes"/>
      <point x="684" y="835"/>
      <point x="652" y="753"/>
    </contour>
  </outline>
</glyph>
<glyph name="quotesingle" format="1">
  <advance width="254"/>
  <unicode hex="0027"/>
  <outline>
    <contour>
      <point x="123" y="849" type="line"/>
      <point x="150" y="849" type="line"/>
      <point x="174" y="1206" type="line"/>
      <point x="102" y="1206" type="line"/>
    </contour>
  </outline>
</glyph>
<glyph name="parenleft" format="1">
  <advance width="508"/>
  <unicode hex="0028"/>
  <outline>
    <contour>
      <point x="458" y="-114" type="curve"/>
      <point x="460" y="-57" type="line"/>
      <point x="276" y="21"/>
      <point x="183" y="276"/>
      <point x="183" y="531" type="curve" smooth="yes"/>
      <point x="183" y="786"/>
      <point x="276" y="1041"/>
      <point x="460" y="1118" type="curve"/>
      <point x="458" y="1174" type="line"/>
      <point x="206" y="1086"/>
      <point x="80" y="807"/>
      <point x="80" y="529" type="curve" smooth="yes"/>
      <point x="80" y="250"/>
      <point x="206" y="-28"/>
    </contour>
  </outline>
</glyph>
<glyph name="parenright" format="1">
  <advance width="504"/>
  <unicode hex="0029"/>
  <outline>
    <contour>
      <point x="85" y="-114" type="line"/>
      <point x="337" y="-28"/>
      <point x="463" y="250"/>
      <point x="463" y="529" type="curve" smooth="yes"/>
      <point x="463" y="807"/>
      <point x="337" y="1086"/>
      <point x="85" y="1174" type="curve"/>
      <point x="83" y="1136" type="line"/>
      <point x="291" y="1051"/>
      <point x="395" y="791"/>
      <point x="395" y="531" type="curve" smooth="yes"/>
      <point x="395" y="271"/>
      <point x="291" y="11"/>
      <point x="83" y="-75" type="curve"/>
    </contour>
  </outline>
</glyph>
<glyph name="asterisk" format="1">
  <advance width="936"/>
  <unicode hex="002A"/>
  <outline>
    <contour>
      <point x="256" y="421" type="line"/>
      <point x="469" y="761" type="line"/>
      <point x="681" y="421" type="line"/>
      <point x="763" y="482" type="line"/>
      <point x="498" y="786" type="line"/>
      <point x="886" y="899" type="line"/>
      <point x="853" y="992" type="line"/>
      <point x="488" y="820" type="line"/>
      <point x="522" y="1222" type="line"/>
      <point x="416" y="1222" type="line"/>
      <point x="451" y="820" type="line"/>
      <point x="84" y="992" type="line"/>
      <point x="52" y="899" type="line"/>
      <point x="439" y="786" type="line"/>
      <point x="175" y="482" type="line"/>
    </contour>
  </outline>
</glyph>
<glyph name="plus" format="1">
  <advance width="795"/>
  <unicode hex="002B"/>
  <outline>
    <contour>
      <point x="373" y="146" type="line"/>
      <point x="424" y="146" type="line"/>
      <point x="424" y="545" type="line"/>
      <point x="770" y="545" type="line"/>
      <point x="770" y="595" type="line"/>
      <point x="424" y="595" type="line"/>
      <point x="424" y="980" type="line"/>
      <point x="373" y="980" type="line"/>
      <point x="373" y="595" type="line"/>
      <point x="25" y="595" type="line"/>
      <point x="25" y="545" type="line"/>
      <point x="373" y="545" type="line"/>
    </contour>
  </outline>
</glyph>
<glyph name="comma" format="1">
  <advance width="401"/>
  <unicode hex="002C"/>
  <outline>
    <contour>
      <point x="200" y="0" type="move" name="_bot"/>
    </contour>
    <contour>
      <point x="144" y="-187" type="line"/>
      <point x="252" y="-187"/>
      <point x="290" y="-111"/>
      <point x="290" y="-5" type="curve"/>
      <point x="290" y="128" type="line"/>
      <point x="152" y="128" type="line"/>
      <point x="152" y="-4" type="line"/>
      <point x="221" y="-4" type="line"/>
      <point x="221" y="-90"/>
      <point x="212" y="-116"/>
      <point x="144" y="-138" type="curve"/>
    </contour>
  </outline>
</glyph>
<glyph name="hyphen" format="1">
  <advance width="842"/>
  <unicode hex="002D"/>
  <outline>
    <contour>
      <point x="405" y="460" type="move" name="_mid"/>
    </contour>
    <contour>
      <point x="156" y="428" type="line"/>
      <point x="688" y="428" type="line"/>
      <point x="688" y="497" type="line"/>
      <point x="156" y="497" type="line"/>
    </contour>
  </outline>
</glyph>
<glyph name="period" format="1">
  <advance width="446"/>
  <unicode hex="002E"/>
  <outline>
    <contour>
      <point x="180" y="0" type="line"/>
      <point x="275" y="0" type="line"/>
      <point x="275" y="103" type="line"/>
      <point x="180" y="103" type="line"/>
    </contour>
  </outline>
</glyph>
<glyph name="slash" format="1">
  <advance width="482"/>
  <unicode hex="002F"/>
  <outline>
    <contour>
      <point x="26" y="-22" type="line"/>
      <point x="103" y="-22" type="line"/>
      <point x="458" y="1172" type="line"/>
      <point x="385" y="1172" type="line"/>
    </contour>
  </outline>
</glyph>
<glyph name="zero" format="1">
  <advance width="1078"/>
  <unicode hex="0030"/>
  <outline>
    <contour>
      <point x="539" y="27" type="curve" smooth="yes"/>
      <point x="303" y="26"/>
      <point x="182" y="216"/>
      <point x="182" y="574" type="curve" smooth="yes"/>
      <point x="182" y="916"/>
      <point x="299" y="1120"/>
      <point x="539" y="1120" type="curve" smooth="yes"/>
      <point x="779" y="1120"/>
      <point x="896" y="916"/>
      <point x="896" y="574" type="curve" smooth="yes"/>
      <point x="896" y="217"/>
      <point x="775" y="27"/>
    </contour>
    <contour>
      <point x="539" y="-24" type="curve" smooth="yes"/>
      <point x="821" y="-24"/>
      <point x="959" y="216"/>
      <point x="959" y="574" type="curve" smooth="yes"/>
      <point x="959" y="928"/>
      <point x="821" y="1172"/>
      <point x="539" y="1172" type="curve" smooth="yes"/>
      <point x="257" y="1172"/>
      <point x="120" y="928"/>
      <point x="120" y="574" type="curve" smooth="yes"/>
      <point x="120" y="216"/>
      <point x="257" y="-24"/>
    </contour>
  </outline>
</glyph>
<glyph name="one" format="1">
  <advance width="808"/>
  <unicode hex="0031"/>
  <outline>
    <contour>
      <point x="229" y="0" type="line"/>
      <point x="637" y="0" type="line"/>
      <point x="637" y="65" type="line"/>
      <point x="480" y="65" type="line"/>
      <point x="480" y="1154" type="line"/>
      <point x="231" y="1115" type="line"/>
      <point x="245" y="1044" type="line"/>
      <point x="395" y="1068" type="line"/>
      <point x="395" y="65" type="line"/>
      <point x="229" y="65" type="line"/>
    </contour>
  </outline>
</glyph>
<glyph name="two" format="1">
  <advance width="1086"/>
  <unicode hex="0032"/>
  <outline>
    <contour>
      <point x="207" y="0" type="line"/>
      <point x="909" y="0" type="line"/>
      <point x="909" y="272" type="line"/>
      <point x="848" y="272" type="line"/>
      <point x="848" y="56" type="line"/>
      <point x="288" y="56" type="line"/>
      <point x="653" y="431" type="line" smooth="yes"/>
      <point x="793" y="574"/>
      <point x="897" y="681"/>
      <point x="897" y="852" type="curve" smooth="yes"/>
      <point x="897" y="1049"/>
      <point x="752" y="1173"/>
      <point x="554" y="1173" type="curve" smooth="yes"/>
      <point x="347" y="1173"/>
      <point x="197" y="1042"/>
      <point x="197" y="838" type="curve" smooth="yes"/>
      <point x="197" y="800"/>
      <point x="201" y="767"/>
      <point x="208" y="733" type="curve"/>
      <point x="271" y="733" type="line"/>
      <point x="263" y="768"/>
      <point x="258" y="805"/>
      <point x="258" y="839" type="curve" smooth="yes"/>
      <point x="258" y="1009"/>
      <point x="381" y="1121"/>
      <point x="553" y="1121" type="curve" smooth="yes"/>
      <point x="719" y="1121"/>
      <point x="835" y="1017"/>
      <point x="835" y="852" type="curve" smooth="yes"/>
      <point x="835" y="703"/>
      <point x="748" y="611"/>
      <point x="613" y="473" type="curve" smooth="yes"/>
      <point x="207" y="58" type="line"/>
    </contour>
  </outline>
</glyph>
<glyph name="three" format="1">
  <advance width="1101"/>
  <unicode hex="0033"/>
  <outline>
    <contour>
      <point x="563" y="-20" type="curve" smooth="yes"/>
      <point x="793" y="-20"/>
      <point x="952" y="116"/>
      <point x="952" y="326" type="curve" smooth="yes"/>
      <point x="952" y="476"/>
      <point x="846" y="586"/>
      <point x="688" y="608" type="curve"/>
      <point x="833" y="637"/>
      <point x="927" y="739"/>
      <point x="927" y="868" type="curve" smooth="yes"/>
      <point x="927" y="1052"/>
      <point x="777" y="1172"/>
      <point x="554" y="1172" type="curve" smooth="yes"/>
      <point x="378" y="1172"/>
      <point x="263" y="1088"/>
      <point x="200" y="949" type="curve"/>
      <point x="273" y="915" type="line"/>
      <point x="333" y="1029"/>
      <point x="421" y="1097"/>
      <point x="553" y="1097" type="curve" smooth="yes"/>
      <point x="725" y="1097"/>
      <point x="839" y="1006"/>
      <point x="839" y="865" type="curve" smooth="yes"/>
      <point x="839" y="730"/>
      <point x="700" y="652"/>
      <point x="488" y="652" type="curve"/>
      <point x="488" y="571" type="line"/>
      <point x="716" y="571"/>
      <point x="862" y="474"/>
      <point x="862" y="325" type="curve" smooth="yes"/>
      <point x="862" y="160"/>
      <point x="746" y="55"/>
      <point x="569" y="55" type="curve" smooth="yes"/>
      <point x="427" y="55"/>
      <point x="333" y="128"/>
      <point x="274" y="244" type="curve"/>
      <point x="207" y="202" type="line"/>
      <point x="273" y="67"/>
      <point x="389" y="-20"/>
    </contour>
  </outline>
</glyph>
<glyph name="four" format="1">
  <advance width="1086"/>
  <unicode hex="0034"/>
  <outline>
    <contour>
      <point x="504" y="0" type="line"/>
      <point x="881" y="0" type="line"/>
      <point x="881" y="47" type="line"/>
      <point x="724" y="47" type="line"/>
      <point x="724" y="361" type="line"/>
      <point x="953" y="361" type="line"/>
      <point x="953" y="409" type="line"/>
      <point x="724" y="409" type="line"/>
      <point x="724" y="1152" type="line"/>
      <point x="645" y="1152" type="line"/>
      <point x="143" y="408" type="line"/>
      <point x="153" y="361" type="line"/>
      <point x="663" y="361" type="line"/>
      <point x="663" y="47" type="line"/>
      <point x="504" y="47" type="line"/>
    </contour>
    <contour>
      <point x="211" y="409" type="line"/>
      <point x="663" y="1086" type="line"/>
      <point x="663" y="409" type="line"/>
    </contour>
  </outline>
</glyph>
<glyph name="five" format="1">
  <advance width="1086"/>
  <unicode hex="0035"/>
  <outline>
    <contour>
      <point x="563" y="-20" type="curve" smooth="yes"/>
      <point x="801" y="-20"/>
      <point x="952" y="122"/>
      <point x="952" y="347" type="curve" smooth="yes"/>
      <point x="952" y="577"/>
      <point x="809" y="722"/>
      <point x="584" y="722" type="curve" smooth="yes"/>
      <point x="471" y="722"/>
      <point x="367" y="685"/>
      <point x="300" y="615" type="curve"/>
      <point x="308" y="1101" type="line"/>
      <point x="831" y="1101" type="line"/>
      <point x="831" y="892" type="line"/>
      <point x="888" y="892" type="line"/>
      <point x="888" y="1152" type="line"/>
      <point x="249" y="1152" type="line"/>
      <point x="246" y="586" type="line"/>
      <point x="297" y="559" type="line"/>
      <point x="380" y="637"/>
      <point x="477" y="670"/>
      <point x="589" y="670" type="curve" smooth="yes"/>
      <point x="774" y="670"/>
      <point x="889" y="546"/>
      <point x="889" y="349" type="curve" smooth="yes"/>
      <point x="889" y="155"/>
      <point x="763" y="32"/>
      <point x="563" y="32" type="curve" smooth="yes"/>
      <point x="432" y="32"/>
      <point x="318" y="89"/>
      <point x="242" y="202" type="curve"/>
      <point x="207" y="160" type="line"/>
      <point x="298" y="39"/>
      <point x="418" y="-20"/>
    </contour>
  </outline>
</glyph>
<glyph name="six" format="1">
  <advance width="1101"/>
  <unicode hex="0036"/>
  <outline>
    <contour>
      <point x="551" y="-23" type="curve" smooth="yes"/>
      <point x="791" y="-23"/>
      <point x="925" y="155"/>
      <point x="925" y="348" type="curve" smooth="yes"/>
      <point x="925" y="538"/>
      <point x="760" y="684"/>
      <point x="569" y="684" type="curve" smooth="yes"/>
      <point x="511" y="685"/>
      <point x="451" y="670"/>
      <point x="392" y="641" type="curve"/>
      <point x="716" y="1182" type="line"/>
      <point x="646" y="1227" type="line"/>
      <point x="306" y="644" type="line" smooth="yes"/>
      <point x="301" y="636"/>
      <point x="185" y="451"/>
      <point x="185" y="324" type="curve" smooth="yes"/>
      <point x="185" y="122"/>
      <point x="364" y="-23"/>
    </contour>
    <contour>
      <point x="551" y="51" type="curve" smooth="yes"/>
      <point x="362" y="51"/>
      <point x="264" y="184"/>
      <point x="265" y="327" type="curve" smooth="yes"/>
      <point x="266" y="516"/>
      <point x="409" y="616"/>
      <point x="556" y="616" type="curve" smooth="yes"/>
      <point x="702" y="616"/>
      <point x="842" y="519"/>
      <point x="842" y="334" type="curve" smooth="yes"/>
      <point x="842" y="190"/>
      <point x="742" y="51"/>
    </contour>
  </outline>
</glyph>
<glyph name="seven" format="1">
  <advance width="1086"/>
  <unicode hex="0037"/>
  <outline>
    <contour>
      <point x="484" y="0" type="curve"/>
      <point x="546" y="0" type="line"/>
      <point x="546" y="0"/>
      <point x="761" y="667"/>
      <point x="935" y="1099" type="curve"/>
      <point x="935" y="1153" type="line"/>
      <point x="201" y="1153" type="line"/>
      <point x="201" y="854" type="line"/>
      <point x="259" y="854" type="line"/>
      <point x="259" y="1100" type="line"/>
      <point x="870" y="1100" type="line"/>
      <point x="681" y="612"/>
      <point x="484" y="0"/>
    </contour>
  </outline>
</glyph>
<glyph name="eight" format="1">
  <advance width="1086"/>
  <unicode hex="0038"/>
  <outline>
    <contour>
      <point x="543" y="-23" type="curve" smooth="yes"/>
      <point x="753" y="-23"/>
      <point x="922" y="85"/>
      <point x="922" y="293" type="curve" smooth="yes"/>
      <point x="922" y="450"/>
      <point x="824" y="572"/>
      <point x="665" y="602" type="curve"/>
      <point x="804" y="636"/>
      <point x="884" y="751"/>
      <point x="884" y="880" type="curve" smooth="yes"/>
      <point x="884" y="1044"/>
      <point x="761" y="1173"/>
      <point x="544" y="1173" type="curve" smooth="yes"/>
      <point x="326" y="1173"/>
      <point x="204" y="1044"/>
      <point x="204" y="880" type="curve" smooth="yes"/>
      <point x="204" y="754"/>
      <point x="277" y="644"/>
      <point x="421" y="602" type="curve"/>
      <point x="263" y="571"/>
      <point x="165" y="449"/>
      <point x="165" y="293" type="curve" smooth="yes"/>
      <point x="165" y="86"/>
      <point x="331" y="-23"/>
    </contour>
    <contour>
      <point x="543" y="30" type="curve" smooth="yes"/>
      <point x="366" y="30"/>
      <point x="227" y="123"/>
      <point x="227" y="295" type="curve" smooth="yes"/>
      <point x="227" y="449"/>
      <point x="340" y="568"/>
      <point x="544" y="569" type="curve" smooth="yes"/>
      <point x="747" y="568"/>
      <point x="860" y="449"/>
      <point x="860" y="295" type="curve" smooth="yes"/>
      <point x="860" y="125"/>
      <point x="721" y="30"/>
    </contour>
    <contour>
      <point x="544" y="629" type="curve" smooth="yes"/>
      <point x="364" y="627"/>
      <point x="266" y="741"/>
      <point x="266" y="880" type="curve" smooth="yes"/>
      <point x="266" y="1015"/>
      <point x="364" y="1120"/>
      <point x="544" y="1120" type="curve" smooth="yes"/>
      <point x="724" y="1120"/>
      <point x="821" y="1015"/>
      <point x="821" y="880" type="curve" smooth="yes"/>
      <point x="821" y="739"/>
      <point x="722" y="627"/>
    </contour>
  </outline>
</glyph>
<glyph name="nine" format="1">
  <advance width="1086"/>
  <unicode hex="0039"/>
  <outline>
    <contour>
      <point x="471" y="-69" type="line"/>
      <point x="826" y="573" type="line"/>
      <point x="841" y="600"/>
      <point x="916" y="740"/>
      <point x="916" y="831" type="curve" smooth="yes"/>
      <point x="916" y="1026"/>
      <point x="765" y="1169"/>
      <point x="560" y="1169" type="curve" smooth="yes"/>
      <point x="330" y="1169"/>
      <point x="191" y="1009"/>
      <point x="191" y="816" type="curve" smooth="yes"/>
      <point x="191" y="626"/>
      <point x="349" y="483"/>
      <point x="549" y="483" type="curve" smooth="yes"/>
      <point x="623" y="483"/>
      <point x="702" y="511"/>
      <point x="747" y="541" type="curve"/>
      <point x="418" y="-40" type="line"/>
    </contour>
    <contour>
      <point x="555" y="535" type="curve" smooth="yes"/>
      <point x="391" y="535"/>
      <point x="251" y="643"/>
      <point x="251" y="824" type="curve" smooth="yes"/>
      <point x="251" y="982"/>
      <point x="366" y="1116"/>
      <point x="560" y="1116" type="curve" smooth="yes"/>
      <point x="732" y="1116"/>
      <point x="858" y="995"/>
      <point x="858" y="829" type="curve" smooth="yes"/>
      <point x="858" y="639"/>
      <point x="710" y="535"/>
    </contour>
  </outline>
</glyph>
<glyph name="colon" format="1">
  <advance width="447"/>
  <unicode hex="003A"/>
  <outline>
    <contour>
      <point x="178" y="230" type="line"/>
      <point x="275" y="230" type="line"/>
      <point x="275" y="333" type="line"/>
      <point x="178" y="333" type="line"/>
    </contour>
    <contour>
      <point x="178" y="711" type="line"/>
      <point x="275" y="711" type="line"/>
      <point x="275" y="814" type="line"/>
      <point x="178" y="814" type="line"/>
    </contour>
  </outline>
</glyph>
<glyph name="semicolon" format="1">
  <advance width="339"/>
  <unicode hex="003B"/>
  <outline>
    <contour>
      <point x="86" y="-13" type="line"/>
      <point x="194" y="-13"/>
      <point x="234" y="63"/>
      <point x="233" y="169" type="curve"/>
      <point x="233" y="303" type="line"/>
      <point x="95" y="303" type="line"/>
      <point x="95" y="172" type="line"/>
      <point x="163" y="172" type="line"/>
      <point x="163" y="86"/>
      <point x="155" y="58"/>
      <point x="86" y="37" type="curve"/>
    </contour>
    <contour>
      <point x="97" y="684" type="line"/>
      <point x="228" y="684" type="line"/>
      <point x="228" y="816" type="line"/>
      <point x="97" y="816" type="line"/>
    </contour>
  </outline>
</glyph>
<glyph name="less" format="1">
  <advance width="1075"/>
  <unicode hex="003C"/>
  <outline>
    <contour>
      <point x="883" y="88" type="line"/>
      <point x="883" y="176" type="line"/>
      <point x="208" y="519" type="line"/>
      <point x="883" y="869" type="line"/>
      <point x="883" y="958" type="line"/>
      <point x="102" y="536" type="line"/>
      <point x="102" y="501" type="line"/>
    </contour>
  </outline>
</glyph>
<glyph name="equal" format="1">
  <advance width="824"/>
  <unicode hex="003D"/>
  <outline>
    <contour>
      <point x="131" y="335" type="line"/>
      <point x="707" y="335" type="line"/>
      <point x="707" y="388" type="line"/>
      <point x="131" y="388" type="line"/>
    </contour>
    <contour>
      <point x="131" y="590" type="line"/>
      <point x="707" y="590" type="line"/>
      <point x="707" y="641" type="line"/>
      <point x="131" y="641" type="line"/>
    </contour>
  </outline>
</glyph>
<glyph name="greater" format="1">
  <advance width="1075"/>
  <unicode hex="003E"/>
  <outline>
    <contour>
      <point x="191" y="88" type="line"/>
      <point x="972" y="501" type="line"/>
      <point x="972" y="536" type="line"/>
      <point x="191" y="958" type="line"/>
      <point x="191" y="869" type="line"/>
      <point x="866" y="519" type="line"/>
      <point x="191" y="176" type="line"/>
    </contour>
  </outline>
</glyph>
<glyph name="question" format="1">
  <advance width="682"/>
  <unicode hex="003F"/>
  <outline>
    <contour>
      <point x="281" y="293" type="curve"/>
      <point x="321" y="293" type="line"/>
      <point x="333" y="491"/>
      <point x="412" y="570"/>
      <point x="495" y="639" type="curve" smooth="yes"/>
      <point x="575" y="707"/>
      <point x="651" y="764"/>
      <point x="651" y="916" type="curve" smooth="yes"/>
      <point x="651" y="1100"/>
      <point x="501" y="1216"/>
      <point x="327" y="1216" type="curve" smooth="yes"/>
      <point x="190" y="1216"/>
      <point x="68" y="1154"/>
      <point x="21" y="1016" type="curve"/>
      <point x="91" y="985" type="line"/>
      <point x="123" y="1077"/>
      <point x="202" y="1138"/>
      <point x="331" y="1138" type="curve" smooth="yes"/>
      <point x="488" y="1138"/>
      <point x="565" y="1031"/>
      <point x="565" y="915" type="curve" smooth="yes"/>
      <point x="565" y="788"/>
      <point x="493" y="742"/>
      <point x="421" y="674" type="curve" smooth="yes"/>
      <point x="348" y="604"/>
      <point x="281" y="507"/>
    </contour>
    <contour>
      <point x="263" y="-20" type="line"/>
      <point x="358" y="-20" type="line"/>
      <point x="358" y="74" type="line"/>
      <point x="263" y="74" type="line"/>
    </contour>
  </outline>
</glyph>
<glyph name="at" format="1">
  <advance width="1399"/>
  <unicode hex="0040"/>
  <outline>
    <contour>
      <point x="760" y="-56" type="curve" smooth="yes"/>
      <point x="937" y="-56"/>
      <point x="1062" y="-14"/>
      <point x="1166" y="65" type="curve"/>
      <point x="1128" y="117" type="line"/>
      <point x="1032" y="48"/>
      <point x="912" y="15"/>
      <point x="758" y="15" type="curve" smooth="yes"/>
      <point x="397" y="15"/>
      <point x="190" y="221"/>
      <point x="190" y="538" type="curve" smooth="yes"/>
      <point x="190" y="865"/>
      <point x="421" y="1107"/>
      <point x="746" y="1107" type="curve" smooth="yes"/>
      <point x="1048" y="1107"/>
      <point x="1222" y="904"/>
      <point x="1222" y="676" type="curve" smooth="yes"/>
      <point x="1222" y="438"/>
      <point x="1050" y="296"/>
      <point x="971" y="296" type="curve" smooth="yes"/>
      <point x="935" y="296"/>
      <point x="918" y="333"/>
      <point x="925" y="373" type="curve" smooth="yes"/>
      <point x="1038" y="895" type="line"/>
      <point x="950" y="895" type="line"/>
      <point x="928" y="781" type="line"/>
      <point x="883" y="876"/>
      <point x="797" y="914"/>
      <point x="716" y="914" type="curve" smooth="yes"/>
      <point x="488" y="914"/>
      <point x="377" y="707"/>
      <point x="377" y="515" type="curve" smooth="yes"/>
      <point x="377" y="325"/>
      <point x="493" y="222"/>
      <point x="618" y="222" type="curve" smooth="yes"/>
      <point x="700" y="222"/>
      <point x="783" y="265"/>
      <point x="858" y="378" type="curve"/>
      <point x="838" y="266"/>
      <point x="898" y="222"/>
      <point x="946" y="222" type="curve" smooth="yes"/>
      <point x="1129" y="222"/>
      <point x="1303" y="444"/>
      <point x="1303" y="677" type="curve" smooth="yes"/>
      <point x="1303" y="936"/>
      <point x="1134" y="1179"/>
      <point x="750" y="1179" type="curve" smooth="yes"/>
      <point x="338" y="1179"/>
      <point x="101" y="858"/>
      <point x="101" y="540" type="curve" smooth="yes"/>
      <point x="101" y="227"/>
      <point x="317" y="-56"/>
    </contour>
    <contour>
      <point x="649" y="289" type="curve" smooth="yes"/>
      <point x="528" y="289"/>
      <point x="471" y="391"/>
      <point x="471" y="511" type="curve" smooth="yes"/>
      <point x="471" y="664"/>
      <point x="552" y="843"/>
      <point x="706" y="843" type="curve" smooth="yes"/>
      <point x="814" y="843"/>
      <point x="887" y="764"/>
      <point x="887" y="648" type="curve" smooth="yes"/>
      <point x="887" y="480"/>
      <point x="783" y="289"/>
    </contour>
  </outline>
</glyph>
<glyph name="A" format="1">
  <advance width="1278"/>
  <unicode hex="0041"/>
  <outline>
    <contour>
      <point x="641" y="1152" type="move" name="top"/>
    </contour>
    <contour>
      <point x="1076" y="0" type="move" name="ogonek"/>
    </contour>
    <contour>
      <point x="37" y="0" type="line"/>
      <point x="404" y="0" type="line"/>
      <point x="404" y="47" type="line"/>
      <point x="256" y="47" type="line"/>
      <point x="414" y="478" type="line"/>
      <point x="864" y="478" type="line"/>
      <point x="1023" y="47" type="line"/>
      <point x="874" y="47" type="line"/>
      <point x="874" y="0" type="line"/>
      <point x="1241" y="0" type="line"/>
      <point x="1241" y="47" type="line"/>
      <point x="1088" y="47" type="line"/>
      <point x="687" y="1105" type="line"/>
      <point x="841" y="1105" type="line"/>
      <point x="841" y="1152" type="line"/>
      <point x="440" y="1152" type="line"/>
      <point x="440" y="1105" type="line"/>
      <point x="592" y="1105" type="line"/>
      <point x="190" y="47" type="line"/>
      <point x="37" y="47" type="line"/>
    </contour>
    <contour>
      <point x="433" y="524" type="line"/>
      <point x="637" y="1099" type="line"/>
      <point x="641" y="1099" type="line"/>
      <point x="856" y="524" type="line"/>
    </contour>
  </outline>
</glyph>
<glyph name="B" format="1">
  <advance width="1237"/>
  <unicode hex="0042"/>
  <outline>
    <contour>
      <point x="618" y="1152" type="move" name="top"/>
    </contour>
    <contour>
      <point x="308" y="0" type="line"/>
      <point x="770" y="0" type="line" smooth="yes"/>
      <point x="997" y="0"/>
      <point x="1124" y="150"/>
      <point x="1124" y="317" type="curve" smooth="yes"/>
      <point x="1124" y="444"/>
      <point x="1049" y="568"/>
      <point x="898" y="611" type="curve"/>
      <point x="1006" y="667"/>
      <point x="1058" y="764"/>
      <point x="1058" y="866" type="curve" smooth="yes"/>
      <point x="1058" y="1016"/>
      <point x="939" y="1152"/>
      <point x="715" y="1152" type="curve" smooth="yes"/>
      <point x="307" y="1152" type="line"/>
      <point x="303" y="1086" type="line"/>
      <point x="710" y="1086" type="line" smooth="yes"/>
      <point x="886" y="1086"/>
      <point x="972" y="980"/>
      <point x="972" y="864" type="curve" smooth="yes"/>
      <point x="972" y="745"/>
      <point x="895" y="637"/>
      <point x="751" y="637" type="curve" smooth="yes"/>
      <point x="308" y="637" type="line"/>
      <point x="308" y="568" type="line"/>
      <point x="760" y="568" type="line" smooth="yes"/>
      <point x="943" y="568"/>
      <point x="1038" y="442"/>
      <point x="1038" y="322" type="curve" smooth="yes"/>
      <point x="1038" y="187"/>
      <point x="951" y="65"/>
      <point x="772" y="65" type="curve" smooth="yes"/>
      <point x="308" y="65" type="line"/>
    </contour>
    <component base="uc_main_stem" xOffset="-18"/>
  </outline>
</glyph>
<glyph name="C" format="1">
  <advance width="1347"/>
  <unicode hex="0043"/>
  <outline>
    <contour>
      <point x="673" y="1152" type="move" name="top"/>
    </contour>
    <contour>
      <point x="706" y="0" type="move" name="bot"/>
    </contour>
    <contour>
      <point x="693" y="-22" type="curve" smooth="yes"/>
      <point x="940" y="-22"/>
      <point x="1121" y="75"/>
      <point x="1229" y="269" type="curve"/>
      <point x="1156" y="319" type="line"/>
      <point x="1060" y="131"/>
      <point x="891" y="52"/>
      <point x="706" y="52" type="curve" smooth="yes"/>
      <point x="367" y="52"/>
      <point x="200" y="307"/>
      <point x="200" y="580" type="curve" smooth="yes"/>
      <point x="200" y="851"/>
      <point x="389" y="1096"/>
      <point x="706" y="1096" type="curve" smooth="yes"/>
      <point x="930" y="1096"/>
      <point x="1083" y="966"/>
      <point x="1152" y="815" type="curve"/>
      <point x="1218" y="825" type="line"/>
      <point x="1218" y="1152" type="line"/>
      <point x="1140" y="1152" type="line"/>
      <point x="1140" y="967" type="line"/>
      <point x="1040" y="1103"/>
      <point x="880" y="1172"/>
      <point x="698" y="1172" type="curve" smooth="yes"/>
      <point x="361" y="1172"/>
      <point x="110" y="920"/>
      <point x="110" y="579" type="curve" smooth="yes"/>
      <point x="110" y="176"/>
      <point x="407" y="-22"/>
    </contour>
  </outline>
</glyph>
<glyph name="D" format="1">
  <advance width="1368"/>
  <unicode hex="0044"/>
  <outline>
    <contour>
      <point x="684" y="1152" type="move" name="top"/>
    </contour>
    <contour>
      <point x="684" y="0" type="move" name="bot"/>
    </contour>
    <contour>
      <point x="305" y="592" type="move" name="mid"/>
    </contour>
    <contour>
      <point x="297" y="0" type="line"/>
      <point x="738" y="0" type="line" smooth="yes"/>
      <point x="1086" y="0"/>
      <point x="1259" y="275"/>
      <point x="1259" y="577" type="curve" smooth="yes"/>
      <point x="1259" y="876"/>
      <point x="1082" y="1152"/>
      <point x="740" y="1152" type="curve" smooth="yes"/>
      <point x="297" y="1152" type="line"/>
      <point x="297" y="1086" type="line"/>
      <point x="739" y="1086" type="line" smooth="yes"/>
      <point x="1027" y="1086"/>
      <point x="1170" y="839"/>
      <point x="1170" y="577" type="curve" smooth="yes"/>
      <point x="1170" y="315"/>
      <point x="1029" y="65"/>
      <point x="741" y="65" type="curve" smooth="yes"/>
      <point x="297" y="65" type="line"/>
    </contour>
    <component base="uc_main_stem" xOffset="-18"/>
  </outline>
</glyph>
<glyph name="E" format="1">
  <advance width="1152"/>
  <unicode hex="0045"/>
  <outline>
    <contour>
      <point x="629" y="1152" type="move" name="top"/>
    </contour>
    <contour>
      <point x="647" y="0" type="move" name="ogonek"/>
    </contour>
    <contour>
      <point x="741" y="393" type="line"/>
      <point x="792" y="393" type="line"/>
      <point x="792" y="770" type="line"/>
      <point x="740" y="770" type="line"/>
      <point x="740" y="614" type="line"/>
      <point x="291" y="614" type="line"/>
      <point x="291" y="563" type="line"/>
      <point x="741" y="563" type="line"/>
    </contour>
    <contour>
      <point x="285" y="0" type="line"/>
      <point x="1047" y="0" type="line"/>
      <point x="1047" y="357" type="line"/>
      <point x="989" y="357" type="line"/>
      <point x="989" y="47" type="line"/>
      <point x="285" y="47" type="line"/>
    </contour>
    <contour>
      <point x="966" y="799" type="line"/>
      <point x="1023" y="799" type="line"/>
      <point x="1023" y="1152" type="line"/>
      <point x="285" y="1152" type="line"/>
      <point x="285" y="1105" type="line"/>
      <point x="966" y="1105" type="line"/>
    </contour>
    <component base="uc_main_stem" xOffset="-27"/>
  </outline>
</glyph>
<glyph name="F" format="1">
  <advance width="1089"/>
  <unicode hex="0046"/>
  <outline>
    <contour>
      <point x="545" y="1152" type="move" name="top"/>
    </contour>
    <contour>
      <point x="545" y="0" type="move" name="bot"/>
    </contour>
    <contour>
      <point x="783" y="398" type="line"/>
      <point x="850" y="398" type="line"/>
      <point x="850" y="770" type="line"/>
      <point x="783" y="770" type="line"/>
      <point x="783" y="627" type="line"/>
      <point x="307" y="627" type="line"/>
      <point x="307" y="553" type="line"/>
      <point x="783" y="553" type="line"/>
    </contour>
    <contour>
      <point x="959" y="804" type="line"/>
      <point x="1038" y="804" type="line"/>
      <point x="1038" y="1152" type="line"/>
      <point x="300" y="1152" type="line"/>
      <point x="300" y="1086" type="line"/>
      <point x="959" y="1086" type="line"/>
    </contour>
    <component base="uc_main_stem" xOffset="-18"/>
  </outline>
</glyph>
<glyph name="G" format="1">
  <advance width="1368"/>
  <unicode hex="0047"/>
  <outline>
    <contour>
      <point x="684" y="1152" type="move" name="top"/>
    </contour>
    <contour>
      <point x="708" y="0" type="move" name="bot"/>
    </contour>
    <contour>
      <point x="699" y="-22" type="curve" smooth="yes"/>
      <point x="960" y="-22"/>
      <point x="1249" y="104"/>
      <point x="1249" y="551" type="curve"/>
      <point x="915" y="551" type="line"/>
      <point x="915" y="482" type="line"/>
      <point x="1160" y="482" type="line"/>
      <point x="1154" y="157"/>
      <point x="908" y="52"/>
      <point x="709" y="52" type="curve" smooth="yes"/>
      <point x="369" y="52"/>
      <point x="200" y="304"/>
      <point x="200" y="580" type="curve" smooth="yes"/>
      <point x="200" y="850"/>
      <point x="390" y="1096"/>
      <point x="708" y="1096" type="curve" smooth="yes"/>
      <point x="922" y="1096"/>
      <point x="1067" y="976"/>
      <point x="1134" y="834" type="curve"/>
      <point x="1200" y="834" type="line"/>
      <point x="1200" y="1152" type="line"/>
      <point x="1122" y="1152" type="line"/>
      <point x="1122" y="986" type="line"/>
      <point x="1025" y="1109"/>
      <point x="873" y="1172"/>
      <point x="697" y="1172" type="curve" smooth="yes"/>
      <point x="360" y="1172"/>
      <point x="110" y="918"/>
      <point x="110" y="579" type="curve" smooth="yes"/>
      <point x="110" y="175"/>
      <point x="412" y="-22"/>
    </contour>
  </outline>
</glyph>
<glyph name="H" format="1">
  <advance width="1405"/>
  <unicode hex="0048"/>
  <outline>
    <contour>
      <point x="702" y="1152" type="move" name="top"/>
    </contour>
    <contour>
      <point x="705" y="0" type="move" name="bot"/>
    </contour>
    <contour>
      <point x="305" y="556" type="line"/>
      <point x="1106" y="556" type="line"/>
      <point x="1106" y="624" type="line"/>
      <point x="305" y="624" type="line"/>
    </contour>
    <component base="uc_main_stem" xOffset="-18"/>
    <component base="uc_main_stem" xOffset="784"/>
  </outline>
</glyph>
<glyph name="J" format="1">
  <advance width="581"/>
  <unicode hex="004A"/>
  <outline>
    <contour>
      <point x="355" y="1152" type="move" name="top"/>
    </contour>
    <contour>
      <point x="104" y="-55" type="line"/>
      <point x="215" y="-55" type="line" smooth="yes"/>
      <point x="325" y="-54"/>
      <point x="380" y="-22"/>
      <point x="380" y="158" type="curve" smooth="yes"/>
      <point x="380" y="1106" type="line"/>
      <point x="506" y="1106" type="line"/>
      <point x="506" y="1152" type="line"/>
      <point x="194" y="1152" type="line"/>
      <point x="194" y="1106" type="line"/>
      <point x="319" y="1106" type="line"/>
      <point x="319" y="169" type="line" smooth="yes"/>
      <point x="319" y="44"/>
      <point x="305" y="-3"/>
      <point x="226" y="-3" type="curve" smooth="yes"/>
      <point x="104" y="-3" type="line"/>
    </contour>
  </outline>
</glyph>
<glyph name="K" format="1">
  <advance width="1181"/>
  <unicode hex="004B"/>
  <outline>
    <contour>
      <point x="622" y="1152" type="move" name="top"/>
    </contour>
    <contour>
      <point x="639" y="0" type="move" name="bot"/>
    </contour>
    <contour>
      <point x="772" y="0" type="line"/>
      <point x="1163" y="0" type="line"/>
      <point x="1163" y="46" type="line"/>
      <point x="1023" y="46" type="line"/>
      <point x="396" y="591" type="line"/>
      <point x="961" y="1106" type="line"/>
      <point x="1129" y="1106" type="line"/>
      <point x="1129" y="1152" type="line"/>
      <point x="734" y="1152" type="line"/>
      <point x="734" y="1106" type="line"/>
      <point x="883" y="1106" type="line"/>
      <point x="315" y="591" type="line"/>
      <point x="937" y="46" type="line"/>
      <point x="772" y="46" type="line"/>
    </contour>
    <component base="uc_main_stem" xOffset="-27"/>
  </outline>
</glyph>
<glyph name="L" format="1">
  <advance width="1032"/>
  <unicode hex="004C"/>
  <outline>
    <contour>
      <point x="683" y="1152" type="move" name="top"/>
    </contour>
    <contour>
      <point x="620" y="0" type="move" name="bot"/>
    </contour>
    <contour>
      <point x="306" y="0" type="line"/>
      <point x="983" y="0" type="line"/>
      <point x="983" y="373" type="line"/>
      <point x="928" y="373" type="line"/>
      <point x="928" y="47" type="line"/>
      <point x="306" y="47" type="line"/>
    </contour>
    <component base="uc_main_stem" xOffset="-4"/>
  </outline>
</glyph>
<glyph name="M" format="1">
  <advance width="1590"/>
  <unicode hex="004D"/>
  <outline>
    <contour>
      <point x="795" y="1152" type="move" name="top"/>
    </contour>
    <contour>
      <point x="795" y="0" type="move" name="bot"/>
    </contour>
    <contour>
      <point x="110" y="0" type="line"/>
      <point x="490" y="0" type="line"/>
      <point x="490" y="65" type="line"/>
      <point x="342" y="65" type="line"/>
      <point x="342" y="1016" type="line"/>
      <point x="793" y="83" type="line"/>
      <point x="812" y="83" type="line"/>
      <point x="1248" y="1016" type="line"/>
      <point x="1248" y="65" type="line"/>
      <point x="1099" y="65" type="line"/>
      <point x="1099" y="0" type="line"/>
      <point x="1481" y="0" type="line"/>
      <point x="1481" y="65" type="line"/>
      <point x="1330" y="65" type="line"/>
      <point x="1330" y="1086" type="line"/>
      <point x="1481" y="1086" type="line"/>
      <point x="1481" y="1152" type="line"/>
      <point x="1223" y="1152" type="line"/>
      <point x="803" y="241" type="line"/>
      <point x="368" y="1152" type="line"/>
      <point x="110" y="1152" type="line"/>
      <point x="110" y="1086" type="line"/>
      <point x="260" y="1086" type="line"/>
      <point x="260" y="65" type="line"/>
      <point x="110" y="65" type="line"/>
    </contour>
  </outline>
</glyph>
<glyph name="N" format="1">
  <advance width="1406"/>
  <unicode hex="004E"/>
  <outline>
    <contour>
      <point x="703" y="1152" type="move" name="top"/>
    </contour>
    <contour>
      <point x="707" y="0" type="move" name="bot"/>
    </contour>
    <contour>
      <point x="110" y="0" type="line"/>
      <point x="497" y="0" type="line"/>
      <point x="497" y="65" type="line"/>
      <point x="345" y="65" type="line"/>
      <point x="345" y="1035" type="line"/>
      <point x="1115" y="0" type="line"/>
      <point x="1201" y="0" type="line"/>
      <point x="1201" y="1086" type="line"/>
      <point x="1339" y="1086" type="line"/>
      <point x="1339" y="1152" type="line"/>
      <point x="966" y="1152" type="line"/>
      <point x="966" y="1086" type="line"/>
      <point x="1120" y="1086" type="line"/>
      <point x="1120" y="129" type="line"/>
      <point x="353" y="1152" type="line"/>
      <point x="110" y="1152" type="line"/>
      <point x="110" y="1086" type="line"/>
      <point x="263" y="1086" type="line"/>
      <point x="263" y="65" type="line"/>
      <point x="110" y="65" type="line"/>
    </contour>
  </outline>
</glyph>
<glyph name="O" format="1">
  <advance width="1406"/>
  <unicode hex="004F"/>
  <outline>
    <contour>
      <point x="701" y="1152" type="move" name="top"/>
    </contour>
    <contour>
      <point x="765" y="0" type="move" name="ogonek"/>
    </contour>
    <contour>
      <point x="702" y="30" type="curve" smooth="yes"/>
      <point x="334" y="30"/>
      <point x="165" y="301"/>
      <point x="165" y="573" type="curve" smooth="yes"/>
      <point x="165" y="834"/>
      <point x="338" y="1119"/>
      <point x="702" y="1119" type="curve" smooth="yes"/>
      <point x="1063" y="1119"/>
      <point x="1240" y="834"/>
      <point x="1240" y="573" type="curve" smooth="yes"/>
      <point x="1240" y="309"/>
      <point x="1063" y="30"/>
    </contour>
    <contour>
      <point x="702" y="-23" type="curve" smooth="yes"/>
      <point x="1111" y="-23"/>
      <point x="1302" y="280"/>
      <point x="1302" y="572" type="curve" smooth="yes"/>
      <point x="1302" y="862"/>
      <point x="1109" y="1172"/>
      <point x="702" y="1172" type="curve" smooth="yes"/>
      <point x="297" y="1172"/>
      <point x="104" y="863"/>
      <point x="104" y="572" type="curve" smooth="yes"/>
      <point x="104" y="281"/>
      <point x="294" y="-23"/>
    </contour>
  </outline>
</glyph>
<glyph name="P" format="1">
  <advance width="1132"/>
  <unicode hex="0050"/>
  <outline>
    <contour>
      <point x="647" y="1152" type="move" name="top"/>
    </contour>
    <contour>
      <point x="436" y="491" type="line"/>
      <point x="722" y="491" type="line" smooth="yes"/>
      <point x="928" y="491"/>
      <point x="1054" y="625"/>
      <point x="1054" y="845" type="curve" smooth="yes"/>
      <point x="1054" y="1036"/>
      <point x="929" y="1152"/>
      <point x="723" y="1152" type="curve" smooth="yes"/>
      <point x="310" y="1152" type="line"/>
      <point x="310" y="1105" type="line"/>
      <point x="723" y="1105" type="line" smooth="yes"/>
      <point x="891" y="1105"/>
      <point x="994" y="1006"/>
      <point x="994" y="843" type="curve" smooth="yes"/>
      <point x="995" y="655"/>
      <point x="891" y="539"/>
      <point x="722" y="539" type="curve" smooth="yes"/>
      <point x="437" y="539" type="line"/>
    </contour>
    <component base="uc_main_stem" xOffset="-4"/>
  </outline>
</glyph>
<glyph name="Q" format="1">
  <advance width="1406"/>
  <unicode hex="0051"/>
  <outline>
    <contour>
      <point x="1022" y="-248" type="curve" smooth="yes"/>
      <point x="1064" y="-248"/>
      <point x="1109" y="-241"/>
      <point x="1164" y="-223" type="curve"/>
      <point x="1147" y="-180" type="line"/>
      <point x="1101" y="-196"/>
      <point x="1061" y="-201"/>
      <point x="1028" y="-201" type="curve" smooth="yes"/>
      <point x="923" y="-201"/>
      <point x="827" y="-72"/>
      <point x="731" y="4" type="curve"/>
      <point x="656" y="3" type="line"/>
      <point x="799" y="-102"/>
      <point x="884" y="-248"/>
    </contour>
    <component base="O"/>
  </outline>
</glyph>
<glyph name="R" format="1">
  <advance width="1182"/>
  <unicode hex="0052"/>
  <outline>
    <contour>
      <point x="591" y="1152" type="move" name="top"/>
    </contour>
    <contour>
      <point x="686" y="0" type="move" name="bot"/>
    </contour>
    <contour>
      <point x="940" y="0" type="line"/>
      <point x="1161" y="0" type="line"/>
      <point x="1161" y="65" type="line"/>
      <point x="1000" y="65" type="line"/>
      <point x="709" y="541" type="line"/>
      <point x="927" y="546"/>
      <point x="1040" y="695"/>
      <point x="1040" y="849" type="curve" smooth="yes"/>
      <point x="1040" y="1008"/>
      <point x="922" y="1152"/>
      <point x="697" y="1152" type="curve" smooth="yes"/>
      <point x="301" y="1152" type="line"/>
      <point x="301" y="1086" type="line"/>
      <point x="695" y="1086" type="line" smooth="yes"/>
      <point x="866" y="1086"/>
      <point x="954" y="972"/>
      <point x="954" y="847" type="curve" smooth="yes"/>
      <point x="954" y="723"/>
      <point x="867" y="607"/>
      <point x="696" y="607" type="curve" smooth="yes"/>
      <point x="417" y="607" type="line"/>
      <point x="417" y="539" type="line"/>
      <point x="620" y="539" type="line"/>
    </contour>
    <component base="uc_main_stem" xOffset="-18"/>
  </outline>
</glyph>
<glyph name="S" format="1">
  <advance width="1122"/>
  <unicode hex="0053"/>
  <outline>
    <contour>
      <point x="561" y="1152" type="move" name="top"/>
    </contour>
    <contour>
      <point x="638" y="0" type="move" name="bot"/>
    </contour>
    <contour>
      <point x="636" y="-22" type="curve" smooth="yes"/>
      <point x="930" y="-22"/>
      <point x="1023" y="163"/>
      <point x="1023" y="296" type="curve" smooth="yes"/>
      <point x="1023" y="573"/>
      <point x="807" y="600"/>
      <point x="605" y="626" type="curve" smooth="yes"/>
      <point x="430" y="648"/>
      <point x="269" y="669"/>
      <point x="273" y="857" type="curve" smooth="yes"/>
      <point x="275" y="999"/>
      <point x="362" y="1096"/>
      <point x="566" y="1096" type="curve" smooth="yes"/>
      <point x="707" y="1096"/>
      <point x="869" y="1020"/>
      <point x="875" y="939" type="curve"/>
      <point x="875" y="836" type="line"/>
      <point x="956" y="836" type="line"/>
      <point x="956" y="1152" type="line"/>
      <point x="875" y="1152" type="line"/>
      <point x="875" y="1053" type="line"/>
      <point x="815" y="1132"/>
      <point x="673" y="1172"/>
      <point x="563" y="1172" type="curve" smooth="yes"/>
      <point x="352" y="1172"/>
      <point x="183" y="1066"/>
      <point x="183" y="856" type="curve" smooth="yes"/>
      <point x="183" y="599"/>
      <point x="392" y="573"/>
      <point x="592" y="547" type="curve" smooth="yes"/>
      <point x="775" y="523"/>
      <point x="946" y="499"/>
      <point x="940" y="297" type="curve" smooth="yes"/>
      <point x="936" y="168"/>
      <point x="844" y="55"/>
      <point x="637" y="55" type="curve" smooth="yes"/>
      <point x="424" y="55"/>
      <point x="275" y="140"/>
      <point x="268" y="275" type="curve"/>
      <point x="268" y="387" type="line"/>
      <point x="187" y="387" type="line"/>
      <point x="187" y="-1" type="line"/>
      <point x="268" y="-1" type="line"/>
      <point x="268" y="119" type="line"/>
      <point x="342" y="22"/>
      <point x="465" y="-22"/>
    </contour>
  </outline>
</glyph>
<glyph name="T" format="1">
  <advance width="1149"/>
  <unicode hex="0054"/>
  <outline>
    <contour>
      <point x="570" y="1152" type="move" name="top"/>
    </contour>
    <contour>
      <point x="568" y="0" type="move" name="bot"/>
    </contour>
    <contour>
      <point x="61" y="782" type="line"/>
      <point x="117" y="782" type="line"/>
      <point x="117" y="1105" type="line"/>
      <point x="1031" y="1105" type="line"/>
      <point x="1031" y="782" type="line"/>
      <point x="1091" y="782" type="line"/>
      <point x="1091" y="1152" type="line"/>
      <point x="61" y="1152" type="line"/>
    </contour>
    <component base="uc_main_stem" xOffset="254"/>
  </outline>
</glyph>
<glyph name="U" format="1">
  <advance width="1418"/>
  <unicode hex="0055"/>
  <outline>
    <contour>
      <point x="712" y="1152" type="move" name="top"/>
    </contour>
    <contour>
      <point x="757" y="0" type="move" name="ogonek"/>
    </contour>
    <contour>
      <point x="694" y="-23" type="curve" smooth="yes"/>
      <point x="976" y="-23"/>
      <point x="1199" y="123"/>
      <point x="1199" y="372" type="curve" smooth="yes"/>
      <point x="1199" y="1105" type="line"/>
      <point x="1353" y="1105" type="line"/>
      <point x="1353" y="1152" type="line"/>
      <point x="987" y="1152" type="line"/>
      <point x="987" y="1105" type="line"/>
      <point x="1138" y="1105" type="line"/>
      <point x="1138" y="373" type="line" smooth="yes"/>
      <point x="1138" y="157"/>
      <point x="943" y="30"/>
      <point x="693" y="30" type="curve" smooth="yes"/>
      <point x="458" y="30"/>
      <point x="277" y="155"/>
      <point x="277" y="375" type="curve" smooth="yes"/>
      <point x="277" y="1105" type="line"/>
      <point x="423" y="1105" type="line"/>
      <point x="423" y="1152" type="line"/>
      <point x="64" y="1152" type="line"/>
      <point x="64" y="1105" type="line"/>
      <point x="216" y="1105" type="line"/>
      <point x="216" y="372" type="line" smooth="yes"/>
      <point x="216" y="121"/>
      <point x="428" y="-23"/>
    </contour>
  </outline>
</glyph>
<glyph name="V" format="1">
  <advance width="1235"/>
  <unicode hex="0056"/>
  <outline>
    <contour>
      <point x="584" y="0" type="line"/>
      <point x="650" y="0" type="line"/>
      <point x="1073" y="1106" type="line"/>
      <point x="1198" y="1106" type="line"/>
      <point x="1198" y="1153" type="line"/>
      <point x="848" y="1153" type="line"/>
      <point x="848" y="1106" type="line"/>
      <point x="1004" y="1106" type="line"/>
      <point x="618" y="76" type="line"/>
      <point x="241" y="1106" type="line"/>
      <point x="400" y="1106" type="line"/>
      <point x="400" y="1153" type="line"/>
      <point x="37" y="1153" type="line"/>
      <point x="37" y="1106" type="line"/>
      <point x="174" y="1106" type="line"/>
    </contour>
  </outline>
</glyph>
<glyph name="W" format="1">
  <advance width="1905"/>
  <unicode hex="0057"/>
  <outline>
    <contour>
      <point x="952" y="1152" type="move" name="top"/>
    </contour>
    <contour>
      <point x="956" y="0" type="move" name="bot"/>
    </contour>
    <contour>
      <point x="552" y="0" type="line"/>
      <point x="644" y="0" type="line"/>
      <point x="952" y="971" type="line"/>
      <point x="1270" y="0" type="line"/>
      <point x="1362" y="0" type="line"/>
      <point x="1710" y="1086" type="line"/>
      <point x="1850" y="1086" type="line"/>
      <point x="1850" y="1152" type="line"/>
      <point x="1470" y="1152" type="line"/>
      <point x="1470" y="1086" type="line"/>
      <point x="1617" y="1086" type="line"/>
      <point x="1317" y="109" type="line"/>
      <point x="1000" y="1095" type="line"/>
      <point x="904" y="1095" type="line"/>
      <point x="599" y="109" type="line"/>
      <point x="286" y="1086" type="line"/>
      <point x="440" y="1086" type="line"/>
      <point x="440" y="1152" type="line"/>
      <point x="55" y="1152" type="line"/>
      <point x="55" y="1086" type="line"/>
      <point x="194" y="1086" type="line"/>
    </contour>
  </outline>
</glyph>
<glyph name="X" format="1">
  <advance width="1236"/>
  <unicode hex="0058"/>
  <outline>
    <contour>
      <point x="72" y="0" type="line"/>
      <point x="460" y="0" type="line"/>
      <point x="460" y="65" type="line"/>
      <point x="312" y="65" type="line"/>
      <point x="615" y="523" type="line"/>
      <point x="925" y="65" type="line"/>
      <point x="775" y="65" type="line"/>
      <point x="775" y="0" type="line"/>
      <point x="1165" y="0" type="line"/>
      <point x="1165" y="65" type="line"/>
      <point x="1014" y="65" type="line"/>
      <point x="659" y="589" type="line"/>
      <point x="993" y="1088" type="line"/>
      <point x="1142" y="1088" type="line"/>
      <point x="1142" y="1154" type="line"/>
      <point x="755" y="1154" type="line"/>
      <point x="755" y="1088" type="line"/>
      <point x="903" y="1088" type="line"/>
      <point x="613" y="656" type="line"/>
      <point x="324" y="1088" type="line"/>
      <point x="471" y="1088" type="line"/>
      <point x="471" y="1154" type="line"/>
      <point x="84" y="1154" type="line"/>
      <point x="84" y="1088" type="line"/>
      <point x="234" y="1088" type="line"/>
      <point x="570" y="591" type="line"/>
      <point x="218" y="65" type="line"/>
      <point x="72" y="65" type="line"/>
    </contour>
  </outline>
</glyph>
<glyph name="Y" format="1">
  <advance width="1256"/>
  <unicode hex="0059"/>
  <outline>
    <contour>
      <point x="628" y="1152" type="move" name="top"/>
    </contour>
    <contour>
      <point x="628" y="0" type="move" name="bot"/>
    </contour>
    <contour>
      <point x="435" y="0" type="line"/>
      <point x="825" y="0" type="line"/>
      <point x="825" y="65" type="line"/>
      <point x="674" y="65" type="line"/>
      <point x="674" y="423" type="line"/>
      <point x="1076" y="1086" type="line"/>
      <point x="1223" y="1086" type="line"/>
      <point x="1223" y="1152" type="line"/>
      <point x="836" y="1152" type="line"/>
      <point x="836" y="1086" type="line"/>
      <point x="985" y="1086" type="line"/>
      <point x="634" y="497" type="line"/>
      <point x="275" y="1086" type="line"/>
      <point x="422" y="1086" type="line"/>
      <point x="422" y="1152" type="line"/>
      <point x="33" y="1152" type="line"/>
      <point x="33" y="1086" type="line"/>
      <point x="181" y="1086" type="line"/>
      <point x="587" y="423" type="line"/>
      <point x="587" y="65" type="line"/>
      <point x="435" y="65" type="line"/>
    </contour>
  </outline>
</glyph>
<glyph name="Z" format="1">
  <advance width="1183"/>
  <unicode hex="005A"/>
  <outline>
    <contour>
      <point x="624" y="1152" type="move" name="top"/>
    </contour>
    <contour>
      <point x="124" y="0" type="line"/>
      <point x="1066" y="0" type="line"/>
      <point x="1066" y="355" type="line"/>
      <point x="1009" y="355" type="line"/>
      <point x="1009" y="51" type="line"/>
      <point x="188" y="51" type="line"/>
      <point x="1034" y="1095" type="line"/>
      <point x="1034" y="1152" type="line"/>
      <point x="146" y="1152" type="line"/>
      <point x="146" y="810" type="line"/>
      <point x="204" y="810" type="line"/>
      <point x="204" y="1101" type="line"/>
      <point x="967" y="1101" type="line"/>
      <point x="124" y="65" type="line"/>
    </contour>
  </outline>
</glyph>
<glyph name="bracketleft" format="1">
  <advance width="357"/>
  <unicode hex="005B"/>
  <outline>
    <contour>
      <point x="137" y="-137" type="line"/>
      <point x="331" y="-137" type="line"/>
      <point x="331" y="-89" type="line"/>
      <point x="199" y="-89" type="line"/>
      <point x="199" y="1153" type="line"/>
      <point x="331" y="1153" type="line"/>
      <point x="331" y="1200" type="line"/>
      <point x="137" y="1200" type="line"/>
    </contour>
  </outline>
</glyph>
<glyph name="backslash" format="1">
  <advance width="482"/>
  <unicode hex="005C"/>
  <outline>
    <contour>
      <point x="381" y="-22" type="line"/>
      <point x="459" y="-22" type="line"/>
      <point x="101" y="1172" type="line"/>
      <point x="27" y="1172" type="line"/>
    </contour>
  </outline>
</glyph>
<glyph name="bracketright" format="1">
  <advance width="411"/>
  <unicode hex="005D"/>
  <outline>
    <contour>
      <point x="11" y="-151" type="line"/>
      <point x="259" y="-151" type="line"/>
      <point x="259" y="1212" type="line"/>
      <point x="11" y="1212" type="line"/>
      <point x="11" y="1147" type="line"/>
      <point x="173" y="1147" type="line"/>
      <point x="173" y="-86" type="line"/>
      <point x="11" y="-86" type="line"/>
    </contour>
  </outline>
</glyph>
<glyph name="asciicircum" format="1">
  <advance width="879"/>
  <unicode hex="005E"/>
  <outline>
    <contour>
      <point x="58" y="742" type="line"/>
      <point x="142" y="742" type="line"/>
      <point x="445" y="1168" type="line"/>
      <point x="736" y="742" type="line"/>
      <point x="818" y="742" type="line"/>
      <point x="492" y="1245" type="line"/>
      <point x="399" y="1245" type="line"/>
    </contour>
  </outline>
</glyph>
<glyph name="grave" format="1">
  <advance width="242"/>
  <unicode hex="0060"/>
  <outline>
    <contour>
      <point x="121" y="804" type="move" name="_top"/>
    </contour>
    <contour>
      <point x="161" y="904" type="line"/>
      <point x="203" y="904" type="line"/>
      <point x="139" y="1154" type="line"/>
      <point x="3" y="1154" type="line"/>
    </contour>
  </outline>
</glyph>
<glyph name="a" format="1">
  <advance width="938"/>
  <unicode hex="0061"/>
  <outline>
    <contour>
      <point x="462" y="805" type="move" name="top"/>
    </contour>
    <contour>
      <point x="793" y="0" type="move" name="ogonek"/>
    </contour>
    <contour>
      <point x="469" y="0" type="move" name="bot"/>
    </contour>
    <contour>
      <point x="380" y="-22" type="curve" smooth="yes"/>
      <point x="470" y="-22"/>
      <point x="578" y="11"/>
      <point x="679" y="84" type="curve"/>
      <point x="679" y="84"/>
      <point x="693" y="3"/>
      <point x="693" y="0" type="curve"/>
      <point x="890" y="0" type="line"/>
      <point x="890" y="64" type="line"/>
      <point x="763" y="64" type="line"/>
      <point x="763" y="553" type="line" smooth="yes"/>
      <point x="763" y="690"/>
      <point x="672" y="826"/>
      <point x="455" y="826" type="curve" smooth="yes"/>
      <point x="369" y="826"/>
      <point x="277" y="800"/>
      <point x="160" y="754" type="curve"/>
      <point x="180" y="688" type="line"/>
      <point x="265" y="725"/>
      <point x="368" y="755"/>
      <point x="458" y="755" type="curve" smooth="yes"/>
      <point x="580" y="755"/>
      <point x="677" y="706"/>
      <point x="677" y="552" type="curve" smooth="yes"/>
      <point x="677" y="427" type="line"/>
      <point x="588" y="444"/>
      <point x="494" y="459"/>
      <point x="409" y="459" type="curve" smooth="yes"/>
      <point x="242" y="459"/>
      <point x="112" y="399"/>
      <point x="112" y="213" type="curve" smooth="yes"/>
      <point x="112" y="72"/>
      <point x="226" y="-22"/>
    </contour>
    <contour>
      <point x="388" y="48" type="curve" smooth="yes"/>
      <point x="267" y="48"/>
      <point x="199" y="123"/>
      <point x="199" y="213" type="curve" smooth="yes"/>
      <point x="199" y="352"/>
      <point x="295" y="394"/>
      <point x="423" y="394" type="curve" smooth="yes"/>
      <point x="503" y="394"/>
      <point x="598" y="379"/>
      <point x="677" y="367" type="curve"/>
      <point x="677" y="148" type="line"/>
      <point x="566" y="78"/>
      <point x="469" y="48"/>
    </contour>
  </outline>
</glyph>
<glyph name="c" format="1">
  <advance width="928"/>
  <unicode hex="0063"/>
  <outline>
    <contour>
      <point x="486" y="805" type="move" name="top"/>
    </contour>
    <contour>
      <point x="450" y="0" type="move" name="bot"/>
    </contour>
    <contour>
      <point x="480" y="-18" type="curve" smooth="yes"/>
      <point x="605" y="-18"/>
      <point x="726" y="24"/>
      <point x="838" y="135" type="curve"/>
      <point x="818" y="182" type="line"/>
      <point x="715" y="79"/>
      <point x="603" y="34"/>
      <point x="483" y="33" type="curve" smooth="yes"/>
      <point x="291" y="33"/>
      <point x="129" y="180"/>
      <point x="129" y="405" type="curve" smooth="yes"/>
      <point x="129" y="666"/>
      <point x="324" y="773"/>
      <point x="490" y="773" type="curve" smooth="yes"/>
      <point x="639" y="773"/>
      <point x="743" y="702"/>
      <point x="760" y="574" type="curve"/>
      <point x="808" y="574" type="line"/>
      <point x="808" y="815" type="line"/>
      <point x="753" y="815" type="line"/>
      <point x="753" y="697" type="line"/>
      <point x="705" y="777"/>
      <point x="617" y="822"/>
      <point x="488" y="822" type="curve" smooth="yes"/>
      <point x="297" y="822"/>
      <point x="67" y="697"/>
      <point x="67" y="406" type="curve" smooth="yes"/>
      <point x="67" y="148"/>
      <point x="258" y="-18"/>
    </contour>
  </outline>
</glyph>
<glyph name="e" format="1">
  <advance width="953"/>
  <unicode hex="0065"/>
  <outline>
    <contour>
      <point x="482" y="805" type="move" name="top"/>
    </contour>
    <contour>
      <point x="561" y="0" type="move" name="ogonek"/>
    </contour>
    <contour>
      <point x="490" y="-18" type="curve" smooth="yes"/>
      <point x="612" y="-18"/>
      <point x="739" y="30"/>
      <point x="841" y="134" type="curve"/>
      <point x="818" y="183" type="line"/>
      <point x="742" y="91"/>
      <point x="613" y="33"/>
      <point x="491" y="33" type="curve" smooth="yes"/>
      <point x="315" y="33"/>
      <point x="141" y="150"/>
      <point x="130" y="386" type="curve"/>
      <point x="862" y="386" type="line"/>
      <point x="855" y="705"/>
      <point x="661" y="822"/>
      <point x="472" y="822" type="curve" smooth="yes"/>
      <point x="272" y="822"/>
      <point x="67" y="681"/>
      <point x="67" y="403" type="curve" smooth="yes"/>
      <point x="67" y="136"/>
      <point x="272" y="-18"/>
    </contour>
    <contour>
      <point x="130" y="434" type="line"/>
      <point x="142" y="646"/>
      <point x="302" y="772"/>
      <point x="476" y="772" type="curve" smooth="yes"/>
      <point x="635" y="772"/>
      <point x="783" y="667"/>
      <point x="806" y="434" type="curve"/>
    </contour>
  </outline>
</glyph>
<glyph name="f" format="1">
  <advance width="661"/>
  <unicode hex="0066"/>
  <outline>
    <contour>
      <point x="307" y="1086" type="move" name="top"/>
    </contour>
    <contour>
      <point x="101" y="0" type="line"/>
      <point x="515" y="0" type="line"/>
      <point x="515" y="65" type="line"/>
      <point x="334" y="65" type="line"/>
      <point x="334" y="742" type="line"/>
      <point x="544" y="742" type="line"/>
      <point x="544" y="804" type="line"/>
      <point x="334" y="804" type="line"/>
      <point x="334" y="1000" type="line" smooth="yes"/>
      <point x="334" y="1075"/>
      <point x="386" y="1116"/>
      <point x="439" y="1116" type="curve" smooth="yes"/>
      <point x="487" y="1116"/>
      <point x="537" y="1099"/>
      <point x="551" y="1016" type="curve"/>
      <point x="611" y="1037" type="line"/>
      <point x="595" y="1147"/>
      <point x="524" y="1183"/>
      <point x="435" y="1183" type="curve" smooth="yes"/>
      <point x="340" y="1183"/>
      <point x="249" y="1118"/>
      <point x="249" y="999" type="curve" smooth="yes"/>
      <point x="249" y="804" type="line"/>
      <point x="103" y="804" type="line"/>
      <point x="103" y="742" type="line"/>
      <point x="249" y="742" type="line"/>
      <point x="249" y="65" type="line"/>
      <point x="101" y="65" type="line"/>
    </contour>
  </outline>
</glyph>
<glyph name="g" format="1">
  <advance width="1025"/>
  <unicode hex="0067"/>
  <outline>
    <contour>
      <point x="502" y="805" type="move" name="top"/>
    </contour>
    <contour>
      <point x="512" y="0" type="move" name="bot"/>
    </contour>
    <contour>
      <point x="473" y="-375" type="curve" smooth="yes"/>
      <point x="699" y="-375"/>
      <point x="857" y="-269"/>
      <point x="857" y="-30" type="curve" smooth="yes"/>
      <point x="857" y="743" type="line"/>
      <point x="1010" y="743" type="line"/>
      <point x="1010" y="805" type="line"/>
      <point x="772" y="805" type="line"/>
      <point x="772" y="-48" type="line" smooth="yes"/>
      <point x="772" y="-214"/>
      <point x="664" y="-305"/>
      <point x="474" y="-305" type="curve" smooth="yes"/>
      <point x="396" y="-305"/>
      <point x="306" y="-289"/>
      <point x="206" y="-258" type="curve"/>
      <point x="189" y="-330" type="line"/>
      <point x="290" y="-360"/>
      <point x="386" y="-375"/>
    </contour>
    <component base="lc_bowl_left" yScale="0.98" xOffset="-68" yOffset="15"/>
  </outline>
</glyph>
<glyph name="h" format="1">
  <advance width="1031"/>
  <unicode hex="0068"/>
  <outline>
    <contour>
      <point x="579" y="993" type="move" name="top"/>
    </contour>
    <contour>
      <point x="515" y="0" type="move" name="bot"/>
    </contour>
    <contour>
      <point x="257" y="953" type="move" name="mid"/>
    </contour>
    <component base="lc_xheight_curved_stem" xOffset="-64"/>
    <component base="lc_ascender_stem" xOffset="-24"/>
  </outline>
</glyph>
<glyph name="i" format="1">
  <advance width="510"/>
  <unicode hex="0069"/>
  <outline>
    <contour>
      <point x="292" y="0" type="move" name="ogonek"/>
    </contour>
    <contour>
      <point x="85" y="0" type="line"/>
      <point x="494" y="0" type="line"/>
      <point x="494" y="47" type="line"/>
      <point x="324" y="47" type="line"/>
      <point x="324" y="644" type="line"/>
      <point x="324" y="804" type="line"/>
      <point x="87" y="804" type="line"/>
      <point x="87" y="759" type="line"/>
      <point x="262" y="759" type="line"/>
      <point x="262" y="47" type="line"/>
      <point x="85" y="47" type="line"/>
    </contour>
    <contour>
      <point x="280" y="1042" type="curve" smooth="yes"/>
      <point x="316" y="1042"/>
      <point x="335" y="1067"/>
      <point x="335" y="1096" type="curve" smooth="yes"/>
      <point x="335" y="1125"/>
      <point x="316" y="1149"/>
      <point x="280" y="1149" type="curve" smooth="yes"/>
      <point x="246" y="1149"/>
      <point x="227" y="1125"/>
      <point x="227" y="1096" type="curve" smooth="yes"/>
      <point x="227" y="1067"/>
      <point x="246" y="1042"/>
    </contour>
  </outline>
</glyph>
<glyph name="j" format="1">
  <advance width="419"/>
  <unicode hex="006A"/>
  <outline>
    <contour>
      <point x="29" y="-250" type="line"/>
      <point x="104" y="-250" type="line" smooth="yes"/>
      <point x="305" y="-250"/>
      <point x="294" y="-119"/>
      <point x="294" y="-26" type="curve" smooth="yes"/>
      <point x="294" y="805" type="line"/>
      <point x="68" y="805" type="line"/>
      <point x="68" y="759" type="line"/>
      <point x="233" y="759" type="line"/>
      <point x="233" y="-34" type="line" smooth="yes"/>
      <point x="233" y="-146"/>
      <point x="235" y="-203"/>
      <point x="98" y="-203" type="curve" smooth="yes"/>
      <point x="29" y="-203" type="line"/>
    </contour>
    <contour>
      <point x="251" y="1042" type="curve" smooth="yes"/>
      <point x="286" y="1042"/>
      <point x="306" y="1067"/>
      <point x="306" y="1096" type="curve" smooth="yes"/>
      <point x="306" y="1125"/>
      <point x="286" y="1149"/>
      <point x="251" y="1149" type="curve" smooth="yes"/>
      <point x="216" y="1149"/>
      <point x="198" y="1125"/>
      <point x="198" y="1096" type="curve" smooth="yes"/>
      <point x="198" y="1067"/>
      <point x="216" y="1042"/>
    </contour>
  </outline>
</glyph>
<glyph name="k" format="1">
  <advance width="974"/>
  <unicode hex="006B"/>
  <outline>
    <contour>
      <point x="503" y="817" type="move" name="top"/>
    </contour>
    <contour>
      <point x="506" y="0" type="move" name="bot"/>
    </contour>
    <contour>
      <point x="714" y="0" type="line"/>
      <point x="931" y="0" type="line"/>
      <point x="931" y="65" type="line"/>
      <point x="754" y="65" type="line"/>
      <point x="389" y="420" type="line"/>
      <point x="778" y="740" type="line"/>
      <point x="920" y="740" type="line"/>
      <point x="920" y="805" type="line"/>
      <point x="532" y="805" type="line"/>
      <point x="532" y="740" type="line"/>
      <point x="670" y="740" type="line"/>
      <point x="289" y="421" type="line"/>
    </contour>
    <component base="lc_ascender_stem" xOffset="-19"/>
  </outline>
</glyph>
<glyph name="l" format="1">
  <advance width="495"/>
  <unicode hex="006C"/>
  <outline>
    <contour>
      <point x="259" y="1152" type="move" name="top"/>
    </contour>
    <contour>
      <point x="263" y="0" type="move" name="bot"/>
    </contour>
    <contour>
      <point x="458" y="622" type="move" name="mid"/>
    </contour>
    <component base="lc_ascender_stem" xOffset="-11"/>
  </outline>
</glyph>
<glyph name="o" format="1">
  <advance width="988"/>
  <unicode hex="006F"/>
  <outline>
    <contour>
      <point x="490" y="805" type="move" name="top"/>
    </contour>
    <contour>
      <point x="554" y="0" type="move" name="ogonek"/>
    </contour>
    <contour>
      <point x="494" y="0" type="move" name="bot"/>
    </contour>
    <contour>
      <point x="492" y="-22" type="curve" smooth="yes"/>
      <point x="744" y="-22"/>
      <point x="923" y="155"/>
      <point x="923" y="406" type="curve" smooth="yes"/>
      <point x="923" y="652"/>
      <point x="744" y="826"/>
      <point x="492" y="826" type="curve" smooth="yes"/>
      <point x="242" y="826"/>
      <point x="65" y="652"/>
      <point x="65" y="406" type="curve" smooth="yes"/>
      <point x="65" y="155"/>
      <point x="242" y="-22"/>
    </contour>
    <contour>
      <point x="492" y="50" type="curve" smooth="yes"/>
      <point x="294" y="50"/>
      <point x="154" y="197"/>
      <point x="154" y="405" type="curve" smooth="yes"/>
      <point x="154" y="610"/>
      <point x="294" y="755"/>
      <point x="492" y="755" type="curve" smooth="yes"/>
      <point x="693" y="755"/>
      <point x="836" y="610"/>
      <point x="836" y="405" type="curve" smooth="yes"/>
      <point x="836" y="197"/>
      <point x="693" y="50"/>
    </contour>
  </outline>
</glyph>
<glyph name="q" format="1">
  <advance width="1046"/>
  <unicode hex="0071"/>
  <outline>
    <contour>
      <point x="647" y="-326" type="line"/>
      <point x="987" y="-326" type="line"/>
      <point x="987" y="-279" type="line"/>
      <point x="847" y="-279" type="line"/>
      <point x="847" y="749" type="line"/>
      <point x="975" y="749" type="line"/>
      <point x="975" y="796" type="line"/>
      <point x="795" y="796" type="line"/>
      <point x="785" y="679" type="line"/>
      <point x="785" y="-279" type="line"/>
      <point x="647" y="-279" type="line"/>
    </contour>
    <component base="lc_bowl_left" xOffset="-69"/>
  </outline>
</glyph>
<glyph name="r" format="1">
  <advance width="757"/>
  <unicode hex="0072"/>
  <outline>
    <contour>
      <point x="443" y="805" type="move" name="top"/>
    </contour>
    <contour>
      <point x="319" y="0" type="move" name="bot"/>
    </contour>
    <contour>
      <point x="355" y="447" type="line"/>
      <point x="355" y="629"/>
      <point x="444" y="753"/>
      <point x="567" y="753" type="curve" smooth="yes"/>
      <point x="605" y="753"/>
      <point x="648" y="741"/>
      <point x="692" y="715" type="curve"/>
      <point x="707" y="782" type="line"/>
      <point x="655" y="807"/>
      <point x="606" y="820"/>
      <point x="560" y="820" type="curve" smooth="yes"/>
      <point x="460" y="820"/>
      <point x="379" y="753"/>
      <point x="334" y="583" type="curve"/>
    </contour>
    <component base="lc_xheight_stem" xOffset="-6"/>
  </outline>
</glyph>
<glyph name="s" format="1">
  <advance width="867"/>
  <unicode hex="0073"/>
  <outline>
    <contour>
      <point x="434" y="805" type="move" name="top"/>
    </contour>
    <contour>
      <point x="457" y="0" type="move" name="bot"/>
    </contour>
    <contour>
      <point x="461" y="-18" type="curve" smooth="yes"/>
      <point x="619" y="-18"/>
      <point x="778" y="50"/>
      <point x="778" y="203" type="curve" smooth="yes"/>
      <point x="778" y="376"/>
      <point x="665" y="397"/>
      <point x="491" y="435" type="curve" smooth="yes"/>
      <point x="365" y="462" type="line" smooth="yes"/>
      <point x="272" y="482"/>
      <point x="197" y="510"/>
      <point x="196" y="601" type="curve" smooth="yes"/>
      <point x="196" y="720"/>
      <point x="306" y="776"/>
      <point x="425" y="776" type="curve" smooth="yes"/>
      <point x="516" y="776"/>
      <point x="633" y="733"/>
      <point x="678" y="674" type="curve"/>
      <point x="680" y="547" type="line"/>
      <point x="734" y="547" type="line"/>
      <point x="734" y="804" type="line"/>
      <point x="679" y="804" type="line"/>
      <point x="679" y="737" type="line"/>
      <point x="618" y="794"/>
      <point x="516" y="826"/>
      <point x="421" y="826" type="curve" smooth="yes"/>
      <point x="275" y="826"/>
      <point x="134" y="759"/>
      <point x="134" y="602" type="curve" smooth="yes"/>
      <point x="134" y="486"/>
      <point x="222" y="437"/>
      <point x="349" y="411" type="curve" smooth="yes"/>
      <point x="481" y="384" type="line" smooth="yes"/>
      <point x="651" y="349"/>
      <point x="720" y="325"/>
      <point x="721" y="203" type="curve" smooth="yes"/>
      <point x="721" y="95"/>
      <point x="605" y="33"/>
      <point x="463" y="33" type="curve" smooth="yes"/>
      <point x="347" y="33"/>
      <point x="233" y="70"/>
      <point x="184" y="144" type="curve"/>
      <point x="182" y="246" type="line"/>
      <point x="129" y="246" type="line"/>
      <point x="129" y="-1" type="line"/>
      <point x="183" y="-1" type="line"/>
      <point x="183" y="79" type="line"/>
      <point x="236" y="22"/>
      <point x="345" y="-18"/>
    </contour>
  </outline>
</glyph>
<glyph name="t" format="1">
  <advance width="583"/>
  <unicode hex="0074"/>
  <outline>
    <contour>
      <point x="229" y="1023" type="move" name="top"/>
    </contour>
    <contour>
      <point x="412" y="1" type="move" name="bot"/>
    </contour>
    <contour>
      <point x="267" y="529" type="move" name="mid"/>
    </contour>
    <contour>
      <point x="431" y="0" type="curve" smooth="yes"/>
      <point x="530" y="0" type="line"/>
      <point x="530" y="65" type="line"/>
      <point x="436" y="65" type="line" smooth="yes"/>
      <point x="310" y="65"/>
      <point x="270" y="124"/>
      <point x="270" y="236" type="curve" smooth="yes"/>
      <point x="270" y="744" type="line"/>
      <point x="496" y="744" type="line"/>
      <point x="497" y="805" type="line"/>
      <point x="270" y="805" type="line"/>
      <point x="270" y="1096" type="line"/>
      <point x="185" y="1076" type="line"/>
      <point x="185" y="805" type="line"/>
      <point x="41" y="805" type="line"/>
      <point x="41" y="744" type="line"/>
      <point x="185" y="744" type="line"/>
      <point x="185" y="248" type="line" smooth="yes"/>
      <point x="185" y="120"/>
      <point x="229" y="0"/>
    </contour>
  </outline>
</glyph>
<glyph name="u" format="1">
  <advance width="1014"/>
  <unicode hex="0075"/>
  <outline>
    <contour>
      <point x="482" y="805" type="move" name="top"/>
    </contour>
    <contour>
      <point x="854" y="0" type="move" name="ogonek"/>
    </contour>
    <contour>
      <point x="507" y="0" type="move" name="bot"/>
    </contour>
    <contour>
      <point x="431" y="-14" type="curve" smooth="yes"/>
      <point x="549" y="-14"/>
      <point x="625" y="24"/>
      <point x="747" y="100" type="curve"/>
      <point x="754" y="0" type="line"/>
      <point x="978" y="0" type="line"/>
      <point x="978" y="64" type="line"/>
      <point x="829" y="64" type="line"/>
      <point x="829" y="805" type="line"/>
      <point x="593" y="805" type="line"/>
      <point x="593" y="740" type="line"/>
      <point x="744" y="740" type="line"/>
      <point x="744" y="177" type="line"/>
      <point x="649" y="112"/>
      <point x="562" y="58"/>
      <point x="441" y="58" type="curve" smooth="yes"/>
      <point x="294" y="58"/>
      <point x="263" y="135"/>
      <point x="263" y="235" type="curve" smooth="yes"/>
      <point x="263" y="805" type="line"/>
      <point x="28" y="805" type="line"/>
      <point x="28" y="740" type="line"/>
      <point x="178" y="740" type="line"/>
      <point x="178" y="221" type="line" smooth="yes"/>
      <point x="178" y="106"/>
      <point x="241" y="-14"/>
    </contour>
  </outline>
</glyph>
<glyph name="v" format="1">
  <advance width="1024"/>
  <unicode hex="0076"/>
  <outline>
    <contour>
      <point x="477" y="0" type="line"/>
      <point x="570" y="0" type="line"/>
      <point x="873" y="740" type="line"/>
      <point x="1012" y="740" type="line"/>
      <point x="1012" y="805" type="line"/>
      <point x="632" y="805" type="line"/>
      <point x="632" y="740" type="line"/>
      <point x="779" y="740" type="line"/>
      <point x="521" y="80" type="line"/>
      <point x="241" y="740" type="line"/>
      <point x="397" y="740" type="line"/>
      <point x="397" y="805" type="line"/>
      <point x="12" y="805" type="line"/>
      <point x="12" y="740" type="line"/>
      <point x="153" y="740" type="line"/>
    </contour>
  </outline>
</glyph>
<glyph name="w" format="1">
  <advance width="1519"/>
  <unicode hex="0077"/>
  <outline>
    <contour>
      <point x="761" y="805" type="move" name="top"/>
    </contour>
    <contour>
      <point x="759" y="0" type="move" name="bot"/>
    </contour>
    <contour>
      <point x="420" y="0" type="line"/>
      <point x="513" y="0" type="line"/>
      <point x="761" y="676" type="line"/>
      <point x="1009" y="0" type="line"/>
      <point x="1102" y="0" type="line"/>
      <point x="1365" y="740" type="line"/>
      <point x="1499" y="740" type="line"/>
      <point x="1499" y="805" type="line"/>
      <point x="1138" y="805" type="line"/>
      <point x="1138" y="740" type="line"/>
      <point x="1273" y="740" type="line"/>
      <point x="1052" y="73" type="line"/>
      <point x="808" y="740" type="line"/>
      <point x="943" y="740" type="line"/>
      <point x="943" y="805" type="line"/>
      <point x="574" y="805" type="line"/>
      <point x="574" y="740" type="line"/>
      <point x="707" y="740" type="line"/>
      <point x="465" y="74" type="line"/>
      <point x="238" y="740" type="line"/>
      <point x="380" y="740" type="line"/>
      <point x="380" y="805" type="line"/>
      <point x="20" y="805" type="line"/>
      <point x="20" y="740" type="line"/>
      <point x="155" y="740" type="line"/>
    </contour>
  </outline>
</glyph>
<glyph name="x" format="1">
  <advance width="1055"/>
  <unicode hex="0078"/>
  <outline>
    <contour>
      <point x="48" y="0" type="line"/>
      <point x="417" y="0" type="line"/>
      <point x="417" y="65" type="line"/>
      <point x="287" y="65" type="line"/>
      <point x="531" y="359" type="line"/>
      <point x="780" y="65" type="line"/>
      <point x="628" y="65" type="line"/>
      <point x="628" y="0" type="line"/>
      <point x="1007" y="0" type="line"/>
      <point x="1007" y="65" type="line"/>
      <point x="866" y="65" type="line"/>
      <point x="573" y="410" type="line"/>
      <point x="846" y="739" type="line"/>
      <point x="996" y="739" type="line"/>
      <point x="996" y="804" type="line"/>
      <point x="616" y="804" type="line"/>
      <point x="616" y="739" type="line"/>
      <point x="752" y="739" type="line"/>
      <point x="525" y="466" type="line"/>
      <point x="294" y="739" type="line"/>
      <point x="440" y="739" type="line"/>
      <point x="440" y="804" type="line"/>
      <point x="69" y="804" type="line"/>
      <point x="69" y="739" type="line"/>
      <point x="210" y="739" type="line"/>
      <point x="481" y="416" type="line"/>
      <point x="189" y="65" type="line"/>
      <point x="48" y="65" type="line"/>
    </contour>
  </outline>
</glyph>
<glyph name="y" format="1">
  <advance width="1047"/>
  <unicode hex="0079"/>
  <outline>
    <contour>
      <point x="550" y="805" type="move" name="top"/>
    </contour>
    <contour>
      <point x="524" y="0" type="move" name="bot"/>
    </contour>
    <contour>
      <point x="196" y="-268" type="line"/>
      <point x="225" y="-268" type="line" smooth="yes"/>
      <point x="397" y="-268"/>
      <point x="505" y="-248"/>
      <point x="564" y="-101" type="curve" smooth="yes"/>
      <point x="909" y="739" type="line"/>
      <point x="1039" y="739" type="line"/>
      <point x="1039" y="804" type="line"/>
      <point x="657" y="804" type="line"/>
      <point x="657" y="739" type="line"/>
      <point x="813" y="739" type="line"/>
      <point x="558" y="92" type="line"/>
      <point x="278" y="739" type="line"/>
      <point x="418" y="739" type="line"/>
      <point x="418" y="804" type="line"/>
      <point x="32" y="804" type="line"/>
      <point x="32" y="739" type="line"/>
      <point x="185" y="739" type="line"/>
      <point x="488" y="56" type="line"/>
      <point x="547" y="56" type="line"/>
      <point x="484" y="-91" type="line" smooth="yes"/>
      <point x="444" y="-185"/>
      <point x="364" y="-197"/>
      <point x="250" y="-197" type="curve" smooth="yes"/>
      <point x="196" y="-197" type="line"/>
    </contour>
  </outline>
</glyph>
<glyph name="z" format="1">
  <advance width="888"/>
  <unicode hex="007A"/>
  <outline>
    <contour>
      <point x="462" y="805" type="move" name="top"/>
    </contour>
    <contour>
      <point x="130" y="0" type="line"/>
      <point x="778" y="0" type="line"/>
      <point x="778" y="264" type="line"/>
      <point x="724" y="264" type="line"/>
      <point x="724" y="46" type="line"/>
      <point x="200" y="46" type="line"/>
      <point x="757" y="752" type="line"/>
      <point x="757" y="805" type="line"/>
      <point x="153" y="805" type="line"/>
      <point x="153" y="567" type="line"/>
      <point x="208" y="567" type="line"/>
      <point x="208" y="758" type="line"/>
      <point x="692" y="758" type="line"/>
      <point x="130" y="50" type="line"/>
    </contour>
  </outline>
</glyph>
<glyph name="braceleft" format="1">
  <advance width="427"/>
  <unicode hex="007B"/>
  <outline>
    <contour>
      <point x="340" y="-49" type="curve" smooth="yes"/>
      <point x="397" y="-49" type="line"/>
      <point x="397" y="-8" type="line"/>
      <point x="264" y="-8"/>
      <point x="235" y="17"/>
      <point x="235" y="184" type="curve" smooth="yes"/>
      <point x="235" y="453"/>
      <point x="226" y="562"/>
      <point x="114" y="573" type="curve"/>
      <point x="226" y="583"/>
      <point x="235" y="676"/>
      <point x="235" y="954" type="curve" smooth="yes"/>
      <point x="235" y="1128"/>
      <point x="262" y="1151"/>
      <point x="397" y="1151" type="curve"/>
      <point x="397" y="1193" type="line"/>
      <point x="340" y="1193" type="line" smooth="yes"/>
      <point x="178" y="1193"/>
      <point x="173" y="1081"/>
      <point x="173" y="885" type="curve" smooth="yes"/>
      <point x="173" y="655"/>
      <point x="171" y="603"/>
      <point x="43" y="603" type="curve"/>
      <point x="43" y="545" type="line"/>
      <point x="170" y="545"/>
      <point x="173" y="448"/>
      <point x="173" y="270" type="curve" smooth="yes"/>
      <point x="173" y="64"/>
      <point x="177" y="-49"/>
    </contour>
  </outline>
</glyph>
<glyph name="braceright" format="1">
  <advance width="429"/>
  <unicode hex="007D"/>
  <outline>
    <contour>
      <point x="55" y="-49" type="line"/>
      <point x="112" y="-49" type="line" smooth="yes"/>
      <point x="275" y="-49"/>
      <point x="279" y="64"/>
      <point x="279" y="241" type="curve" smooth="yes"/>
      <point x="279" y="445"/>
      <point x="278" y="545"/>
      <point x="409" y="545" type="curve"/>
      <point x="409" y="603" type="line"/>
      <point x="285" y="603"/>
      <point x="279" y="652"/>
      <point x="279" y="902" type="curve" smooth="yes"/>
      <point x="279" y="1081"/>
      <point x="274" y="1193"/>
      <point x="112" y="1193" type="curve" smooth="yes"/>
      <point x="55" y="1193" type="line"/>
      <point x="55" y="1151" type="line"/>
      <point x="190" y="1151"/>
      <point x="216" y="1128"/>
      <point x="216" y="954" type="curve" smooth="yes"/>
      <point x="216" y="676"/>
      <point x="226" y="583"/>
      <point x="338" y="573" type="curve"/>
      <point x="227" y="562"/>
      <point x="216" y="453"/>
      <point x="216" y="184" type="curve" smooth="yes"/>
      <point x="216" y="17"/>
      <point x="188" y="-8"/>
      <point x="55" y="-8" type="curve"/>
    </contour>
  </outline>
</glyph>
<glyph name="asciitilde" format="1">
  <advance width="841"/>
  <unicode hex="007E"/>
  <outline>
    <contour>
      <point x="120" y="534" type="curve"/>
      <point x="160" y="524" type="line"/>
      <point x="170" y="587"/>
      <point x="201" y="612"/>
      <point x="242" y="612" type="curve" smooth="yes"/>
      <point x="334" y="612"/>
      <point x="484" y="491"/>
      <point x="599" y="491" type="curve" smooth="yes"/>
      <point x="664" y="491"/>
      <point x="711" y="531"/>
      <point x="729" y="643" type="curve"/>
      <point x="689" y="653" type="line"/>
      <point x="676" y="589"/>
      <point x="644" y="565"/>
      <point x="602" y="565" type="curve" smooth="yes"/>
      <point x="507" y="565"/>
      <point x="360" y="681"/>
      <point x="248" y="681" type="curve" smooth="yes"/>
      <point x="190" y="681"/>
      <point x="139" y="647"/>
    </contour>
  </outline>
</glyph>
<glyph name="cent" format="1">
  <advance width="950"/>
  <unicode hex="00A2"/>
  <outline>
    <contour>
      <point x="313" y="-257" type="line"/>
      <point x="698" y="1045" type="line"/>
      <point x="641" y="1047" type="line"/>
      <point x="251" y="-255" type="line"/>
    </contour>
    <component base="c"/>
  </outline>
</glyph>
<glyph name="sterling" format="1">
  <advance width="1138"/>
  <unicode hex="00A3"/>
  <outline>
    <contour>
      <point x="283" y="-43" type="curve" smooth="yes"/>
      <point x="334" y="-43"/>
      <point x="484" y="-25"/>
      <point x="542" y="107" type="curve"/>
      <point x="617" y="14"/>
      <point x="710" y="-27"/>
      <point x="805" y="-27" type="curve" smooth="yes"/>
      <point x="980" y="-27"/>
      <point x="1042" y="152"/>
      <point x="1030" y="266" type="curve"/>
      <point x="975" y="266" type="line"/>
      <point x="974" y="150"/>
      <point x="932" y="53"/>
      <point x="798" y="53" type="curve" smooth="yes"/>
      <point x="712" y="53"/>
      <point x="628" y="87"/>
      <point x="563" y="162" type="curve"/>
      <point x="582" y="218"/>
      <point x="591" y="274"/>
      <point x="591" y="329" type="curve" smooth="yes"/>
      <point x="591" y="404"/>
      <point x="574" y="480"/>
      <point x="546" y="559" type="curve"/>
      <point x="899" y="559" type="line"/>
      <point x="899" y="615" type="line"/>
      <point x="526" y="615" type="line"/>
      <point x="465" y="732"/>
      <point x="403" y="822"/>
      <point x="403" y="946" type="curve" smooth="yes"/>
      <point x="403" y="1095"/>
      <point x="497" y="1172"/>
      <point x="666" y="1172" type="curve" smooth="yes"/>
      <point x="830" y="1172"/>
      <point x="892" y="1084"/>
      <point x="892" y="955" type="curve"/>
      <point x="975" y="955" type="line"/>
      <point x="975" y="1136"/>
      <point x="864" y="1245"/>
      <point x="659" y="1245" type="curve" smooth="yes"/>
      <point x="442" y="1245"/>
      <point x="309" y="1128"/>
      <point x="309" y="926" type="curve" smooth="yes"/>
      <point x="309" y="824"/>
      <point x="365" y="715"/>
      <point x="418" y="615" type="curve"/>
      <point x="203" y="615" type="line"/>
      <point x="203" y="559" type="line"/>
      <point x="447" y="559" type="line"/>
      <point x="484" y="476"/>
      <point x="509" y="390"/>
      <point x="509" y="302" type="curve" smooth="yes"/>
      <point x="509" y="272"/>
      <point x="505" y="241"/>
      <point x="499" y="211" type="curve"/>
      <point x="452" y="270"/>
      <point x="368" y="304"/>
      <point x="287" y="304" type="curve" smooth="yes"/>
      <point x="180" y="304"/>
      <point x="75" y="249"/>
      <point x="75" y="124" type="curve" smooth="yes"/>
      <point x="75" y="32"/>
      <point x="141" y="-43"/>
    </contour>
    <contour>
      <point x="280" y="16" type="curve" smooth="yes"/>
      <point x="213" y="16"/>
      <point x="149" y="49"/>
      <point x="149" y="124" type="curve" smooth="yes"/>
      <point x="149" y="208"/>
      <point x="218" y="242"/>
      <point x="291" y="242" type="curve" smooth="yes"/>
      <point x="360" y="242"/>
      <point x="434" y="210"/>
      <point x="480" y="156" type="curve"/>
      <point x="455" y="62"/>
      <point x="363" y="16"/>
    </contour>
  </outline>
</glyph>
<glyph name="currency" format="1">
  <advance width="1051"/>
  <unicode hex="00A4"/>
  <outline>
    <contour>
      <point x="218" y="452" type="line"/>
      <point x="308" y="547" type="line"/>
      <point x="370" y="505"/>
      <point x="452" y="480"/>
      <point x="525" y="480" type="curve" smooth="yes"/>
      <point x="601" y="480"/>
      <point x="683" y="506"/>
      <point x="747" y="548" type="curve"/>
      <point x="836" y="451" type="line"/>
      <point x="879" y="490" type="line"/>
      <point x="784" y="586" type="line"/>
      <point x="845" y="659"/>
      <point x="874" y="746"/>
      <point x="874" y="834" type="curve" smooth="yes"/>
      <point x="874" y="922"/>
      <point x="845" y="1009"/>
      <point x="784" y="1080" type="curve"/>
      <point x="879" y="1176" type="line"/>
      <point x="836" y="1215" type="line"/>
      <point x="747" y="1118" type="line"/>
      <point x="681" y="1160"/>
      <point x="599" y="1186"/>
      <point x="523" y="1186" type="curve" smooth="yes"/>
      <point x="450" y="1186"/>
      <point x="370" y="1161"/>
      <point x="308" y="1119" type="curve"/>
      <point x="218" y="1214" type="line"/>
      <point x="173" y="1176" type="line"/>
      <point x="266" y="1081" type="line"/>
      <point x="204" y="1012"/>
      <point x="173" y="921"/>
      <point x="173" y="831" type="curve" smooth="yes"/>
      <point x="173" y="741"/>
      <point x="204" y="652"/>
      <point x="266" y="585" type="curve"/>
      <point x="173" y="490" type="line"/>
    </contour>
    <contour>
      <point x="524" y="528" type="curve" smooth="yes"/>
      <point x="351" y="528"/>
      <point x="227" y="656"/>
      <point x="227" y="833" type="curve" smooth="yes"/>
      <point x="227" y="1010"/>
      <point x="351" y="1138"/>
      <point x="524" y="1138" type="curve" smooth="yes"/>
      <point x="698" y="1138"/>
      <point x="825" y="1012"/>
      <point x="825" y="833" type="curve" smooth="yes"/>
      <point x="825" y="654"/>
      <point x="698" y="528"/>
    </contour>
  </outline>
</glyph>
<glyph name="yen" format="1">
  <advance width="1248"/>
  <unicode hex="00A5"/>
  <outline>
    <contour>
      <point x="262" y="235" type="line"/>
      <point x="972" y="235" type="line"/>
      <point x="972" y="279" type="line"/>
      <point x="262" y="279" type="line"/>
    </contour>
    <contour>
      <point x="262" y="385" type="line"/>
      <point x="972" y="385" type="line"/>
      <point x="972" y="429" type="line"/>
      <point x="262" y="429" type="line"/>
    </contour>
    <component base="Y"/>
  </outline>
</glyph>
<glyph name="brokenbar" format="1">
  <advance width="416"/>
  <unicode hex="00A6"/>
  <outline>
    <contour>
      <point x="180" y="-53" type="line"/>
      <point x="238" y="-53" type="line"/>
      <point x="238" y="501" type="line"/>
      <point x="180" y="501" type="line"/>
    </contour>
    <contour>
      <point x="180" y="692" type="line"/>
      <point x="238" y="692" type="line"/>
      <point x="238" y="1246" type="line"/>
      <point x="180" y="1246" type="line"/>
    </contour>
  </outline>
</glyph>
<glyph name="section" format="1">
  <advance width="945"/>
  <unicode hex="00A7"/>
  <outline>
    <contour>
      <point x="491" y="-6" type="curve" smooth="yes"/>
      <point x="719" y="-6"/>
      <point x="815" y="102"/>
      <point x="815" y="214" type="curve" smooth="yes"/>
      <point x="815" y="283"/>
      <point x="778" y="343"/>
      <point x="715" y="380" type="curve"/>
      <point x="782" y="419"/>
      <point x="825" y="480"/>
      <point x="826" y="554" type="curve" smooth="yes"/>
      <point x="826" y="884"/>
      <point x="232" y="698"/>
      <point x="235" y="945" type="curve" smooth="yes"/>
      <point x="236" y="1035"/>
      <point x="348" y="1073"/>
      <point x="466" y="1073" type="curve" smooth="yes"/>
      <point x="559" y="1073"/>
      <point x="656" y="1042"/>
      <point x="705" y="980" type="curve"/>
      <point x="705" y="888" type="line"/>
      <point x="777" y="888" type="line"/>
      <point x="777" y="1128" type="line"/>
      <point x="705" y="1128" type="line"/>
      <point x="705" y="1063" type="line"/>
      <point x="643" y="1122"/>
      <point x="547" y="1147"/>
      <point x="447" y="1147" type="curve" smooth="yes"/>
      <point x="294" y="1147"/>
      <point x="146" y="1081"/>
      <point x="146" y="940" type="curve" smooth="yes"/>
      <point x="146" y="854"/>
      <point x="186" y="806"/>
      <point x="254" y="770" type="curve"/>
      <point x="188" y="734"/>
      <point x="142" y="675"/>
      <point x="142" y="591" type="curve" smooth="yes"/>
      <point x="142" y="284"/>
      <point x="732" y="457"/>
      <point x="730" y="210" type="curve" smooth="yes"/>
      <point x="730" y="137"/>
      <point x="647" y="68"/>
      <point x="493" y="68" type="curve" smooth="yes"/>
      <point x="378" y="68"/>
      <point x="254" y="105"/>
      <point x="213" y="182" type="curve"/>
      <point x="213" y="255" type="line"/>
      <point x="143" y="255" type="line"/>
      <point x="143" y="12" type="line"/>
      <point x="213" y="12" type="line"/>
      <point x="213" y="88" type="line"/>
      <point x="271" y="26"/>
      <point x="379" y="-6"/>
    </contour>
    <contour>
      <point x="655" y="413" type="curve"/>
      <point x="464" y="462"/>
      <point x="230" y="447"/>
      <point x="230" y="597" type="curve" smooth="yes"/>
      <point x="230" y="673"/>
      <point x="269" y="722"/>
      <point x="320" y="743" type="curve"/>
      <point x="475" y="693"/>
      <point x="740" y="712"/>
      <point x="740" y="548" type="curve" smooth="yes"/>
      <point x="740" y="488"/>
      <point x="710" y="438"/>
    </contour>
  </outline>
</glyph>
<glyph name="dieresis" format="1">
  <advance width="338"/>
  <unicode hex="00A8"/>
  <outline>
    <contour>
      <point x="179" y="805" type="move" name="_top"/>
    </contour>
    <contour>
      <point x="20" y="942" type="curve" smooth="yes"/>
      <point x="55" y="942"/>
      <point x="72" y="965"/>
      <point x="72" y="991" type="curve" smooth="yes"/>
      <point x="72" y="1018"/>
      <point x="55" y="1041"/>
      <point x="20" y="1041" type="curve" smooth="yes"/>
      <point x="-14" y="1041"/>
      <point x="-31" y="1018"/>
      <point x="-31" y="991" type="curve" smooth="yes"/>
      <point x="-31" y="965"/>
      <point x="-14" y="942"/>
    </contour>
    <contour>
      <point x="312" y="941" type="curve" smooth="yes"/>
      <point x="347" y="941"/>
      <point x="364" y="964"/>
      <point x="364" y="991" type="curve" smooth="yes"/>
      <point x="364" y="1018"/>
      <point x="347" y="1041"/>
      <point x="312" y="1041" type="curve" smooth="yes"/>
      <point x="278" y="1041"/>
      <point x="261" y="1018"/>
      <point x="261" y="991" type="curve" smooth="yes"/>
      <point x="261" y="964"/>
      <point x="278" y="941"/>
    </contour>
  </outline>
</glyph>
<glyph name="copyright" format="1">
  <advance width="1494"/>
  <unicode hex="00A9"/>
  <outline>
    <contour>
      <point x="745" y="215" type="curve" smooth="yes"/>
      <point x="851" y="215"/>
      <point x="962" y="256"/>
      <point x="1052" y="352" type="curve"/>
      <point x="1025" y="420" type="line"/>
      <point x="957" y="329"/>
      <point x="851" y="282"/>
      <point x="748" y="282" type="curve" smooth="yes"/>
      <point x="597" y="282"/>
      <point x="466" y="393"/>
      <point x="466" y="567" type="curve" smooth="yes"/>
      <point x="466" y="762"/>
      <point x="599" y="865"/>
      <point x="749" y="865" type="curve" smooth="yes"/>
      <point x="902" y="865"/>
      <point x="955" y="788"/>
      <point x="965" y="712" type="curve"/>
      <point x="1030" y="712" type="line"/>
      <point x="1030" y="933" type="line"/>
      <point x="956" y="933" type="line"/>
      <point x="957" y="853" type="line"/>
      <point x="927" y="897"/>
      <point x="849" y="930"/>
      <point x="746" y="930" type="curve" smooth="yes"/>
      <point x="524" y="926"/>
      <point x="385" y="776"/>
      <point x="385" y="569" type="curve" smooth="yes"/>
      <point x="385" y="358"/>
      <point x="552" y="218"/>
    </contour>
    <contour>
      <point x="747" y="8" type="curve" smooth="yes"/>
      <point x="374" y="8"/>
      <point x="188" y="284"/>
      <point x="188" y="581" type="curve" smooth="yes"/>
      <point x="188" y="868"/>
      <point x="379" y="1153"/>
      <point x="747" y="1153" type="curve" smooth="yes"/>
      <point x="1111" y="1153"/>
      <point x="1307" y="868"/>
      <point x="1307" y="581" type="curve" smooth="yes"/>
      <point x="1307" y="293"/>
      <point x="1113" y="8"/>
    </contour>
    <contour>
      <point x="747" y="-53" type="curve" smooth="yes"/>
      <point x="1167" y="-53"/>
      <point x="1384" y="258"/>
      <point x="1384" y="580" type="curve" smooth="yes"/>
      <point x="1384" y="904"/>
      <point x="1165" y="1217"/>
      <point x="747" y="1217" type="curve" smooth="yes"/>
      <point x="330" y="1217"/>
      <point x="110" y="904"/>
      <point x="110" y="580" type="curve" smooth="yes"/>
      <point x="110" y="258"/>
      <point x="329" y="-53"/>
    </contour>
  </outline>
</glyph>
<glyph name="ordfeminine" format="1">
  <advance width="779"/>
  <unicode hex="00AA"/>
  <outline>
    <contour>
      <point x="315" y="558" type="curve" smooth="yes"/>
      <point x="392" y="558"/>
      <point x="461" y="583"/>
      <point x="524" y="626" type="curve"/>
      <point x="532" y="568" type="line"/>
      <point x="705" y="568" type="line"/>
      <point x="705" y="631" type="line"/>
      <point x="599" y="631" type="line"/>
      <point x="599" y="984" type="line" smooth="yes"/>
      <point x="599" y="1071"/>
      <point x="552" y="1174"/>
      <point x="368" y="1174" type="curve" smooth="yes"/>
      <point x="273" y="1174"/>
      <point x="195" y="1153"/>
      <point x="139" y="1099" type="curve"/>
      <point x="179" y="1039" type="line"/>
      <point x="222" y="1085"/>
      <point x="285" y="1108"/>
      <point x="368" y="1108" type="curve" smooth="yes"/>
      <point x="463" y="1108"/>
      <point x="521" y="1073"/>
      <point x="521" y="973" type="curve" smooth="yes"/>
      <point x="521" y="897" type="line"/>
      <point x="469" y="907"/>
      <point x="417" y="914"/>
      <point x="365" y="914" type="curve" smooth="yes"/>
      <point x="237" y="914"/>
      <point x="110" y="893"/>
      <point x="110" y="734" type="curve" smooth="yes"/>
      <point x="110" y="640"/>
      <point x="180" y="558"/>
    </contour>
    <contour>
      <point x="323" y="625" type="curve" smooth="yes"/>
      <point x="224" y="625"/>
      <point x="188" y="682"/>
      <point x="188" y="734" type="curve" smooth="yes"/>
      <point x="188" y="842"/>
      <point x="276" y="849"/>
      <point x="375" y="849" type="curve" smooth="yes"/>
      <point x="429" y="849"/>
      <point x="497" y="839"/>
      <point x="521" y="834" type="curve"/>
      <point x="521" y="691" type="line"/>
      <point x="465" y="641"/>
      <point x="398" y="625"/>
    </contour>
  </outline>
</glyph>
<glyph name="guillemotleft" format="1">
  <advance width="763"/>
  <unicode hex="00AB"/>
  <outline>
    <contour>
      <point x="347" y="279" type="line"/>
      <point x="386" y="279" type="line"/>
      <point x="174" y="613" type="line"/>
      <point x="386" y="943" type="line"/>
      <point x="347" y="943" type="line"/>
      <point x="79" y="613" type="line"/>
    </contour>
    <contour>
      <point x="599" y="279" type="line"/>
      <point x="638" y="279" type="line"/>
      <point x="424" y="613" type="line"/>
      <point x="638" y="943" type="line"/>
      <point x="599" y="943" type="line"/>
      <point x="330" y="613" type="line"/>
    </contour>
  </outline>
</glyph>
<glyph name="logicalnot" format="1">
  <advance width="935"/>
  <unicode hex="00AC"/>
  <outline>
    <contour>
      <point x="765" y="304" type="line"/>
      <point x="847" y="304" type="line"/>
      <point x="847" y="703" type="line"/>
      <point x="84" y="703" type="line"/>
      <point x="84" y="630" type="line"/>
      <point x="765" y="630" type="line"/>
    </contour>
  </outline>
</glyph>
<glyph name="uni00AD" format="1">
  <advance width="842"/>
  <unicode hex="00AD"/>
  <outline>
    <contour>
      <point x="405" y="460" type="move" name="_mid"/>
    </contour>
    <contour>
      <point x="156" y="428" type="line"/>
      <point x="688" y="428" type="line"/>
      <point x="688" y="497" type="line"/>
      <point x="156" y="497" type="line"/>
    </contour>
  </outline>
</glyph>
<glyph name="registered" format="1">
  <advance width="1494"/>
  <unicode hex="00AE"/>
  <outline>
    <contour>
      <point x="435" y="227" type="line"/>
      <point x="687" y="227" type="line"/>
      <point x="687" y="286" type="line"/>
      <point x="593" y="286" type="line"/>
      <point x="593" y="554" type="line"/>
      <point x="744" y="554" type="line"/>
      <point x="936" y="227" type="line"/>
      <point x="1085" y="227" type="line"/>
      <point x="1085" y="286" type="line"/>
      <point x="986" y="286" type="line"/>
      <point x="823" y="555" type="line"/>
      <point x="949" y="565"/>
      <point x="1012" y="656"/>
      <point x="1012" y="751" type="curve" smooth="yes"/>
      <point x="1012" y="850"/>
      <point x="939" y="944"/>
      <point x="797" y="944" type="curve" smooth="yes"/>
      <point x="429" y="944" type="line"/>
      <point x="429" y="886" type="line"/>
      <point x="521" y="886" type="line"/>
      <point x="521" y="286" type="line"/>
      <point x="435" y="286" type="line"/>
    </contour>
    <contour>
      <point x="593" y="614" type="line"/>
      <point x="593" y="886" type="line"/>
      <point x="796" y="886" type="line" smooth="yes"/>
      <point x="893" y="886"/>
      <point x="944" y="819"/>
      <point x="944" y="748" type="curve" smooth="yes"/>
      <point x="944" y="678"/>
      <point x="891" y="614"/>
      <point x="797" y="614" type="curve" smooth="yes"/>
    </contour>
    <contour>
      <point x="747" y="7" type="curve" smooth="yes"/>
      <point x="374" y="7"/>
      <point x="188" y="283"/>
      <point x="188" y="579" type="curve" smooth="yes"/>
      <point x="188" y="866"/>
      <point x="379" y="1151"/>
      <point x="747" y="1151" type="curve" smooth="yes"/>
      <point x="1111" y="1151"/>
      <point x="1307" y="866"/>
      <point x="1307" y="579" type="curve" smooth="yes"/>
      <point x="1307" y="291"/>
      <point x="1113" y="7"/>
    </contour>
    <contour>
      <point x="747" y="-55" type="curve" smooth="yes"/>
      <point x="1167" y="-55"/>
      <point x="1384" y="256"/>
      <point x="1384" y="579" type="curve" smooth="yes"/>
      <point x="1384" y="902"/>
      <point x="1165" y="1215"/>
      <point x="747" y="1215" type="curve" smooth="yes"/>
      <point x="330" y="1215"/>
      <point x="110" y="902"/>
      <point x="110" y="579" type="curve" smooth="yes"/>
      <point x="110" y="256"/>
      <point x="329" y="-55"/>
    </contour>
  </outline>
</glyph>
<glyph name="macron" format="1">
  <advance width="359"/>
  <unicode hex="00AF"/>
  <outline>
    <contour>
      <point x="182" y="805" type="move" name="_top"/>
    </contour>
    <contour>
      <point x="181" y="977" type="move" name="_mid"/>
    </contour>
    <contour>
      <point x="-10" y="954" type="line"/>
      <point x="371" y="954" type="line"/>
      <point x="371" y="997" type="line"/>
      <point x="-10" y="997" type="line"/>
    </contour>
  </outline>
</glyph>
<glyph name="degree" format="1">
  <advance width="821"/>
  <unicode hex="00B0"/>
  <outline>
    <contour>
      <point x="411" y="714" type="curve" smooth="yes"/>
      <point x="555" y="714"/>
      <point x="664" y="815"/>
      <point x="664" y="949" type="curve" smooth="yes"/>
      <point x="664" y="1083"/>
      <point x="555" y="1184"/>
      <point x="411" y="1184" type="curve" smooth="yes"/>
      <point x="267" y="1184"/>
      <point x="158" y="1083"/>
      <point x="158" y="949" type="curve" smooth="yes"/>
      <point x="158" y="815"/>
      <point x="267" y="714"/>
    </contour>
    <contour>
      <point x="411" y="775" type="curve" smooth="yes"/>
      <point x="307" y="775"/>
      <point x="230" y="849"/>
      <point x="230" y="949" type="curve" smooth="yes"/>
      <point x="229" y="1049"/>
      <point x="307" y="1124"/>
      <point x="411" y="1124" type="curve" smooth="yes"/>
      <point x="515" y="1124"/>
      <point x="592" y="1049"/>
      <point x="592" y="949" type="curve" smooth="yes"/>
      <point x="592" y="849"/>
      <point x="515" y="775"/>
    </contour>
  </outline>
</glyph>
<glyph name="plusminus" format="1">
  <advance width="913"/>
  <unicode hex="00B1"/>
  <outline>
    <contour>
      <point x="423" y="160" type="line"/>
      <point x="492" y="160" type="line"/>
      <point x="492" y="551" type="line"/>
      <point x="851" y="551" type="line"/>
      <point x="851" y="622" type="line"/>
      <point x="492" y="622" type="line"/>
      <point x="492" y="1003" type="line"/>
      <point x="423" y="1003" type="line"/>
      <point x="423" y="622" type="line"/>
      <point x="64" y="622" type="line"/>
      <point x="64" y="551" type="line"/>
      <point x="423" y="551" type="line"/>
    </contour>
    <contour>
      <point x="62" y="0" type="line"/>
      <point x="849" y="0" type="line"/>
      <point x="849" y="69" type="line"/>
      <point x="62" y="69" type="line"/>
    </contour>
  </outline>
</glyph>
<glyph name="twosuperior" format="1">
  <advance width="898"/>
  <unicode hex="00B2"/>
  <outline>
    <contour>
      <point x="208" y="406" type="line"/>
      <point x="708" y="406" type="line"/>
      <point x="708" y="586" type="line"/>
      <point x="658" y="586" type="line"/>
      <point x="658" y="455" type="line"/>
      <point x="280" y="455" type="line"/>
      <point x="552" y="750" type="line" smooth="yes"/>
      <point x="641" y="846"/>
      <point x="707" y="923"/>
      <point x="707" y="1036" type="curve" smooth="yes"/>
      <point x="707" y="1177"/>
      <point x="607" y="1261"/>
      <point x="459" y="1261" type="curve" smooth="yes"/>
      <point x="308" y="1261"/>
      <point x="207" y="1172"/>
      <point x="207" y="1020" type="curve" smooth="yes"/>
      <point x="207" y="993"/>
      <point x="211" y="962"/>
      <point x="218" y="930" type="curve"/>
      <point x="276" y="930" type="line"/>
      <point x="269" y="960"/>
      <point x="264" y="992"/>
      <point x="264" y="1021" type="curve" smooth="yes"/>
      <point x="264" y="1139"/>
      <point x="338" y="1213"/>
      <point x="458" y="1213" type="curve" smooth="yes"/>
      <point x="579" y="1213"/>
      <point x="651" y="1151"/>
      <point x="651" y="1034" type="curve" smooth="yes"/>
      <point x="651" y="943"/>
      <point x="603" y="885"/>
      <point x="517" y="791" type="curve" smooth="yes"/>
      <point x="208" y="455" type="line"/>
    </contour>
  </outline>
</glyph>
<glyph name="threesuperior" format="1">
  <advance width="822"/>
  <unicode hex="00B3"/>
  <outline>
    <contour>
      <point x="413" y="443" type="curve" smooth="yes"/>
      <point x="597" y="443"/>
      <point x="712" y="543"/>
      <point x="712" y="703" type="curve" smooth="yes"/>
      <point x="712" y="811"/>
      <point x="648" y="891"/>
      <point x="545" y="916" type="curve"/>
      <point x="637" y="942"/>
      <point x="695" y="1012"/>
      <point x="695" y="1101" type="curve" smooth="yes"/>
      <point x="695" y="1244"/>
      <point x="588" y="1335"/>
      <point x="421" y="1335" type="curve" smooth="yes"/>
      <point x="297" y="1335"/>
      <point x="190" y="1276"/>
      <point x="143" y="1181" type="curve"/>
      <point x="206" y="1148" type="line"/>
      <point x="241" y="1222"/>
      <point x="324" y="1268"/>
      <point x="422" y="1268" type="curve" smooth="yes"/>
      <point x="541" y="1268"/>
      <point x="617" y="1202"/>
      <point x="617" y="1101" type="curve" smooth="yes"/>
      <point x="617" y="1004"/>
      <point x="534" y="944"/>
      <point x="391" y="943" type="curve" smooth="yes"/>
      <point x="390" y="943"/>
      <point x="328" y="943"/>
      <point x="327" y="943" type="curve"/>
      <point x="327" y="876" type="line"/>
      <point x="328" y="876"/>
      <point x="400" y="876"/>
      <point x="401" y="876" type="curve" smooth="yes"/>
      <point x="542" y="875"/>
      <point x="626" y="810"/>
      <point x="627" y="701" type="curve" smooth="yes"/>
      <point x="627" y="584"/>
      <point x="545" y="510"/>
      <point x="414" y="510" type="curve" smooth="yes"/>
      <point x="320" y="510"/>
      <point x="236" y="565"/>
      <point x="193" y="654" type="curve"/>
      <point x="128" y="615" type="line"/>
      <point x="178" y="509"/>
      <point x="288" y="443"/>
    </contour>
  </outline>
</glyph>
<glyph name="acute" format="1">
  <advance width="239"/>
  <unicode hex="00B4"/>
  <outline>
    <contour>
      <point x="120" y="804" type="move" name="_top"/>
    </contour>
    <contour>
      <point x="28" y="904" type="line"/>
      <point x="70" y="904" type="line"/>
      <point x="228" y="1154" type="line"/>
      <point x="92" y="1154" type="line"/>
    </contour>
  </outline>
</glyph>
<glyph name="uni00B5" format="1">
  <advance width="1018"/>
  <unicode hex="00B5"/>
  <outline>
    <contour>
      <point x="193" y="-207" type="line"/>
      <point x="254" y="-207" type="line"/>
      <point x="253" y="364" type="line"/>
      <point x="193" y="364" type="line"/>
    </contour>
    <component base="u"/>
  </outline>
</glyph>
<glyph name="paragraph" format="1">
  <advance width="991"/>
  <unicode hex="00B6"/>
  <outline>
    <contour>
      <point x="507" y="-18" type="line"/>
      <point x="892" y="-18" type="line"/>
      <point x="892" y="48" type="line"/>
      <point x="758" y="48" type="line"/>
      <point x="758" y="1084" type="line"/>
      <point x="911" y="1084" type="line"/>
      <point x="911" y="1152" type="line"/>
      <point x="428" y="1152" type="line" smooth="yes"/>
      <point x="215" y="1152"/>
      <point x="103" y="1021"/>
      <point x="103" y="879" type="curve" smooth="yes"/>
      <point x="103" y="734"/>
      <point x="215" y="595"/>
      <point x="426" y="594" type="curve"/>
      <point x="674" y="594" type="line"/>
      <point x="674" y="48" type="line"/>
      <point x="507" y="48" type="line"/>
    </contour>
    <contour>
      <point x="488" y="670" type="line"/>
      <point x="488" y="1084" type="line"/>
      <point x="674" y="1084" type="line"/>
      <point x="674" y="670" type="line"/>
    </contour>
  </outline>
</glyph>
<glyph name="periodcentered" format="1">
  <advance width="439"/>
  <unicode hex="00B7"/>
  <outline>
    <contour>
      <point x="-9" y="733" type="move" name="_mid"/>
    </contour>
    <contour>
      <point x="155" y="664" type="line"/>
      <point x="286" y="664" type="line"/>
      <point x="286" y="795" type="line"/>
      <point x="155" y="795" type="line"/>
    </contour>
  </outline>
</glyph>
<glyph name="cedilla" format="1">
  <advance width="407"/>
  <unicode hex="00B8"/>
  <outline>
    <contour>
      <point x="203" y="0" type="move" name="_bot"/>
    </contour>
    <contour>
      <point x="204" y="-290" type="curve" smooth="yes"/>
      <point x="285" y="-290"/>
      <point x="324" y="-248"/>
      <point x="324" y="-206" type="curve" smooth="yes"/>
      <point x="324" y="-160"/>
      <point x="282" y="-114"/>
      <point x="201" y="-111" type="curve" smooth="yes"/>
      <point x="200" y="-111"/>
      <point x="189" y="-111"/>
      <point x="189" y="-111" type="curve"/>
      <point x="226" y="6" type="line"/>
      <point x="174" y="6" type="line"/>
      <point x="116" y="-145" type="line"/>
      <point x="131" y="-146"/>
      <point x="144" y="-148"/>
      <point x="157" y="-151" type="curve" smooth="yes"/>
      <point x="195" y="-160"/>
      <point x="219" y="-177"/>
      <point x="219" y="-198" type="curve" smooth="yes"/>
      <point x="219" y="-224"/>
      <point x="194" y="-235"/>
      <point x="164" y="-235" type="curve" smooth="yes"/>
      <point x="134" y="-235"/>
      <point x="95" y="-225"/>
      <point x="79" y="-220" type="curve"/>
      <point x="79" y="-267" type="line"/>
      <point x="111" y="-280"/>
      <point x="158" y="-290"/>
    </contour>
  </outline>
</glyph>
<glyph name="onesuperior" format="1">
  <advance width="557"/>
  <unicode hex="00B9"/>
  <outline>
    <contour>
      <point x="138" y="455" type="line"/>
      <point x="459" y="455" type="line"/>
      <point x="459" y="521" type="line"/>
      <point x="341" y="521" type="line"/>
      <point x="341" y="1324" type="line"/>
      <point x="136" y="1287" type="line"/>
      <point x="153" y="1216" type="line"/>
      <point x="259" y="1236" type="line"/>
      <point x="259" y="521" type="line"/>
      <point x="138" y="521" type="line"/>
    </contour>
  </outline>
</glyph>
<glyph name="ordmasculine" format="1">
  <advance width="797"/>
  <unicode hex="00BA"/>
  <outline>
    <contour>
      <point x="398" y="615" type="curve" smooth="yes"/>
      <point x="273" y="615"/>
      <point x="162" y="701"/>
      <point x="162" y="862" type="curve" smooth="yes"/>
      <point x="162" y="1021"/>
      <point x="273" y="1107"/>
      <point x="398" y="1107" type="curve" smooth="yes"/>
      <point x="522" y="1107"/>
      <point x="634" y="1021"/>
      <point x="634" y="862" type="curve" smooth="yes"/>
      <point x="634" y="701"/>
      <point x="522" y="615"/>
    </contour>
    <contour>
      <point x="398" y="548" type="curve" smooth="yes"/>
      <point x="562" y="548"/>
      <point x="713" y="658"/>
      <point x="713" y="862" type="curve" smooth="yes"/>
      <point x="713" y="1066"/>
      <point x="562" y="1174"/>
      <point x="398" y="1174" type="curve" smooth="yes"/>
      <point x="232" y="1174"/>
      <point x="84" y="1064"/>
      <point x="84" y="862" type="curve" smooth="yes"/>
      <point x="84" y="658"/>
      <point x="232" y="548"/>
    </contour>
  </outline>
</glyph>
<glyph name="guillemotright" format="1">
  <advance width="811"/>
  <unicode hex="00BB"/>
  <outline>
    <contour>
      <point x="134" y="266" type="line"/>
      <point x="189" y="266" type="line"/>
      <point x="466" y="650" type="line"/>
      <point x="189" y="1030" type="line"/>
      <point x="134" y="1030" type="line"/>
      <point x="345" y="650" type="line"/>
    </contour>
    <contour>
      <point x="411" y="266" type="line"/>
      <point x="466" y="266" type="line"/>
      <point x="744" y="650" type="line"/>
      <point x="466" y="1030" type="line"/>
      <point x="411" y="1030" type="line"/>
      <point x="624" y="650" type="line"/>
    </contour>
  </outline>
</glyph>
<glyph name="onequarter" format="1">
  <advance width="1452"/>
  <unicode hex="00BC"/>
  <outline>
    <contour>
      <point x="1124" y="0" type="line"/>
      <point x="1404" y="0" type="line"/>
      <point x="1404" y="46" type="line"/>
      <point x="1292" y="46" type="line"/>
      <point x="1292" y="258" type="line"/>
      <point x="1412" y="258" type="line"/>
      <point x="1412" y="303" type="line"/>
      <point x="1292" y="303" type="line"/>
      <point x="1292" y="804" type="line"/>
      <point x="1227" y="804" type="line"/>
      <point x="879" y="296" type="line"/>
      <point x="888" y="258" type="line"/>
      <point x="1236" y="258" type="line"/>
      <point x="1236" y="46" type="line"/>
      <point x="1124" y="46" type="line"/>
    </contour>
    <contour>
      <point x="95" y="348" type="line"/>
      <point x="395" y="348" type="line"/>
      <point x="395" y="392" type="line"/>
      <point x="273" y="392" type="line"/>
      <point x="273" y="1152" type="line"/>
      <point x="95" y="1152" type="line"/>
      <point x="96" y="1108" type="line"/>
      <point x="216" y="1108" type="line"/>
      <point x="216" y="392" type="line"/>
      <point x="95" y="392" type="line"/>
    </contour>
    <contour>
      <point x="342" y="0" type="line"/>
      <point x="401" y="0" type="line"/>
      <point x="1167" y="1152" type="line"/>
      <point x="1110" y="1152" type="line"/>
    </contour>
    <contour>
      <point x="940" y="303" type="line"/>
      <point x="1236" y="738" type="line"/>
      <point x="1236" y="303" type="line"/>
    </contour>
  </outline>
</glyph>
<glyph name="onehalf" format="1">
  <advance width="1584"/>
  <unicode hex="00BD"/>
  <outline>
    <contour>
      <point x="1071" y="0" type="line"/>
      <point x="1544" y="0" type="line"/>
      <point x="1544" y="62" type="line"/>
      <point x="1158" y="62" type="line"/>
      <point x="1429" y="366" type="line" smooth="yes"/>
      <point x="1508" y="454"/>
      <point x="1542" y="540"/>
      <point x="1542" y="615" type="curve" smooth="yes"/>
      <point x="1542" y="771"/>
      <point x="1410" y="824"/>
      <point x="1307" y="824" type="curve" smooth="yes"/>
      <point x="1174" y="824"/>
      <point x="1078" y="741"/>
      <point x="1078" y="600" type="curve" smooth="yes"/>
      <point x="1078" y="584"/>
      <point x="1081" y="541"/>
      <point x="1092" y="503" type="curve"/>
      <point x="1157" y="503" type="line"/>
      <point x="1147" y="539"/>
      <point x="1144" y="570"/>
      <point x="1144" y="598" type="curve" smooth="yes"/>
      <point x="1144" y="722"/>
      <point x="1227" y="763"/>
      <point x="1314" y="763" type="curve" smooth="yes"/>
      <point x="1397" y="763"/>
      <point x="1472" y="717"/>
      <point x="1472" y="613" type="curve" smooth="yes"/>
      <point x="1472" y="550"/>
      <point x="1443" y="476"/>
      <point x="1378" y="405" type="curve" smooth="yes"/>
      <point x="1071" y="60" type="line"/>
    </contour>
    <contour>
      <point x="107" y="348" type="line"/>
      <point x="423" y="348" type="line"/>
      <point x="423" y="405" type="line"/>
      <point x="302" y="405" type="line"/>
      <point x="302" y="1152" type="line"/>
      <point x="106" y="1152" type="line"/>
      <point x="107" y="1094" type="line"/>
      <point x="228" y="1094" type="line"/>
      <point x="228" y="405" type="line"/>
      <point x="107" y="405" type="line"/>
    </contour>
    <contour>
      <point x="347" y="0" type="line"/>
      <point x="420" y="0" type="line"/>
      <point x="1194" y="1152" type="line"/>
      <point x="1124" y="1152" type="line"/>
    </contour>
  </outline>
</glyph>
<glyph name="threequarters" format="1">
  <advance width="1618"/>
  <unicode hex="00BE"/>
  <outline>
    <contour>
      <point x="342" y="346" type="curve" smooth="yes"/>
      <point x="510" y="346"/>
      <point x="617" y="436"/>
      <point x="617" y="581" type="curve" smooth="yes"/>
      <point x="617" y="695"/>
      <point x="546" y="771"/>
      <point x="429" y="783" type="curve"/>
      <point x="537" y="794"/>
      <point x="601" y="870"/>
      <point x="601" y="958" type="curve"/>
      <point x="600" y="1098"/>
      <point x="503" y="1174"/>
      <point x="348" y="1174" type="curve" smooth="yes"/>
      <point x="230" y="1174"/>
      <point x="134" y="1119"/>
      <point x="91" y="1031" type="curve"/>
      <point x="155" y="1002" type="line"/>
      <point x="187" y="1068"/>
      <point x="260" y="1108"/>
      <point x="347" y="1108" type="curve" smooth="yes"/>
      <point x="457" y="1108"/>
      <point x="525" y="1057"/>
      <point x="525" y="957" type="curve" smooth="yes"/>
      <point x="525" y="872"/>
      <point x="448" y="810"/>
      <point x="316" y="809" type="curve" smooth="yes"/>
      <point x="315" y="809"/>
      <point x="261" y="809"/>
      <point x="260" y="809" type="curve"/>
      <point x="260" y="754" type="line"/>
      <point x="261" y="754"/>
      <point x="317" y="754"/>
      <point x="318" y="754" type="curve" smooth="yes"/>
      <point x="460" y="754"/>
      <point x="542" y="687"/>
      <point x="542" y="577" type="curve" smooth="yes"/>
      <point x="542" y="472"/>
      <point x="466" y="406"/>
      <point x="343" y="406" type="curve" smooth="yes"/>
      <point x="250" y="406"/>
      <point x="171" y="457"/>
      <point x="132" y="541" type="curve"/>
      <point x="79" y="507" type="line"/>
      <point x="124" y="407"/>
      <point x="223" y="346"/>
    </contour>
    <contour>
      <point x="1255" y="0" type="line"/>
      <point x="1555" y="0" type="line"/>
      <point x="1555" y="60" type="line"/>
      <point x="1442" y="60" type="line"/>
      <point x="1442" y="259" type="line"/>
      <point x="1566" y="259" type="line"/>
      <point x="1566" y="316" type="line"/>
      <point x="1442" y="316" type="line"/>
      <point x="1442" y="804" type="line"/>
      <point x="1355" y="804" type="line"/>
      <point x="1016" y="310" type="line"/>
      <point x="1024" y="259" type="line"/>
      <point x="1371" y="259" type="line"/>
      <point x="1371" y="60" type="line"/>
      <point x="1255" y="60" type="line"/>
    </contour>
    <contour>
      <point x="480" y="0" type="line"/>
      <point x="553" y="0" type="line"/>
      <point x="1327" y="1152" type="line"/>
      <point x="1257" y="1152" type="line"/>
    </contour>
    <contour>
      <point x="1090" y="316" type="line"/>
      <point x="1371" y="729" type="line"/>
      <point x="1371" y="316" type="line"/>
    </contour>
  </outline>
</glyph>
<glyph name="AE" format="1">
  <advance width="1913"/>
  <unicode hex="00C6"/>
  <outline>
    <contour>
      <point x="49" y="0" type="line"/>
      <point x="427" y="0" type="line"/>
      <point x="434" y="49" type="line"/>
      <point x="281" y="49" type="line"/>
      <point x="505" y="463" type="line"/>
      <point x="974" y="463" type="line"/>
      <point x="1079" y="49" type="line"/>
      <point x="922" y="49" type="line"/>
      <point x="915" y="0" type="line"/>
      <point x="1803" y="0" type="line"/>
      <point x="1766" y="370" type="line"/>
      <point x="1706" y="370" type="line"/>
      <point x="1736" y="53" type="line"/>
      <point x="1144" y="53" type="line"/>
      <point x="1015" y="550" type="line"/>
      <point x="1445" y="550" type="line"/>
      <point x="1462" y="375" type="line"/>
      <point x="1516" y="375" type="line"/>
      <point x="1476" y="766" type="line"/>
      <point x="1421" y="766" type="line"/>
      <point x="1437" y="604" type="line"/>
      <point x="1004" y="604" type="line"/>
      <point x="880" y="1099" type="line"/>
      <point x="1607" y="1099" type="line"/>
      <point x="1637" y="785" type="line"/>
      <point x="1697" y="785" type="line"/>
      <point x="1659" y="1152" type="line"/>
      <point x="625" y="1152" type="line"/>
      <point x="618" y="1102" type="line"/>
      <point x="770" y="1102" type="line"/>
      <point x="212" y="49" type="line"/>
      <point x="56" y="49" type="line"/>
    </contour>
    <contour>
      <point x="528" y="510" type="line"/>
      <point x="818" y="1093" type="line"/>
      <point x="824" y="1093" type="line"/>
      <point x="964" y="510" type="line"/>
    </contour>
  </outline>
</glyph>
<glyph name="multiply" format="1">
  <advance width="686"/>
  <unicode hex="00D7"/>
  <outline>
    <contour>
      <point x="548" y="308" type="line"/>
      <point x="597" y="356" type="line"/>
      <point x="394" y="561" type="line"/>
      <point x="597" y="766" type="line"/>
      <point x="548" y="816" type="line"/>
      <point x="344" y="611" type="line"/>
      <point x="140" y="814" type="line"/>
      <point x="91" y="765" type="line"/>
      <point x="295" y="561" type="line"/>
      <point x="91" y="357" type="line"/>
      <point x="140" y="309" type="line"/>
      <point x="344" y="512" type="line"/>
    </contour>
  </outline>
</glyph>
<glyph name="Oslash" format="1">
  <advance width="1503"/>
  <unicode hex="00D8"/>
  <outline>
    <contour>
      <point x="751" y="1152" type="move" name="top"/>
    </contour>
    <contour>
      <point x="265" y="-74" type="line"/>
      <point x="1240" y="1174" type="line"/>
      <point x="1201" y="1202" type="line"/>
      <point x="225" y="-43" type="line"/>
    </contour>
    <component base="O"/>
  </outline>
</glyph>
<glyph name="Thorn" format="1">
  <advance width="1118"/>
  <unicode hex="00DE"/>
  <outline>
    <contour>
      <point x="99" y="0" type="line"/>
      <point x="511" y="0" type="line"/>
      <point x="511" y="69" type="line"/>
      <point x="343" y="69" type="line"/>
      <point x="343" y="297" type="line"/>
      <point x="677" y="297" type="line" smooth="yes"/>
      <point x="907" y="297"/>
      <point x="1031" y="448"/>
      <point x="1031" y="619" type="curve" smooth="yes"/>
      <point x="1031" y="781"/>
      <point x="915" y="926"/>
      <point x="686" y="925" type="curve" smooth="yes"/>
      <point x="343" y="925" type="line"/>
      <point x="343" y="1083" type="line"/>
      <point x="498" y="1083" type="line"/>
      <point x="498" y="1152" type="line"/>
      <point x="101" y="1152" type="line"/>
      <point x="101" y="1083" type="line"/>
      <point x="252" y="1083" type="line"/>
      <point x="252" y="69" type="line"/>
      <point x="99" y="69" type="line"/>
    </contour>
    <contour>
      <point x="343" y="369" type="line"/>
      <point x="343" y="854" type="line"/>
      <point x="687" y="854" type="line" smooth="yes"/>
      <point x="859" y="854"/>
      <point x="942" y="743"/>
      <point x="942" y="618" type="curve" smooth="yes"/>
      <point x="941" y="489"/>
      <point x="851" y="369"/>
      <point x="681" y="369" type="curve" smooth="yes"/>
    </contour>
  </outline>
</glyph>
<glyph name="germandbls" format="1">
  <advance width="1167"/>
  <unicode hex="00DF"/>
  <outline>
    <contour>
      <point x="96" y="0" type="line"/>
      <point x="455" y="0" type="line"/>
      <point x="455" y="69" type="line"/>
      <point x="329" y="69" type="line"/>
      <point x="329" y="848" type="line" smooth="yes"/>
      <point x="329" y="1042"/>
      <point x="428" y="1164"/>
      <point x="592" y="1164" type="curve" smooth="yes"/>
      <point x="749" y="1164"/>
      <point x="849" y="1080"/>
      <point x="849" y="945" type="curve" smooth="yes"/>
      <point x="849" y="791"/>
      <point x="749" y="691"/>
      <point x="591" y="684" type="curve"/>
      <point x="591" y="632" type="line"/>
      <point x="830" y="632"/>
      <point x="980" y="519"/>
      <point x="980" y="338" type="curve" smooth="yes"/>
      <point x="980" y="173"/>
      <point x="829" y="69"/>
      <point x="589" y="69" type="curve"/>
      <point x="589" y="0" type="line"/>
      <point x="876" y="0"/>
      <point x="1059" y="124"/>
      <point x="1065" y="321" type="curve" smooth="yes"/>
      <point x="1075" y="524"/>
      <point x="942" y="660"/>
      <point x="722" y="672" type="curve"/>
      <point x="854" y="700"/>
      <point x="936" y="807"/>
      <point x="936" y="949" type="curve" smooth="yes"/>
      <point x="935" y="1130"/>
      <point x="802" y="1238"/>
      <point x="588" y="1238" type="curve" smooth="yes"/>
      <point x="373" y="1238"/>
      <point x="248" y="1089"/>
      <point x="248" y="843" type="curve" smooth="yes"/>
      <point x="248" y="69" type="line"/>
      <point x="96" y="69" type="line"/>
    </contour>
  </outline>
</glyph>
<glyph name="ae" format="1">
  <advance width="1610"/>
  <unicode hex="00E6"/>
  <outline>
    <contour>
      <point x="805" y="804" type="move" name="top"/>
    </contour>
    <contour>
      <point x="415" y="-15" type="curve" smooth="yes"/>
      <point x="533" y="-15"/>
      <point x="679" y="2"/>
      <point x="803" y="114" type="curve"/>
      <point x="881" y="24"/>
      <point x="991" y="-15"/>
      <point x="1122" y="-15" type="curve" smooth="yes"/>
      <point x="1247" y="-15"/>
      <point x="1375" y="35"/>
      <point x="1486" y="148" type="curve"/>
      <point x="1448" y="207" type="line"/>
      <point x="1362" y="111"/>
      <point x="1247" y="59"/>
      <point x="1125" y="59" type="curve" smooth="yes"/>
      <point x="973" y="59"/>
      <point x="881" y="111"/>
      <point x="838" y="217" type="curve" smooth="yes"/>
      <point x="818" y="265"/>
      <point x="808" y="325"/>
      <point x="808" y="396" type="curve"/>
      <point x="1489" y="396" type="line"/>
      <point x="1489" y="647"/>
      <point x="1357" y="851"/>
      <point x="1138" y="851" type="curve" smooth="yes"/>
      <point x="978" y="851"/>
      <point x="859" y="769"/>
      <point x="790" y="641" type="curve"/>
      <point x="765" y="749"/>
      <point x="681" y="851"/>
      <point x="487" y="851" type="curve" smooth="yes"/>
      <point x="356" y="851"/>
      <point x="245" y="821"/>
      <point x="170" y="752" type="curve"/>
      <point x="208" y="688" type="line"/>
      <point x="269" y="747"/>
      <point x="366" y="777"/>
      <point x="484" y="777" type="curve" smooth="yes"/>
      <point x="630" y="777"/>
      <point x="716" y="726"/>
      <point x="717" y="565" type="curve" smooth="yes"/>
      <point x="717" y="563"/>
      <point x="722" y="448"/>
      <point x="722" y="447" type="curve"/>
      <point x="643" y="462"/>
      <point x="566" y="474"/>
      <point x="491" y="474" type="curve" smooth="yes"/>
      <point x="306" y="474"/>
      <point x="130" y="444"/>
      <point x="130" y="231" type="curve" smooth="yes"/>
      <point x="130" y="98"/>
      <point x="227" y="-15"/>
    </contour>
    <contour>
      <point x="424" y="58" type="curve" smooth="yes"/>
      <point x="273" y="58"/>
      <point x="218" y="148"/>
      <point x="218" y="229" type="curve" smooth="yes"/>
      <point x="218" y="399"/>
      <point x="369" y="405"/>
      <point x="489" y="405" type="curve" smooth="yes"/>
      <point x="596" y="405"/>
      <point x="715" y="381"/>
      <point x="722" y="381" type="curve"/>
      <point x="722" y="330"/>
      <point x="746" y="221"/>
      <point x="772" y="168" type="curve"/>
      <point x="641" y="65"/>
      <point x="551" y="58"/>
    </contour>
    <contour>
      <point x="810" y="466" type="line"/>
      <point x="820" y="620"/>
      <point x="930" y="776"/>
      <point x="1137" y="776" type="curve" smooth="yes"/>
      <point x="1299" y="776"/>
      <point x="1389" y="628"/>
      <point x="1403" y="466" type="curve"/>
    </contour>
  </outline>
</glyph>
<glyph name="eth" format="1">
  <advance width="904"/>
  <unicode hex="00F0"/>
  <outline>
    <contour>
      <point x="443" y="-23" type="curve" smooth="yes"/>
      <point x="650" y="-23"/>
      <point x="829" y="125"/>
      <point x="829" y="393" type="curve" smooth="yes"/>
      <point x="829" y="785"/>
      <point x="411" y="1134"/>
      <point x="151" y="1352" type="curve"/>
      <point x="114" y="1313" type="line"/>
      <point x="313" y="1150"/>
      <point x="559" y="958"/>
      <point x="689" y="692" type="curve"/>
      <point x="614" y="764"/>
      <point x="508" y="802"/>
      <point x="430" y="802" type="curve" smooth="yes"/>
      <point x="219" y="802"/>
      <point x="46" y="631"/>
      <point x="46" y="428" type="curve" smooth="yes"/>
      <point x="46" y="201"/>
      <point x="176" y="-23"/>
    </contour>
    <contour>
      <point x="443" y="31" type="curve" smooth="yes"/>
      <point x="213" y="31"/>
      <point x="109" y="224"/>
      <point x="109" y="408" type="curve" smooth="yes"/>
      <point x="109" y="641"/>
      <point x="278" y="751"/>
      <point x="438" y="751" type="curve" smooth="yes"/>
      <point x="600" y="751"/>
      <point x="770" y="640"/>
      <point x="770" y="400" type="curve" smooth="yes"/>
      <point x="770" y="218"/>
      <point x="672" y="31"/>
    </contour>
    <contour>
      <point x="169" y="913" type="line"/>
      <point x="729" y="1154" type="line"/>
      <point x="704" y="1195" type="line"/>
      <point x="144" y="956" type="line"/>
    </contour>
  </outline>
</glyph>
<glyph name="divide" format="1">
  <advance width="718"/>
  <unicode hex="00F7"/>
  <outline>
    <contour>
      <point x="300" y="239" type="line"/>
      <point x="421" y="239" type="line"/>
      <point x="421" y="363" type="line"/>
      <point x="300" y="363" type="line"/>
    </contour>
    <contour>
      <point x="48" y="508" type="line"/>
      <point x="670" y="508" type="line"/>
      <point x="670" y="577" type="line"/>
      <point x="48" y="577" type="line"/>
    </contour>
    <contour>
      <point x="300" y="716" type="line"/>
      <point x="421" y="716" type="line"/>
      <point x="421" y="840" type="line"/>
      <point x="300" y="840" type="line"/>
    </contour>
  </outline>
</glyph>
<glyph name="oslash" format="1">
  <advance width="1020"/>
  <unicode hex="00F8"/>
  <outline>
    <contour>
      <point x="195" y="-182" type="line"/>
      <point x="869" y="964" type="line"/>
      <point x="838" y="985" type="line"/>
      <point x="164" y="-161" type="line"/>
    </contour>
    <component base="o"/>
  </outline>
</glyph>
<glyph name="thorn" format="1">
  <advance width="1048"/>
  <unicode hex="00FE"/>
  <outline>
    <contour>
      <point x="12" y="-353" type="line"/>
      <point x="259" y="-353" type="line"/>
      <point x="262" y="1152" type="line"/>
      <point x="26" y="1152" type="line"/>
      <point x="26" y="1085" type="line"/>
      <point x="174" y="1085" type="line"/>
      <point x="174" y="-285" type="line"/>
      <point x="12" y="-285" type="line"/>
    </contour>
    <component base="lc_bowl_right" xOffset="-46" yOffset="21"/>
  </outline>
</glyph>
<glyph name="dotlessi" format="1">
  <advance width="543"/>
  <unicode hex="0131"/>
  <outline>
    <contour>
      <point x="305" y="805" type="move" name="top"/>
    </contour>
    <contour>
      <point x="103" y="0" type="line"/>
      <point x="519" y="0" type="line"/>
      <point x="519" y="65" type="line"/>
      <point x="357" y="65" type="line"/>
      <point x="357" y="804" type="line"/>
      <point x="104" y="804" type="line"/>
      <point x="104" y="742" type="line"/>
      <point x="272" y="742" type="line"/>
      <point x="272" y="65" type="line"/>
      <point x="103" y="65" type="line"/>
    </contour>
  </outline>
</glyph>
<glyph name="kgreenlandic" format="1">
  <advance width="1070"/>
  <unicode hex="0138"/>
  <outline>
    <contour>
      <point x="81" y="0" type="line"/>
      <point x="525" y="0" type="line"/>
      <point x="525" y="67" type="line"/>
      <point x="351" y="67" type="line"/>
      <point x="351" y="399" type="line"/>
      <point x="768" y="67" type="line"/>
      <point x="647" y="67" type="line"/>
      <point x="647" y="0" type="line"/>
      <point x="1031" y="0" type="line"/>
      <point x="1031" y="67" type="line"/>
      <point x="882" y="67" type="line"/>
      <point x="447" y="415" type="line"/>
      <point x="848" y="737" type="line"/>
      <point x="1003" y="737" type="line"/>
      <point x="1003" y="804" type="line"/>
      <point x="611" y="804" type="line"/>
      <point x="611" y="737" type="line"/>
      <point x="737" y="737" type="line"/>
      <point x="351" y="422" type="line"/>
      <point x="351" y="804" type="line"/>
      <point x="81" y="804" type="line"/>
      <point x="81" y="737" type="line"/>
      <point x="263" y="737" type="line"/>
      <point x="263" y="67" type="line"/>
      <point x="81" y="67" type="line"/>
    </contour>
  </outline>
</glyph>
<glyph name="Lslash" format="1">
  <advance width="1203"/>
  <unicode hex="0141"/>
  <outline>
    <contour>
      <point x="126" y="413" type="line"/>
      <point x="537" y="669" type="line"/>
      <point x="537" y="726" type="line"/>
      <point x="126" y="468" type="line"/>
    </contour>
    <component base="L"/>
  </outline>
</glyph>
<glyph name="lslash" format="1">
  <advance width="543"/>
  <unicode hex="0142"/>
  <outline>
    <contour>
      <point x="95" y="443" type="line"/>
      <point x="482" y="659" type="line"/>
      <point x="482" y="740" type="line"/>
      <point x="94" y="520" type="line"/>
    </contour>
    <component base="l" xOffset="10"/>
  </outline>
</glyph>
<glyph name="Eng" format="1">
  <advance width="1406"/>
  <unicode hex="014A"/>
  <outline>
    <contour>
      <point x="815" y="-396" type="line"/>
      <point x="1042" y="-396"/>
      <point x="1201" y="-289"/>
      <point x="1201" y="-51" type="curve" smooth="yes"/>
      <point x="1201" y="1086" type="line"/>
      <point x="1339" y="1086" type="line"/>
      <point x="1339" y="1152" type="line"/>
      <point x="966" y="1152" type="line"/>
      <point x="966" y="1086" type="line"/>
      <point x="1120" y="1086" type="line"/>
      <point x="1120" y="129" type="line"/>
      <point x="353" y="1152" type="line"/>
      <point x="110" y="1152" type="line"/>
      <point x="110" y="1086" type="line"/>
      <point x="263" y="1086" type="line"/>
      <point x="263" y="65" type="line"/>
      <point x="110" y="65" type="line"/>
      <point x="110" y="0" type="line"/>
      <point x="497" y="0" type="line"/>
      <point x="497" y="65" type="line"/>
      <point x="345" y="65" type="line"/>
      <point x="345" y="1035" type="line"/>
      <point x="1120" y="-2" type="line"/>
      <point x="1120" y="-69" type="line" smooth="yes"/>
      <point x="1120" y="-234"/>
      <point x="1008" y="-325"/>
      <point x="818" y="-325" type="curve"/>
    </contour>
  </outline>
</glyph>
<glyph name="eng" format="1">
  <advance width="1060"/>
  <unicode hex="014B"/>
  <outline>
    <contour>
      <point x="500" y="-375" type="line"/>
      <point x="726" y="-375"/>
      <point x="886" y="-269"/>
      <point x="886" y="-30" type="curve" smooth="yes"/>
      <point x="886" y="577" type="line"/>
      <point x="886" y="740"/>
      <point x="787" y="826"/>
      <point x="640" y="826" type="curve" smooth="yes"/>
      <point x="538" y="826"/>
      <point x="411" y="783"/>
      <point x="284" y="693" type="curve"/>
      <point x="284" y="626" type="line"/>
      <point x="425" y="719"/>
      <point x="541" y="756"/>
      <point x="627" y="756" type="curve" smooth="yes"/>
      <point x="745" y="756"/>
      <point x="801" y="680"/>
      <point x="801" y="571" type="curve" smooth="yes"/>
      <point x="801" y="-48" type="line" smooth="yes"/>
      <point x="801" y="-214"/>
      <point x="692" y="-305"/>
      <point x="503" y="-305" type="curve"/>
    </contour>
    <component base="lc_xheight_stem" xOffset="-42"/>
  </outline>
</glyph>
<glyph name="OE" format="1">
  <advance width="1970"/>
  <unicode hex="0152"/>
  <outline>
    <contour>
      <point x="706" y="0" type="curve" smooth="yes"/>
      <point x="1814" y="0" type="line"/>
      <point x="1814" y="370" type="line"/>
      <point x="1754" y="370" type="line"/>
      <point x="1754" y="53" type="line"/>
      <point x="1081" y="53" type="line"/>
      <point x="1081" y="550" type="line"/>
      <point x="1514" y="550" type="line"/>
      <point x="1514" y="375" type="line"/>
      <point x="1568" y="375" type="line"/>
      <point x="1568" y="766" type="line"/>
      <point x="1513" y="766" type="line"/>
      <point x="1513" y="604" type="line"/>
      <point x="1081" y="604" type="line"/>
      <point x="1081" y="1099" type="line"/>
      <point x="1729" y="1099" type="line"/>
      <point x="1729" y="796" type="line"/>
      <point x="1789" y="796" type="line"/>
      <point x="1789" y="1152" type="line"/>
      <point x="708" y="1152" type="line" smooth="yes"/>
      <point x="344" y="1152"/>
      <point x="142" y="880"/>
      <point x="142" y="571" type="curve" smooth="yes"/>
      <point x="142" y="266"/>
      <point x="348" y="0"/>
    </contour>
    <contour>
      <point x="710" y="53" type="line"/>
      <point x="390" y="53"/>
      <point x="207" y="289"/>
      <point x="207" y="571" type="curve" smooth="yes"/>
      <point x="207" y="855"/>
      <point x="390" y="1095"/>
      <point x="708" y="1095" type="curve" smooth="yes"/>
      <point x="1017" y="1095" type="line"/>
      <point x="1017" y="53" type="line"/>
    </contour>
  </outline>
</glyph>
<glyph name="oe" format="1">
  <advance width="1769"/>
  <unicode hex="0153"/>
  <outline>
    <contour>
      <point x="506" y="-22" type="curve" smooth="yes"/>
      <point x="681" y="-22"/>
      <point x="842" y="72"/>
      <point x="903" y="247" type="curve"/>
      <point x="959" y="79"/>
      <point x="1120" y="-22"/>
      <point x="1291" y="-22" type="curve" smooth="yes"/>
      <point x="1409" y="-22"/>
      <point x="1538" y="26"/>
      <point x="1648" y="133" type="curve"/>
      <point x="1624" y="179" type="line"/>
      <point x="1546" y="88"/>
      <point x="1415" y="28"/>
      <point x="1292" y="28" type="curve" smooth="yes"/>
      <point x="1118" y="28"/>
      <point x="948" y="149"/>
      <point x="935" y="385" type="curve"/>
      <point x="1661" y="385" type="line"/>
      <point x="1658" y="666"/>
      <point x="1492" y="826"/>
      <point x="1286" y="826" type="curve" smooth="yes"/>
      <point x="1106" y="826"/>
      <point x="956" y="729"/>
      <point x="903" y="558" type="curve"/>
      <point x="846" y="733"/>
      <point x="681" y="826"/>
      <point x="506" y="826" type="curve" smooth="yes"/>
      <point x="271" y="826"/>
      <point x="78" y="665"/>
      <point x="78" y="404" type="curve" smooth="yes"/>
      <point x="78" y="138"/>
      <point x="272" y="-22"/>
    </contour>
    <contour>
      <point x="506" y="28" type="curve" smooth="yes"/>
      <point x="307" y="28"/>
      <point x="140" y="170"/>
      <point x="140" y="405" type="curve" smooth="yes"/>
      <point x="140" y="631"/>
      <point x="307" y="775"/>
      <point x="506" y="775" type="curve" smooth="yes"/>
      <point x="701" y="775"/>
      <point x="872" y="631"/>
      <point x="872" y="405" type="curve" smooth="yes"/>
      <point x="872" y="170"/>
      <point x="701" y="28"/>
    </contour>
    <contour>
      <point x="936" y="433" type="line"/>
      <point x="944" y="618"/>
      <point x="1079" y="775"/>
      <point x="1286" y="775" type="curve" smooth="yes"/>
      <point x="1462" y="775"/>
      <point x="1584" y="636"/>
      <point x="1602" y="433" type="curve"/>
    </contour>
  </outline>
</glyph>
<glyph name="florin" format="1">
  <advance width="786"/>
  <unicode hex="0192"/>
  <outline>
    <contour>
      <point x="8" y="-106" type="line"/>
      <point x="113" y="-113"/>
      <point x="231" y="-96"/>
      <point x="273" y="68" type="curve" smooth="yes"/>
      <point x="461" y="769" type="line"/>
      <point x="665" y="769" type="line"/>
      <point x="680" y="829" type="line"/>
      <point x="477" y="829" type="line"/>
      <point x="540" y="1064" type="line" smooth="yes"/>
      <point x="557" y="1144"/>
      <point x="600" y="1179"/>
      <point x="656" y="1179" type="curve" smooth="yes"/>
      <point x="691" y="1179"/>
      <point x="724" y="1167"/>
      <point x="750" y="1145" type="curve"/>
      <point x="779" y="1192" type="line"/>
      <point x="745" y="1230"/>
      <point x="696" y="1243"/>
      <point x="652" y="1243" type="curve" smooth="yes"/>
      <point x="547" y="1243"/>
      <point x="477" y="1173"/>
      <point x="450" y="1061" type="curve" smooth="yes"/>
      <point x="387" y="829" type="line"/>
      <point x="232" y="829" type="line"/>
      <point x="215" y="769" type="line"/>
      <point x="372" y="769" type="line"/>
      <point x="184" y="68" type="line" smooth="yes"/>
      <point x="160" y="-27"/>
      <point x="105" y="-48"/>
      <point x="24" y="-41" type="curve"/>
    </contour>
  </outline>
</glyph>
<glyph name="dotlessj" format="1">
  <advance width="458"/>
  <unicode hex="0237"/>
  <outline>
    <contour>
      <point x="280" y="804" type="move" name="top"/>
    </contour>
    <contour>
      <point x="30" y="-264" type="line"/>
      <point x="108" y="-264" type="line" smooth="yes"/>
      <point x="315" y="-264"/>
      <point x="323" y="-146"/>
      <point x="323" y="-14" type="curve" smooth="yes"/>
      <point x="323" y="805" type="line"/>
      <point x="67" y="805" type="line"/>
      <point x="67" y="742" type="line"/>
      <point x="238" y="742" type="line"/>
      <point x="238" y="-27" type="line" smooth="yes"/>
      <point x="238" y="-138"/>
      <point x="236" y="-197"/>
      <point x="109" y="-197" type="curve" smooth="yes"/>
      <point x="30" y="-197" type="line"/>
    </contour>
  </outline>
</glyph>
<glyph name="uni0237" format="1">
  <advance width="423"/>
  <unicode hex="0237"/>
  <outline>
    <contour>
      <point x="232" y="805" type="move" name="top"/>
    </contour>
    <contour>
      <point x="26" y="-250" type="line"/>
      <point x="100" y="-250" type="line" smooth="yes"/>
      <point x="302" y="-250"/>
      <point x="291" y="-119"/>
      <point x="291" y="-26" type="curve" smooth="yes"/>
      <point x="291" y="805" type="line"/>
      <point x="65" y="805" type="line"/>
      <point x="65" y="761" type="line"/>
      <point x="228" y="761" type="line"/>
      <point x="228" y="-34" type="line" smooth="yes"/>
      <point x="228" y="-146"/>
      <point x="231" y="-204"/>
      <point x="95" y="-204" type="curve" smooth="yes"/>
      <point x="26" y="-204" type="line"/>
    </contour>
  </outline>
</glyph>
<glyph name="apostrophemod" format="1">
  <advance width="600"/>
  <unicode hex="02BC"/>
  <outline>
    <contour>
      <point x="189" y="765" type="move" name="_top"/>
    </contour>
    <contour>
      <point x="-9" y="845" type="line"/>
      <point x="98" y="845"/>
      <point x="137" y="921"/>
      <point x="137" y="1024" type="curve"/>
      <point x="137" y="1155" type="line"/>
      <point x="1" y="1155" type="line"/>
      <point x="1" y="1026" type="line"/>
      <point x="68" y="1026" type="line"/>
      <point x="68" y="943"/>
      <point x="60" y="914"/>
      <point x="-9" y="892" type="curve"/>
    </contour>
  </outline>
</glyph>
<glyph name="circumflex" format="1">
  <advance width="385"/>
  <unicode hex="02C6"/>
  <outline>
    <contour>
      <point x="197" y="805" type="move" name="_top"/>
    </contour>
    <contour>
      <point x="21" y="926" type="line"/>
      <point x="83" y="926" type="line"/>
      <point x="190" y="1149" type="line"/>
      <point x="296" y="926" type="line"/>
      <point x="360" y="926" type="line"/>
      <point x="220" y="1199" type="line"/>
      <point x="158" y="1199" type="line"/>
    </contour>
  </outline>
</glyph>
<glyph name="caron" format="1">
  <advance width="442"/>
  <unicode hex="02C7"/>
  <outline>
    <contour>
      <point x="221" y="804" type="move" name="_top"/>
    </contour>
    <contour>
      <point x="165" y="921" type="line"/>
      <point x="273" y="921" type="line"/>
      <point x="420" y="1192" type="line"/>
      <point x="329" y="1192" type="line"/>
      <point x="219" y="977" type="line"/>
      <point x="108" y="1192" type="line"/>
      <point x="23" y="1192" type="line"/>
    </contour>
  </outline>
</glyph>
<glyph name="uni02C9" format="1">
  <advance width="600"/>
  <unicode hex="02C9"/>
  <outline>
    <contour>
      <point x="114" y="928" type="line"/>
      <point x="495" y="928" type="line"/>
      <point x="495" y="985" type="line"/>
      <point x="114" y="985" type="line"/>
    </contour>
  </outline>
</glyph>
<glyph name="breve" format="1">
  <advance width="287"/>
  <unicode hex="02D8"/>
  <outline>
    <contour>
      <point x="152" y="805" type="move" name="_top"/>
    </contour>
    <contour>
      <point x="146" y="935" type="curve" smooth="yes"/>
      <point x="224" y="935"/>
      <point x="291" y="983"/>
      <point x="305" y="1074" type="curve"/>
      <point x="254" y="1074" type="line"/>
      <point x="239" y="1014"/>
      <point x="195" y="983"/>
      <point x="146" y="983" type="curve" smooth="yes"/>
      <point x="96" y="983"/>
      <point x="51" y="1015"/>
      <point x="37" y="1074" type="curve"/>
      <point x="-16" y="1074" type="line"/>
      <point x="2" y="983"/>
      <point x="70" y="935"/>
    </contour>
  </outline>
</glyph>
<glyph name="dotaccent" format="1">
  <advance width="177"/>
  <unicode hex="02D9"/>
  <outline>
    <contour>
      <point x="88" y="805" type="move" name="_top"/>
    </contour>
    <contour>
      <point x="86" y="992" type="curve" smooth="yes"/>
      <point x="135" y="992"/>
      <point x="159" y="1025"/>
      <point x="159" y="1057" type="curve"/>
      <point x="159" y="1091"/>
      <point x="134" y="1121"/>
      <point x="86" y="1121" type="curve" smooth="yes"/>
      <point x="42" y="1121"/>
      <point x="17" y="1090"/>
      <point x="18" y="1057" type="curve" smooth="yes"/>
      <point x="18" y="1025"/>
      <point x="42" y="992"/>
    </contour>
  </outline>
</glyph>
<glyph name="ring" format="1">
  <advance width="402"/>
  <unicode hex="02DA"/>
  <outline>
    <contour>
      <point x="201" y="804" type="move" name="_top"/>
    </contour>
    <contour>
      <point x="205" y="920" type="curve" smooth="yes"/>
      <point x="294" y="920"/>
      <point x="344" y="987"/>
      <point x="344" y="1057" type="curve" smooth="yes"/>
      <point x="344" y="1127"/>
      <point x="294" y="1195"/>
      <point x="205" y="1195" type="curve" smooth="yes"/>
      <point x="116" y="1195"/>
      <point x="66" y="1127"/>
      <point x="66" y="1057" type="curve" smooth="yes"/>
      <point x="66" y="987"/>
      <point x="116" y="920"/>
    </contour>
    <contour>
      <point x="206" y="964" type="curve" smooth="yes"/>
      <point x="148" y="964"/>
      <point x="114" y="1010"/>
      <point x="114" y="1057" type="curve" smooth="yes"/>
      <point x="114" y="1106"/>
      <point x="148" y="1150"/>
      <point x="206" y="1150" type="curve" smooth="yes"/>
      <point x="262" y="1150"/>
      <point x="296" y="1106"/>
      <point x="296" y="1057" type="curve" smooth="yes"/>
      <point x="296" y="1009"/>
      <point x="262" y="964"/>
    </contour>
  </outline>
</glyph>
<glyph name="ogonek" format="1">
  <advance width="420"/>
  <unicode hex="02DB"/>
  <outline>
    <contour>
      <point x="237" y="0" type="move" name="_ogonek"/>
    </contour>
    <contour>
      <point x="257" y="-312" type="curve" smooth="yes"/>
      <point x="298" y="-312"/>
      <point x="340" y="-300"/>
      <point x="374" y="-278" type="curve"/>
      <point x="374" y="-236" type="line"/>
      <point x="348" y="-247"/>
      <point x="318" y="-254"/>
      <point x="289" y="-254" type="curve" smooth="yes"/>
      <point x="230" y="-254"/>
      <point x="175" y="-226"/>
      <point x="175" y="-156" type="curve" smooth="yes"/>
      <point x="175" y="-111"/>
      <point x="200" y="-55"/>
      <point x="264" y="0" type="curve"/>
      <point x="224" y="0" type="line"/>
      <point x="149" y="-55"/>
      <point x="111" y="-128"/>
      <point x="111" y="-190" type="curve" smooth="yes"/>
      <point x="111" y="-273"/>
      <point x="183" y="-312"/>
    </contour>
  </outline>
</glyph>
<glyph name="tilde" format="1">
  <advance width="488"/>
  <unicode hex="02DC"/>
  <outline>
    <contour>
      <point x="244" y="804" type="move" name="_top"/>
    </contour>
    <contour>
      <point x="353" y="948" type="curve" smooth="yes"/>
      <point x="420" y="948"/>
      <point x="451" y="1013"/>
      <point x="459" y="1083" type="curve"/>
      <point x="424" y="1083" type="line"/>
      <point x="416" y="1059"/>
      <point x="399" y="1027"/>
      <point x="365" y="1027" type="curve" smooth="yes"/>
      <point x="303" y="1027"/>
      <point x="209" y="1085"/>
      <point x="129" y="1085" type="curve" smooth="yes"/>
      <point x="70" y="1085"/>
      <point x="32" y="1030"/>
      <point x="23" y="953" type="curve"/>
      <point x="58" y="953" type="line"/>
      <point x="65" y="975"/>
      <point x="70" y="1006"/>
      <point x="103" y="1006" type="curve" smooth="yes"/>
      <point x="169" y="1006"/>
      <point x="260" y="948"/>
    </contour>
  </outline>
</glyph>
<glyph name="hungarumlaut" format="1">
  <advance width="443"/>
  <unicode hex="02DD"/>
  <outline>
    <contour>
      <point x="221" y="804" type="move" name="_top"/>
    </contour>
    <contour>
      <point x="20" y="903" type="line"/>
      <point x="59" y="903" type="line"/>
      <point x="217" y="1154" type="line"/>
      <point x="83" y="1154" type="line"/>
    </contour>
    <contour>
      <point x="236" y="903" type="line"/>
      <point x="275" y="903" type="line"/>
      <point x="433" y="1154" type="line"/>
      <point x="299" y="1154" type="line"/>
    </contour>
  </outline>
</glyph>
<glyph name="uni0307" format="1">
  <advance width="372"/>
  <unicode hex="0307"/>
  <outline>
    <contour>
      <point x="187" y="805" type="move" name="_top"/>
    </contour>
    <contour>
      <point x="185" y="974" type="curve" smooth="yes"/>
      <point x="227" y="974"/>
      <point x="247" y="1004"/>
      <point x="247" y="1030" type="curve" smooth="yes"/>
      <point x="247" y="1056"/>
      <point x="228" y="1086"/>
      <point x="185" y="1086" type="curve" smooth="yes"/>
      <point x="143" y="1086"/>
      <point x="125" y="1057"/>
      <point x="125" y="1030" type="curve" smooth="yes"/>
      <point x="125" y="1004"/>
      <point x="143" y="974"/>
    </contour>
  </outline>
</glyph>
<glyph name="dblgravecmb" format="1">
  <advance width="622"/>
  <unicode hex="030F"/>
  <outline>
    <contour>
      <point x="399" y="804" type="move" name="_top"/>
    </contour>
    <contour>
      <point x="248" y="903" type="line"/>
      <point x="287" y="903" type="line"/>
      <point x="224" y="1154" type="line"/>
      <point x="90" y="1154" type="line"/>
    </contour>
    <contour>
      <point x="464" y="903" type="line"/>
      <point x="503" y="903" type="line"/>
      <point x="440" y="1154" type="line"/>
      <point x="306" y="1154" type="line"/>
    </contour>
  </outline>
</glyph>
<glyph name="breveinvertedcomb" format="1">
  <advance width="820"/>
  <unicode hex="0311"/>
  <outline>
    <contour>
      <point x="417" y="804" type="move" name="_top"/>
    </contour>
    <contour>
      <point x="229" y="937" type="curve"/>
      <point x="301" y="937" type="line"/>
      <point x="315" y="999"/>
      <point x="363" y="1030"/>
      <point x="414" y="1030" type="curve" smooth="yes"/>
      <point x="464" y="1030"/>
      <point x="510" y="1000"/>
      <point x="524" y="937" type="curve"/>
      <point x="595" y="937" type="line"/>
      <point x="581" y="1041"/>
      <point x="502" y="1094"/>
      <point x="414" y="1094" type="curve" smooth="yes"/>
      <point x="326" y="1094"/>
      <point x="245" y="1041"/>
    </contour>
  </outline>
</glyph>
<glyph name="uni0311" format="1">
  <advance width="904"/>
  <unicode hex="0311"/>
  <outline>
    <contour>
      <point x="459" y="804" type="move" name="_top"/>
    </contour>
    <contour>
      <point x="297" y="935" type="curve"/>
      <point x="350" y="935" type="line"/>
      <point x="365" y="992"/>
      <point x="407" y="1021"/>
      <point x="457" y="1021" type="curve" smooth="yes"/>
      <point x="510" y="1021"/>
      <point x="552" y="993"/>
      <point x="566" y="935" type="curve"/>
      <point x="618" y="935" type="line"/>
      <point x="604" y="1025"/>
      <point x="539" y="1070"/>
      <point x="457" y="1070" type="curve" smooth="yes"/>
      <point x="379" y="1070"/>
      <point x="314" y="1025"/>
    </contour>
  </outline>
</glyph>
<glyph name="commaturnedabovecomb" format="1">
  <advance width="600"/>
  <unicode hex="0312"/>
  <outline>
    <contour>
      <point x="289" y="804" type="move" name="_top"/>
    </contour>
    <contour>
      <point x="218" y="1003" type="line"/>
      <point x="354" y="1003" type="line"/>
      <point x="354" y="1132" type="line"/>
      <point x="287" y="1132" type="line"/>
      <point x="287" y="1215"/>
      <point x="295" y="1245"/>
      <point x="364" y="1266" type="curve"/>
      <point x="364" y="1313" type="line"/>
      <point x="257" y="1313"/>
      <point x="218" y="1238"/>
      <point x="218" y="1134" type="curve"/>
    </contour>
  </outline>
</glyph>
<glyph name="uni0326" format="1">
  <advance width="439"/>
  <unicode hex="0326"/>
  <outline>
    <contour>
      <point x="242" y="0" type="move" name="_bot"/>
    </contour>
    <contour>
      <point x="165" y="-387" type="line"/>
      <point x="262" y="-387"/>
      <point x="285" y="-323"/>
      <point x="285" y="-218" type="curve" smooth="yes"/>
      <point x="285" y="-116" type="line"/>
      <point x="188" y="-116" type="line"/>
      <point x="188" y="-225" type="line"/>
      <point x="238" y="-225" type="line"/>
      <point x="238" y="-309"/>
      <point x="235" y="-342"/>
      <point x="165" y="-355" type="curve"/>
    </contour>
  </outline>
</glyph>
<glyph name="Delta" format="1">
  <advance width="1247"/>
  <unicode hex="0394"/>
  <outline>
    <contour>
      <point x="279" y="96" type="line"/>
      <point x="311" y="188"/>
      <point x="616" y="1085"/>
      <point x="618" y="1093" type="curve"/>
      <point x="625" y="1060"/>
      <point x="916" y="132"/>
      <point x="928" y="96" type="curve"/>
    </contour>
    <contour>
      <point x="172" y="0" type="line"/>
      <point x="1061" y="0" type="line"/>
      <point x="692" y="1154" type="line"/>
      <point x="576" y="1154" type="line"/>
    </contour>
  </outline>
</glyph>
<glyph name="Sigma" format="1">
  <advance width="1134"/>
  <unicode hex="03A3"/>
  <outline>
    <contour>
      <point x="81" y="0" type="line"/>
      <point x="1001" y="0" type="line"/>
      <point x="1001" y="349" type="line"/>
      <point x="922" y="349" type="line"/>
      <point x="922" y="65" type="line"/>
      <point x="299" y="65" type="line"/>
      <point x="683" y="579" type="line"/>
      <point x="683" y="622" type="line"/>
      <point x="317" y="1086" type="line"/>
      <point x="905" y="1086" type="line"/>
      <point x="905" y="804" type="line"/>
      <point x="984" y="804" type="line"/>
      <point x="984" y="1152" type="line"/>
      <point x="81" y="1152" type="line"/>
      <point x="81" y="1086" type="line"/>
      <point x="228" y="1086" type="line"/>
      <point x="612" y="588" type="line"/>
      <point x="228" y="65" type="line"/>
      <point x="81" y="65" type="line"/>
    </contour>
  </outline>
</glyph>
<glyph name="Omega" format="1">
  <advance width="1453"/>
  <unicode hex="03A9"/>
  <outline>
    <contour>
      <point x="148" y="0" type="line"/>
      <point x="576" y="0" type="line"/>
      <point x="576" y="56" type="line"/>
      <point x="346" y="211"/>
      <point x="219" y="410"/>
      <point x="219" y="623" type="curve" smooth="yes"/>
      <point x="219" y="918"/>
      <point x="412" y="1109"/>
      <point x="727" y="1109" type="curve" smooth="yes"/>
      <point x="1041" y="1109"/>
      <point x="1235" y="918"/>
      <point x="1235" y="623" type="curve" smooth="yes"/>
      <point x="1235" y="410"/>
      <point x="1107" y="211"/>
      <point x="877" y="56" type="curve"/>
      <point x="877" y="0" type="line"/>
      <point x="1305" y="0" type="line"/>
      <point x="1305" y="67" type="line"/>
      <point x="983" y="67" type="line"/>
      <point x="1200" y="215"/>
      <point x="1315" y="418"/>
      <point x="1315" y="623" type="curve" smooth="yes"/>
      <point x="1315" y="956"/>
      <point x="1092" y="1174"/>
      <point x="727" y="1174" type="curve" smooth="yes"/>
      <point x="362" y="1174"/>
      <point x="139" y="956"/>
      <point x="139" y="623" type="curve" smooth="yes"/>
      <point x="139" y="418"/>
      <point x="253" y="215"/>
      <point x="470" y="67" type="curve"/>
      <point x="148" y="67" type="line"/>
    </contour>
  </outline>
</glyph>
<glyph name="mu" format="1">
  <advance width="1014"/>
  <unicode hex="03BC"/>
  <outline>
    <contour>
      <point x="178" y="-214" type="line"/>
      <point x="263" y="-214" type="line"/>
      <point x="263" y="35" type="line"/>
      <point x="301" y="6"/>
      <point x="356" y="-14"/>
      <point x="431" y="-14" type="curve" smooth="yes"/>
      <point x="549" y="-14"/>
      <point x="625" y="24"/>
      <point x="747" y="100" type="curve"/>
      <point x="754" y="0" type="line"/>
      <point x="978" y="0" type="line"/>
      <point x="978" y="64" type="line"/>
      <point x="829" y="64" type="line"/>
      <point x="829" y="805" type="line"/>
      <point x="593" y="805" type="line"/>
      <point x="593" y="740" type="line"/>
      <point x="744" y="740" type="line"/>
      <point x="744" y="177" type="line"/>
      <point x="649" y="112"/>
      <point x="562" y="58"/>
      <point x="441" y="58" type="curve" smooth="yes"/>
      <point x="294" y="58"/>
      <point x="263" y="135"/>
      <point x="263" y="235" type="curve" smooth="yes"/>
      <point x="263" y="805" type="line"/>
      <point x="28" y="805" type="line"/>
      <point x="28" y="740" type="line"/>
      <point x="178" y="740" type="line"/>
    </contour>
  </outline>
</glyph>
<glyph name="pi" format="1">
  <advance width="1072"/>
  <unicode hex="03C0"/>
  <outline>
    <contour>
      <point x="835" y="-13" type="curve" smooth="yes"/>
      <point x="866" y="-13"/>
      <point x="900" y="-5"/>
      <point x="936" y="15" type="curve"/>
      <point x="936" y="67" type="line"/>
      <point x="914" y="61"/>
      <point x="895" y="57"/>
      <point x="877" y="57" type="curve" smooth="yes"/>
      <point x="819" y="57"/>
      <point x="774" y="72"/>
      <point x="774" y="275" type="curve" smooth="yes"/>
      <point x="774" y="375"/>
      <point x="783" y="529"/>
      <point x="806" y="733" type="curve"/>
      <point x="959" y="733" type="line"/>
      <point x="959" y="804" type="line"/>
      <point x="292" y="804" type="line" smooth="yes"/>
      <point x="183" y="804"/>
      <point x="151" y="724"/>
      <point x="151" y="627" type="curve"/>
      <point x="193" y="627" type="line"/>
      <point x="197" y="682"/>
      <point x="230" y="733"/>
      <point x="283" y="733" type="curve" smooth="yes"/>
      <point x="377" y="733" type="line"/>
      <point x="303" y="244" type="line" smooth="yes"/>
      <point x="282" y="106"/>
      <point x="227" y="57"/>
      <point x="111" y="57" type="curve"/>
      <point x="111" y="-4" type="line"/>
      <point x="310" y="-4"/>
      <point x="377" y="41"/>
      <point x="394" y="219" type="curve" smooth="yes"/>
      <point x="447" y="733" type="line"/>
      <point x="734" y="733" type="line"/>
      <point x="699" y="504"/>
      <point x="681" y="333"/>
      <point x="681" y="221" type="curve" smooth="yes"/>
      <point x="681" y="8"/>
      <point x="746" y="-13"/>
    </contour>
  </outline>
</glyph>
<glyph name="quoteleft" format="1">
  <advance width="393"/>
  <unicode hex="2018"/>
  <outline>
    <contour>
      <point x="114" y="930" type="line"/>
      <point x="252" y="930" type="line"/>
      <point x="252" y="1061" type="line"/>
      <point x="185" y="1061" type="line"/>
      <point x="185" y="1147"/>
      <point x="192" y="1174"/>
      <point x="261" y="1195" type="curve"/>
      <point x="261" y="1245" type="line"/>
      <point x="153" y="1245"/>
      <point x="114" y="1170"/>
      <point x="114" y="1063" type="curve" smooth="yes"/>
    </contour>
  </outline>
</glyph>
<glyph name="quoteright" format="1">
  <advance width="402"/>
  <unicode hex="2019"/>
  <outline>
    <contour>
      <point x="151" y="943" type="line"/>
      <point x="243" y="943"/>
      <point x="272" y="1014"/>
      <point x="272" y="1100" type="curve" smooth="yes"/>
      <point x="272" y="1206" type="line"/>
      <point x="167" y="1206" type="line"/>
      <point x="167" y="1103" type="line"/>
      <point x="219" y="1103" type="line"/>
      <point x="219" y="1022"/>
      <point x="214" y="997"/>
      <point x="151" y="975" type="curve"/>
    </contour>
  </outline>
</glyph>
<glyph name="quotesinglbase" format="1">
  <advance width="398"/>
  <unicode hex="201A"/>
  <outline>
    <contour>
      <point x="143" y="-187" type="line"/>
      <point x="251" y="-188"/>
      <point x="288" y="-111"/>
      <point x="289" y="-5" type="curve" smooth="yes"/>
      <point x="289" y="128" type="line"/>
      <point x="151" y="128" type="line"/>
      <point x="151" y="-4" type="line"/>
      <point x="219" y="-4" type="line"/>
      <point x="219" y="-90"/>
      <point x="211" y="-116"/>
      <point x="143" y="-138" type="curve"/>
    </contour>
  </outline>
</glyph>
<glyph name="quotedblleft" format="1">
  <advance width="654"/>
  <unicode hex="201C"/>
  <outline>
    <contour>
      <point x="157" y="965" type="line"/>
      <point x="262" y="965" type="line"/>
      <point x="262" y="1068" type="line"/>
      <point x="210" y="1068" type="line"/>
      <point x="210" y="1150"/>
      <point x="215" y="1174"/>
      <point x="277" y="1197" type="curve"/>
      <point x="277" y="1228" type="line"/>
      <point x="187" y="1228"/>
      <point x="157" y="1157"/>
      <point x="157" y="1070" type="curve" smooth="yes"/>
    </contour>
    <contour>
      <point x="367" y="965" type="line"/>
      <point x="472" y="965" type="line"/>
      <point x="472" y="1068" type="line"/>
      <point x="420" y="1068" type="line"/>
      <point x="420" y="1149"/>
      <point x="425" y="1174"/>
      <point x="488" y="1197" type="curve"/>
      <point x="488" y="1228" type="line"/>
      <point x="397" y="1228"/>
      <point x="367" y="1157"/>
      <point x="367" y="1070" type="curve" smooth="yes"/>
    </contour>
  </outline>
</glyph>
<glyph name="quotedblright" format="1">
  <advance width="658"/>
  <unicode hex="201D"/>
  <outline>
    <contour>
      <point x="169" y="943" type="line"/>
      <point x="260" y="943"/>
      <point x="289" y="1014"/>
      <point x="289" y="1100" type="curve" smooth="yes"/>
      <point x="289" y="1206" type="line"/>
      <point x="184" y="1206" type="line"/>
      <point x="184" y="1103" type="line"/>
      <point x="237" y="1103" type="line"/>
      <point x="236" y="1022"/>
      <point x="231" y="997"/>
      <point x="169" y="975" type="curve"/>
    </contour>
    <contour>
      <point x="379" y="943" type="line"/>
      <point x="470" y="943"/>
      <point x="499" y="1014"/>
      <point x="499" y="1100" type="curve" smooth="yes"/>
      <point x="499" y="1206" type="line"/>
      <point x="395" y="1206" type="line"/>
      <point x="395" y="1103" type="line"/>
      <point x="446" y="1103" type="line"/>
      <point x="446" y="1022"/>
      <point x="442" y="997"/>
      <point x="379" y="975" type="curve"/>
    </contour>
  </outline>
</glyph>
<glyph name="quotedblbase" format="1">
  <advance width="702"/>
  <unicode hex="201E"/>
  <outline>
    <contour>
      <point x="149" y="-187" type="line"/>
      <point x="257" y="-188"/>
      <point x="295" y="-111"/>
      <point x="295" y="-5" type="curve" smooth="yes"/>
      <point x="295" y="128" type="line"/>
      <point x="157" y="128" type="line"/>
      <point x="157" y="-4" type="line"/>
      <point x="225" y="-4" type="line"/>
      <point x="226" y="-90"/>
      <point x="218" y="-116"/>
      <point x="149" y="-138" type="curve"/>
    </contour>
    <contour>
      <point x="419" y="-187" type="line"/>
      <point x="525" y="-187"/>
      <point x="564" y="-111"/>
      <point x="564" y="-5" type="curve" smooth="yes"/>
      <point x="564" y="128" type="line"/>
      <point x="427" y="128" type="line"/>
      <point x="427" y="-4" type="line"/>
      <point x="494" y="-4" type="line"/>
      <point x="494" y="-89"/>
      <point x="487" y="-116"/>
      <point x="419" y="-138" type="curve"/>
    </contour>
  </outline>
</glyph>
<glyph name="dagger" format="1">
  <advance width="572"/>
  <unicode hex="2020"/>
  <outline>
    <contour>
      <point x="265" y="-12" type="curve"/>
      <point x="308" y="-12" type="line"/>
      <point x="308" y="218"/>
      <point x="333" y="405"/>
      <point x="338" y="598" type="curve"/>
      <point x="338" y="679"/>
      <point x="326" y="785"/>
      <point x="308" y="877" type="curve"/>
      <point x="539" y="850" type="line"/>
      <point x="539" y="935" type="line"/>
      <point x="308" y="914" type="line"/>
      <point x="342" y="1211" type="line"/>
      <point x="231" y="1211" type="line"/>
      <point x="265" y="914" type="line"/>
      <point x="32" y="935" type="line"/>
      <point x="32" y="850" type="line"/>
      <point x="265" y="877" type="line"/>
      <point x="248" y="783"/>
      <point x="236" y="678"/>
      <point x="236" y="595" type="curve"/>
      <point x="240" y="403"/>
      <point x="265" y="219"/>
    </contour>
  </outline>
</glyph>
<glyph name="daggerdbl" format="1">
  <advance width="584"/>
  <unicode hex="2021"/>
  <outline>
    <contour>
      <point x="238" y="-35" type="line"/>
      <point x="348" y="-35" type="line"/>
      <point x="314" y="252" type="line"/>
      <point x="544" y="231" type="line"/>
      <point x="544" y="317" type="line"/>
      <point x="314" y="290" type="line"/>
      <point x="331" y="360"/>
      <point x="326" y="467"/>
      <point x="325" y="583" type="curve"/>
      <point x="326" y="700"/>
      <point x="331" y="814"/>
      <point x="314" y="886" type="curve"/>
      <point x="544" y="859" type="line"/>
      <point x="544" y="945" type="line"/>
      <point x="314" y="924" type="line"/>
      <point x="348" y="1211" type="line"/>
      <point x="238" y="1211" type="line"/>
      <point x="271" y="924" type="line"/>
      <point x="39" y="945" type="line"/>
      <point x="39" y="859" type="line"/>
      <point x="271" y="886" type="line"/>
      <point x="255" y="815"/>
      <point x="259" y="705"/>
      <point x="260" y="589" type="curve"/>
      <point x="259" y="472"/>
      <point x="254" y="361"/>
      <point x="271" y="290" type="curve"/>
      <point x="39" y="317" type="line"/>
      <point x="39" y="231" type="line"/>
      <point x="271" y="252" type="line"/>
    </contour>
  </outline>
</glyph>
<glyph name="bullet" format="1">
  <advance width="736"/>
  <unicode hex="2022"/>
  <outline>
    <contour>
      <point x="368" y="392" type="curve" smooth="yes"/>
      <point x="505" y="392"/>
      <point x="616" y="499"/>
      <point x="616" y="631" type="curve" smooth="yes"/>
      <point x="616" y="765"/>
      <point x="505" y="869"/>
      <point x="368" y="869" type="curve" smooth="yes"/>
      <point x="229" y="869"/>
      <point x="120" y="764"/>
      <point x="120" y="631" type="curve" smooth="yes"/>
      <point x="120" y="500"/>
      <point x="229" y="392"/>
    </contour>
  </outline>
</glyph>
<glyph name="ellipsis" format="1">
  <advance width="915"/>
  <unicode hex="2026"/>
  <outline>
    <contour>
      <point x="180" y="0" type="line"/>
      <point x="275" y="0" type="line"/>
      <point x="275" y="103" type="line"/>
      <point x="180" y="103" type="line"/>
    </contour>
    <contour>
      <point x="411" y="0" type="line"/>
      <point x="508" y="0" type="line"/>
      <point x="508" y="103" type="line"/>
      <point x="411" y="103" type="line"/>
    </contour>
    <contour>
      <point x="644" y="0" type="line"/>
      <point x="739" y="0" type="line"/>
      <point x="739" y="103" type="line"/>
      <point x="644" y="103" type="line"/>
    </contour>
  </outline>
</glyph>
<glyph name="perthousand" format="1">
  <advance width="2277"/>
  <unicode hex="2030"/>
  <outline>
    <contour>
      <point x="1884" y="24" type="curve" smooth="yes"/>
      <point x="1755" y="24"/>
      <point x="1647" y="113"/>
      <point x="1647" y="262" type="curve" smooth="yes"/>
      <point x="1647" y="410"/>
      <point x="1755" y="499"/>
      <point x="1884" y="499" type="curve" smooth="yes"/>
      <point x="2014" y="499"/>
      <point x="2124" y="410"/>
      <point x="2124" y="262" type="curve" smooth="yes"/>
      <point x="2124" y="113"/>
      <point x="2014" y="24"/>
    </contour>
    <contour>
      <point x="1884" y="-24" type="curve" smooth="yes"/>
      <point x="2044" y="-24"/>
      <point x="2182" y="83"/>
      <point x="2182" y="262" type="curve" smooth="yes"/>
      <point x="2182" y="441"/>
      <point x="2044" y="546"/>
      <point x="1884" y="546" type="curve" smooth="yes"/>
      <point x="1724" y="546"/>
      <point x="1589" y="440"/>
      <point x="1589" y="262" type="curve" smooth="yes"/>
      <point x="1589" y="83"/>
      <point x="1725" y="-24"/>
    </contour>
    <component base="percent"/>
  </outline>
</glyph>
<glyph name="guilsinglleft" format="1">
  <advance width="424"/>
  <unicode hex="2039"/>
  <outline>
    <contour>
      <point x="295" y="279" type="line"/>
      <point x="335" y="279" type="line"/>
      <point x="122" y="613" type="line"/>
      <point x="335" y="943" type="line"/>
      <point x="295" y="943" type="line"/>
      <point x="27" y="613" type="line"/>
    </contour>
  </outline>
</glyph>
<glyph name="guilsinglright" format="1">
  <advance width="424"/>
  <unicode hex="203A"/>
  <outline>
    <contour>
      <point x="95" y="279" type="line"/>
      <point x="134" y="279" type="line"/>
      <point x="402" y="613" type="line"/>
      <point x="134" y="943" type="line"/>
      <point x="95" y="943" type="line"/>
      <point x="307" y="613" type="line"/>
    </contour>
  </outline>
</glyph>
<glyph name="fraction" format="1">
  <advance width="508"/>
  <unicode hex="2044"/>
  <outline>
    <contour>
      <point x="27" y="-22" type="line"/>
      <point x="108" y="-22" type="line"/>
      <point x="485" y="1245" type="line"/>
      <point x="406" y="1245" type="line"/>
    </contour>
  </outline>
</glyph>
<glyph name="foursuperior" format="1">
  <advance width="786"/>
  <unicode hex="2074"/>
  <outline>
    <contour>
      <point x="314" y="455" type="line"/>
      <point x="626" y="455" type="line"/>
      <point x="626" y="522" type="line"/>
      <point x="512" y="522" type="line"/>
      <point x="512" y="713" type="line"/>
      <point x="688" y="713" type="line"/>
      <point x="688" y="776" type="line"/>
      <point x="512" y="776" type="line"/>
      <point x="512" y="1321" type="line"/>
      <point x="417" y="1321" type="line"/>
      <point x="62" y="777" type="line"/>
      <point x="70" y="713" type="line"/>
      <point x="434" y="713" type="line"/>
      <point x="434" y="522" type="line"/>
      <point x="314" y="522" type="line"/>
    </contour>
    <contour>
      <point x="148" y="776" type="line"/>
      <point x="434" y="1223" type="line"/>
      <point x="434" y="776" type="line"/>
    </contour>
  </outline>
</glyph>
<glyph name="Euro" format="1">
  <advance width="1367"/>
  <unicode hex="20AC"/>
  <outline>
    <contour>
      <point x="698" y="-22" type="curve" smooth="yes"/>
      <point x="946" y="-22"/>
      <point x="1126" y="75"/>
      <point x="1234" y="269" type="curve"/>
      <point x="1161" y="319" type="line"/>
      <point x="1066" y="131"/>
      <point x="897" y="52"/>
      <point x="711" y="52" type="curve" smooth="yes"/>
      <point x="432" y="52"/>
      <point x="271" y="226"/>
      <point x="221" y="438" type="curve"/>
      <point x="602" y="438" type="line"/>
      <point x="633" y="504" type="line"/>
      <point x="210" y="504" type="line"/>
      <point x="207" y="529"/>
      <point x="205" y="555"/>
      <point x="205" y="580" type="curve" smooth="yes"/>
      <point x="205" y="599"/>
      <point x="206" y="617"/>
      <point x="208" y="636" type="curve"/>
      <point x="602" y="636" type="line"/>
      <point x="633" y="702" type="line"/>
      <point x="220" y="702" type="line"/>
      <point x="267" y="919"/>
      <point x="444" y="1096"/>
      <point x="711" y="1096" type="curve" smooth="yes"/>
      <point x="936" y="1096"/>
      <point x="1088" y="966"/>
      <point x="1157" y="815" type="curve"/>
      <point x="1223" y="825" type="line"/>
      <point x="1223" y="1152" type="line"/>
      <point x="1146" y="1152" type="line"/>
      <point x="1146" y="967" type="line"/>
      <point x="1045" y="1103"/>
      <point x="885" y="1172"/>
      <point x="704" y="1172" type="curve" smooth="yes"/>
      <point x="408" y="1172"/>
      <point x="179" y="978"/>
      <point x="127" y="702" type="curve"/>
      <point x="6" y="702" type="line"/>
      <point x="-25" y="636" type="line"/>
      <point x="117" y="636" type="line"/>
      <point x="116" y="618"/>
      <point x="115" y="599"/>
      <point x="115" y="579" type="curve" smooth="yes"/>
      <point x="115" y="553"/>
      <point x="116" y="528"/>
      <point x="119" y="504" type="curve"/>
      <point x="6" y="504" type="line"/>
      <point x="-25" y="438" type="line"/>
      <point x="128" y="438" type="line"/>
      <point x="189" y="130"/>
      <point x="449" y="-22"/>
    </contour>
  </outline>
</glyph>
<glyph name="uni2113" format="1">
  <advance width="571"/>
  <unicode hex="2113"/>
  <outline>
    <contour>
      <point x="408" y="-11" type="curve"/>
      <point x="421" y="47" type="line"/>
      <point x="273" y="47"/>
      <point x="217" y="62"/>
      <point x="247" y="258" type="curve" smooth="yes"/>
      <point x="398" y="1215" type="line"/>
      <point x="134" y="1215" type="line"/>
      <point x="130" y="1157" type="line"/>
      <point x="319" y="1157" type="line"/>
      <point x="172" y="259" type="line" smooth="yes"/>
      <point x="138" y="47"/>
      <point x="193" y="-13"/>
    </contour>
  </outline>
</glyph>
<glyph name="trademark" format="1">
  <advance width="1733"/>
  <unicode hex="2122"/>
  <outline>
    <contour>
      <point x="818" y="511" type="line"/>
      <point x="1045" y="511" type="line"/>
      <point x="1045" y="565" type="line"/>
      <point x="963" y="565" type="line"/>
      <point x="963" y="1029" type="line"/>
      <point x="1197" y="545" type="line"/>
      <point x="1212" y="545" type="line"/>
      <point x="1439" y="1028" type="line"/>
      <point x="1439" y="565" type="line"/>
      <point x="1358" y="565" type="line"/>
      <point x="1358" y="511" type="line"/>
      <point x="1585" y="511" type="line"/>
      <point x="1585" y="565" type="line"/>
      <point x="1504" y="565" type="line"/>
      <point x="1504" y="1097" type="line"/>
      <point x="1585" y="1097" type="line"/>
      <point x="1585" y="1152" type="line"/>
      <point x="1426" y="1152" type="line"/>
      <point x="1205" y="671" type="line"/>
      <point x="977" y="1152" type="line"/>
      <point x="818" y="1152" type="line"/>
      <point x="818" y="1097" type="line"/>
      <point x="900" y="1097" type="line"/>
      <point x="900" y="565" type="line"/>
      <point x="818" y="565" type="line"/>
    </contour>
    <contour>
      <point x="287" y="511" type="line"/>
      <point x="536" y="511" type="line"/>
      <point x="536" y="564" type="line"/>
      <point x="444" y="564" type="line"/>
      <point x="444" y="1094" type="line"/>
      <point x="633" y="1094" type="line"/>
      <point x="633" y="937" type="line"/>
      <point x="696" y="937" type="line"/>
      <point x="696" y="1152" type="line"/>
      <point x="130" y="1152" type="line"/>
      <point x="130" y="937" type="line"/>
      <point x="192" y="937" type="line"/>
      <point x="192" y="1094" type="line"/>
      <point x="377" y="1094" type="line"/>
      <point x="377" y="564" type="line"/>
      <point x="287" y="564" type="line"/>
    </contour>
  </outline>
</glyph>
<glyph name="uni2126" format="1">
  <advance width="1390"/>
  <unicode hex="2126"/>
  <outline>
    <contour>
      <point x="214" y="0" type="line"/>
      <point x="627" y="0" type="line"/>
      <point x="627" y="37" type="line"/>
      <point x="381" y="188"/>
      <point x="263" y="447"/>
      <point x="263" y="668" type="curve" smooth="yes"/>
      <point x="263" y="916"/>
      <point x="413" y="1130"/>
      <point x="703" y="1130" type="curve" smooth="yes"/>
      <point x="993" y="1130"/>
      <point x="1143" y="916"/>
      <point x="1143" y="668" type="curve" smooth="yes"/>
      <point x="1143" y="447"/>
      <point x="1025" y="188"/>
      <point x="779" y="37" type="curve"/>
      <point x="779" y="0" type="line"/>
      <point x="1192" y="0" type="line"/>
      <point x="1192" y="46" type="line"/>
      <point x="861" y="46" type="line"/>
      <point x="1081" y="188"/>
      <point x="1199" y="450"/>
      <point x="1199" y="679" type="curve" smooth="yes"/>
      <point x="1199" y="942"/>
      <point x="1043" y="1174"/>
      <point x="703" y="1174" type="curve" smooth="yes"/>
      <point x="363" y="1174"/>
      <point x="207" y="942"/>
      <point x="207" y="679" type="curve" smooth="yes"/>
      <point x="207" y="450"/>
      <point x="325" y="188"/>
      <point x="545" y="46" type="curve"/>
      <point x="214" y="46" type="line"/>
    </contour>
  </outline>
</glyph>
<glyph name="estimated" format="1">
  <advance width="971"/>
  <unicode hex="212E"/>
  <outline>
    <contour>
      <point x="522" y="-14" type="curve" smooth="yes"/>
      <point x="669" y="-14"/>
      <point x="783" y="52"/>
      <point x="868" y="139" type="curve"/>
      <point x="840" y="171" type="line"/>
      <point x="772" y="90"/>
      <point x="661" y="30"/>
      <point x="524" y="30" type="curve" smooth="yes"/>
      <point x="331" y="30"/>
      <point x="199" y="184"/>
      <point x="192" y="393" type="curve"/>
      <point x="869" y="393" type="line"/>
      <point x="869" y="642"/>
      <point x="718" y="819"/>
      <point x="498" y="819" type="curve" smooth="yes"/>
      <point x="264" y="819"/>
      <point x="106" y="641"/>
      <point x="106" y="403" type="curve" smooth="yes"/>
      <point x="106" y="165"/>
      <point x="279" y="-14"/>
    </contour>
    <contour>
      <point x="192" y="430" type="line"/>
      <point x="200" y="634"/>
      <point x="318" y="785"/>
      <point x="500" y="785" type="curve" smooth="yes"/>
      <point x="680" y="785"/>
      <point x="800" y="628"/>
      <point x="806" y="430" type="curve"/>
    </contour>
  </outline>
</glyph>
<glyph name="partialdiff" format="1">
  <advance width="922"/>
  <unicode hex="2202"/>
  <outline>
    <contour>
      <point x="431" y="-22" type="curve" smooth="yes"/>
      <point x="751" y="-22"/>
      <point x="834" y="269"/>
      <point x="834" y="522" type="curve" smooth="yes"/>
      <point x="834" y="853"/>
      <point x="723" y="1163"/>
      <point x="435" y="1163" type="curve"/>
      <point x="332" y="1160"/>
      <point x="253" y="1136"/>
      <point x="154" y="1091" type="curve"/>
      <point x="173" y="1046" type="line"/>
      <point x="267" y="1089"/>
      <point x="357" y="1113"/>
      <point x="433" y="1113" type="curve" smooth="yes"/>
      <point x="636" y="1113"/>
      <point x="754" y="936"/>
      <point x="771" y="624" type="curve"/>
      <point x="356" y="611"/>
      <point x="160" y="411"/>
      <point x="160" y="210" type="curve" smooth="yes"/>
      <point x="160" y="74"/>
      <point x="257" y="-22"/>
    </contour>
    <contour>
      <point x="433" y="29" type="curve" smooth="yes"/>
      <point x="294" y="29"/>
      <point x="219" y="102"/>
      <point x="219" y="209" type="curve" smooth="yes"/>
      <point x="219" y="399"/>
      <point x="421" y="574"/>
      <point x="776" y="574" type="curve"/>
      <point x="777" y="554"/>
      <point x="778" y="514"/>
      <point x="778" y="517" type="curve" smooth="yes"/>
      <point x="778" y="242"/>
      <point x="674" y="29"/>
    </contour>
  </outline>
</glyph>
<glyph name="emptyset" format="1">
  <advance width="1414"/>
  <unicode hex="2205"/>
  <outline>
    <contour>
      <point x="152" y="22" type="line"/>
      <point x="1314" y="1098" type="line"/>
      <point x="1280" y="1131" type="line"/>
      <point x="117" y="59" type="line"/>
    </contour>
    <component base="O"/>
  </outline>
</glyph>
<glyph name="uni2206" format="1">
  <advance width="761"/>
  <unicode hex="2206"/>
  <outline>
    <contour>
      <point x="63" y="0" type="line"/>
      <point x="704" y="0" type="line"/>
      <point x="704" y="57" type="line"/>
      <point x="396" y="1037" type="line"/>
      <point x="368" y="1037" type="line"/>
      <point x="63" y="58" type="line"/>
    </contour>
    <contour>
      <point x="106" y="55" type="line"/>
      <point x="374" y="939" type="line"/>
      <point x="645" y="55" type="line"/>
    </contour>
  </outline>
</glyph>
<glyph name="product" format="1">
  <advance width="1308"/>
  <unicode hex="220F"/>
  <outline>
    <contour>
      <point x="114" y="0" type="line"/>
      <point x="473" y="0" type="line"/>
      <point x="473" y="48" type="line"/>
      <point x="324" y="48" type="line"/>
      <point x="324" y="1105" type="line"/>
      <point x="984" y="1105" type="line"/>
      <point x="984" y="48" type="line"/>
      <point x="835" y="48" type="line"/>
      <point x="835" y="0" type="line"/>
      <point x="1194" y="0" type="line"/>
      <point x="1194" y="48" type="line"/>
      <point x="1045" y="48" type="line"/>
      <point x="1045" y="1105" type="line"/>
      <point x="1194" y="1105" type="line"/>
      <point x="1194" y="1152" type="line"/>
      <point x="114" y="1152" type="line"/>
      <point x="114" y="1105" type="line"/>
      <point x="263" y="1105" type="line"/>
      <point x="263" y="48" type="line"/>
      <point x="114" y="48" type="line"/>
    </contour>
  </outline>
</glyph>
<glyph name="summation" format="1">
  <advance width="1116"/>
  <unicode hex="2211"/>
  <outline>
    <contour>
      <point x="81" y="0" type="line"/>
      <point x="1001" y="0" type="line"/>
      <point x="1001" y="349" type="line"/>
      <point x="922" y="349" type="line"/>
      <point x="922" y="65" type="line"/>
      <point x="299" y="65" type="line"/>
      <point x="683" y="579" type="line"/>
      <point x="683" y="622" type="line"/>
      <point x="317" y="1086" type="line"/>
      <point x="905" y="1086" type="line"/>
      <point x="905" y="804" type="line"/>
      <point x="984" y="804" type="line"/>
      <point x="984" y="1152" type="line"/>
      <point x="81" y="1152" type="line"/>
      <point x="81" y="1086" type="line"/>
      <point x="228" y="1086" type="line"/>
      <point x="612" y="588" type="line"/>
      <point x="228" y="65" type="line"/>
      <point x="81" y="65" type="line"/>
    </contour>
  </outline>
</glyph>
<glyph name="radical" format="1">
  <advance width="1094"/>
  <unicode hex="221A"/>
  <outline>
    <contour>
      <point x="521" y="-14" type="line"/>
      <point x="544" y="-14" type="line"/>
      <point x="1006" y="1363" type="line"/>
      <point x="950" y="1363" type="line"/>
      <point x="532" y="110" type="line"/>
      <point x="295" y="632" type="line"/>
      <point x="30" y="632" type="line"/>
      <point x="30" y="576" type="line"/>
      <point x="238" y="576" type="line"/>
    </contour>
  </outline>
</glyph>
<glyph name="infinity" format="1">
  <advance width="1246"/>
  <unicode hex="221E"/>
  <outline>
    <contour>
      <point x="354" y="262" type="curve" smooth="yes"/>
      <point x="452" y="262"/>
      <point x="548" y="320"/>
      <point x="624" y="461" type="curve"/>
      <point x="699" y="309"/>
      <point x="795" y="257"/>
      <point x="896" y="257" type="curve" smooth="yes"/>
      <point x="1027" y="257"/>
      <point x="1153" y="368"/>
      <point x="1153" y="554" type="curve" smooth="yes"/>
      <point x="1153" y="747"/>
      <point x="1031" y="851"/>
      <point x="897" y="851" type="curve" smooth="yes"/>
      <point x="781" y="851"/>
      <point x="691" y="781"/>
      <point x="624" y="657" type="curve"/>
      <point x="552" y="798"/>
      <point x="442" y="855"/>
      <point x="354" y="855" type="curve" smooth="yes"/>
      <point x="192" y="855"/>
      <point x="93" y="716"/>
      <point x="93" y="558" type="curve" smooth="yes"/>
      <point x="93" y="395"/>
      <point x="180" y="262"/>
    </contour>
    <contour>
      <point x="349" y="321" type="curve" smooth="yes"/>
      <point x="226" y="321"/>
      <point x="167" y="424"/>
      <point x="167" y="558" type="curve" smooth="yes"/>
      <point x="167" y="670"/>
      <point x="224" y="795"/>
      <point x="345" y="795" type="curve" smooth="yes"/>
      <point x="446" y="795"/>
      <point x="525" y="710"/>
      <point x="591" y="559" type="curve"/>
      <point x="515" y="394"/>
      <point x="438" y="321"/>
    </contour>
    <contour>
      <point x="900" y="317" type="curve" smooth="yes"/>
      <point x="795" y="317"/>
      <point x="729" y="386"/>
      <point x="654" y="554" type="curve"/>
      <point x="728" y="711"/>
      <point x="800" y="790"/>
      <point x="899" y="790" type="curve" smooth="yes"/>
      <point x="1008" y="790"/>
      <point x="1079" y="685"/>
      <point x="1079" y="556" type="curve" smooth="yes"/>
      <point x="1079" y="415"/>
      <point x="1007" y="317"/>
    </contour>
  </outline>
</glyph>
<glyph name="integral" format="1">
  <advance width="765"/>
  <unicode hex="222B"/>
  <outline>
    <contour>
      <point x="33" y="-86" type="line"/>
      <point x="120" y="-86"/>
      <point x="214" y="-93"/>
      <point x="255" y="55" type="curve" smooth="yes"/>
      <point x="536" y="1075" type="line" smooth="yes"/>
      <point x="558" y="1156"/>
      <point x="605" y="1194"/>
      <point x="669" y="1194" type="curve" smooth="yes"/>
      <point x="699" y="1194"/>
      <point x="731" y="1188"/>
      <point x="763" y="1175" type="curve"/>
      <point x="775" y="1219" type="line"/>
      <point x="738" y="1236"/>
      <point x="698" y="1244"/>
      <point x="663" y="1244" type="curve" smooth="yes"/>
      <point x="573" y="1244"/>
      <point x="504" y="1188"/>
      <point x="473" y="1078" type="curve" smooth="yes"/>
      <point x="192" y="60" type="line" smooth="yes"/>
      <point x="165" y="-41"/>
      <point x="109" y="-36"/>
      <point x="44" y="-36" type="curve"/>
    </contour>
  </outline>
</glyph>
